SplineFontDB: 3.0
FontName: Vaigai-BoldItalic
FullName: Vaigai Bold Italic
FamilyName: Vaigai
Weight: Bold
Copyright: Copyright (c) 1995-2015, NLCI (http://www.nlci.in/fonts/) Derived from SAU Vaigai Bold Italic by ttfbuilder v0.33
Version: 1.0 Sat Jul 20 09:51:16 1996
ItalicAngle: 12
UnderlinePosition: -532.48
UnderlineWidth: 40.96
Ascent: 1638
Descent: 410
InvalidEm: 0
sfntRevision: 0x00010000
LayerCount: 2
Layer: 0 1 "Back" 1
Layer: 1 1 "Fore" 0
XUID: [1021 315 1492517528 9299712]
StyleMap: 0x0021
FSType: 0
OS2Version: 1
OS2_WeightWidthSlopeOnly: 0
OS2_UseTypoMetrics: 0
CreationTime: 1522121141
ModificationTime: 1522121179
PfmFamily: 17
TTFWeight: 700
TTFWidth: 5
LineGap: 0
VLineGap: 0
Panose: 2 0 0 3 0 0 0 0 0 0
OS2TypoAscent: 2154
OS2TypoAOffset: 0
OS2TypoDescent: -752
OS2TypoDOffset: 0
OS2TypoLinegap: 0
OS2WinAscent: 2154
OS2WinAOffset: 0
OS2WinDescent: 752
OS2WinDOffset: 0
HheadAscent: 2154
HheadAOffset: 0
HheadDescent: -752
HheadDOffset: 0
OS2SubXSize: 1434
OS2SubYSize: 1331
OS2SubXOff: 0
OS2SubYOff: 293
OS2SupXSize: 1434
OS2SupYSize: 1331
OS2SupXOff: 0
OS2SupYOff: 928
OS2StrikeYSize: 102
OS2StrikeYPos: 530
OS2Vendor: 'Alts'
OS2CodePages: 00000001.00000000
OS2UnicodeRanges: 80108003.02002000.00000000.00000000
Lookup: 260 0 0 "_holdAnchorsbase" { "_someAnchorsbase"  } []
DEI: 91125
ShortTable: maxp 16
  1
  0
  339
  193
  12
  308
  16
  1
  0
  0
  0
  0
  3
  0
  3
  2
EndShort

StartChar: .notdef
Encoding: 0 -1 0
Width: 1024
Flags: W
LayerCount: 2
Fore
SplineSet
63 0 m 1,0,-1
 63 1536 l 1,1,-1
 961 1536 l 1,2,-1
 961 0 l 1,3,-1
 63 0 l 1,0,-1
897 63 m 1,4,-1
 897 1473 l 1,5,-1
 127 1473 l 1,6,-1
 127 63 l 1,7,-1
 897 63 l 1,4,-1
EndSplineSet
EndChar

StartChar: exclam
Encoding: 4 33 4
Width: 500
Flags: W
LayerCount: 2
Fore
SplineSet
316 419 m 0,0,1
 306 412 306 412 291.5 405 c 0,2,3
 277 398 277 398 261.5 391.5 c 0,4,5
 246 385 246 385 230.5 379.5 c 0,6,7
 215 374 215 374 203 370 c 0,8,-1
 178 391 l 0,9,-1
 223 1314 l 0,10,11
 245 1326 245 1326 281.5 1344 c 0,12,13
 318 1362 318 1362 357 1380 c 0,14,15
 396 1398 396 1398 431 1413.5 c 0,16,17
 466 1429 466 1429 486 1436 c 0,18,-1
 530 1401 l 0,19,-1
 316 419 l 0,0,1
373 172 m 0,20,21
 373 137 373 137 360.5 101 c 0,22,23
 348 65 348 65 323 36 c 0,24,25
 298 7 298 7 261 -12 c 0,26,27
 224 -31 224 -31 175 -31 c 0,28,29
 105 -31 105 -31 73 2 c 0,30,31
 41 35 41 35 41 88 c 0,32,33
 41 121 41 121 55 156 c 0,34,35
 69 191 69 191 94.5 220 c 0,36,37
 120 249 120 249 157 267.5 c 0,38,39
 194 286 194 286 241 286 c 0,40,41
 308 286 308 286 340.5 253.5 c 0,42,43
 373 221 373 221 373 172 c 0,20,21
EndSplineSet
EndChar

StartChar: quotedbl
Encoding: 5 34 5
Width: 923
Flags: W
LayerCount: 2
Fore
SplineSet
732 849 m 0,0,1
 724 844 724 844 709 840.5 c 0,2,3
 694 837 694 837 677.5 834 c 0,4,5
 661 831 661 831 645 829.5 c 0,6,7
 629 828 629 828 618 828 c 0,8,-1
 601 1342 l 0,9,10
 609 1346 609 1346 628.5 1354 c 0,11,12
 648 1362 648 1362 673 1371 c 0,13,14
 698 1380 698 1380 726 1389.5 c 0,15,16
 754 1399 754 1399 779.5 1407.5 c 0,17,18
 805 1416 805 1416 824 1422 c 0,19,20
 843 1428 843 1428 850 1430 c 0,21,-1
 897 1399 l 0,22,-1
 732 849 l 0,0,1
342 849 m 0,23,24
 334 844 334 844 319 840.5 c 0,25,26
 304 837 304 837 287.5 834 c 0,27,28
 271 831 271 831 255 829.5 c 0,29,30
 239 828 239 828 228 828 c 0,31,-1
 211 1342 l 0,32,33
 219 1346 219 1346 238.5 1354 c 0,34,35
 258 1362 258 1362 283 1371 c 0,36,37
 308 1380 308 1380 336 1389.5 c 0,38,39
 364 1399 364 1399 389.5 1407.5 c 0,40,41
 415 1416 415 1416 434 1422 c 0,42,43
 453 1428 453 1428 460 1430 c 0,44,-1
 507 1399 l 0,45,-1
 342 849 l 0,23,24
EndSplineSet
EndChar

StartChar: numbersign
Encoding: 6 35 6
Width: 968
Flags: W
LayerCount: 2
Fore
SplineSet
416 610 m 0,0,-1
 574 610 l 0,1,-1
 661 826 l 0,2,-1
 503 826 l 0,3,-1
 416 610 l 0,0,-1
864 981 m 0,4,-1
 1008 981 l 0,5,-1
 1028 956 l 0,6,7
 1024 945 1024 945 1015.5 926.5 c 0,8,9
 1007 908 1007 908 997 888.5 c 0,10,11
 987 869 987 869 977.5 851.5 c 0,12,13
 968 834 968 834 963 826 c 0,14,-1
 801 826 l 0,15,-1
 714 610 l 0,16,-1
 859 610 l 0,17,-1
 875 583 l 0,18,19
 872 573 872 573 864 555 c 0,20,21
 856 537 856 537 846 517.5 c 0,22,23
 836 498 836 498 827 481 c 0,24,25
 818 464 818 464 814 455 c 0,26,-1
 652 455 l 0,27,-1
 537 170 l 0,28,29
 528 163 528 163 511.5 157 c 0,30,31
 495 151 495 151 476.5 146 c 0,32,33
 458 141 458 141 440 136 c 0,34,35
 422 131 422 131 409 127 c 0,36,-1
 388 147 l 0,37,-1
 512 455 l 0,38,-1
 354 455 l 0,39,-1
 239 170 l 0,40,41
 230 163 230 163 213.5 157 c 0,42,43
 197 151 197 151 179 146 c 0,44,-1
 143 136 l 0,45,46
 125 131 125 131 112 127 c 0,47,-1
 91 147 l 0,48,-1
 215 455 l 0,49,-1
 55 455 l 0,50,-1
 37 480 l 0,51,52
 41 490 41 490 49.5 507.5 c 0,53,54
 58 525 58 525 67.5 544.5 c 0,55,56
 77 564 77 564 86.5 582 c 0,57,58
 96 600 96 600 102 610 c 0,59,-1
 277 610 l 0,60,-1
 364 826 l 0,61,-1
 207 826 l 0,62,-1
 187 850 l 0,63,64
 190 861 190 861 199 879 c 0,65,66
 208 897 208 897 218 916.5 c 0,67,68
 228 936 228 936 237.5 953.5 c 0,69,70
 247 971 247 971 252 981 c 0,71,-1
 426 981 l 0,72,-1
 535 1251 l 0,73,74
 546 1259 546 1259 563 1264.5 c 0,75,76
 580 1270 580 1270 598 1274 c 0,77,-1
 632 1283 l 0,78,79
 648 1287 648 1287 659 1292 c 0,80,-1
 683 1270 l 0,81,-1
 566 981 l 0,82,-1
 723 981 l 0,83,-1
 832 1251 l 0,84,85
 843 1259 843 1259 859.5 1264.5 c 0,86,87
 876 1270 876 1270 894 1274.5 c 0,88,89
 912 1279 912 1279 929 1283 c 0,90,91
 946 1287 946 1287 957 1292 c 0,92,-1
 980 1270 l 0,93,-1
 864 981 l 0,4,-1
EndSplineSet
EndChar

StartChar: dollar
Encoding: 7 36 7
Width: 968
Flags: W
LayerCount: 2
Fore
SplineSet
943 1144 m 0,0,1
 947 1141 947 1141 942.5 1123.5 c 0,2,3
 938 1106 938 1106 928 1080 c 0,4,5
 918 1054 918 1054 905 1024.5 c 0,6,7
 892 995 892 995 878.5 968.5 c 0,8,9
 865 942 865 942 853.5 923.5 c 0,10,11
 842 905 842 905 836 901 c 0,12,-1
 768 911 l 0,13,14
 762 942 762 942 750 970 c 0,15,16
 738 998 738 998 719.5 1021.5 c 0,17,18
 701 1045 701 1045 675.5 1063 c 0,19,20
 650 1081 650 1081 616 1091 c 0,21,-1
 567 741 l 0,22,23
 639 712 639 712 696.5 681 c 0,24,25
 754 650 754 650 794.5 612 c 0,26,27
 835 574 835 574 857 526.5 c 0,28,29
 879 479 879 479 879 418 c 0,30,31
 879 340 879 340 854 268 c 0,32,33
 829 196 829 196 777 137.5 c 0,34,35
 725 79 725 79 646.5 37.5 c 0,36,37
 568 -4 568 -4 460 -21 c 0,38,-1
 445 -128 l 0,39,40
 427 -143 427 -143 397.5 -157.5 c 0,41,42
 368 -172 368 -172 344 -178 c 0,43,-1
 314 -147 l 0,44,-1
 330 -31 l 0,45,-1
 322 -31 l 0,46,47
 272 -31 272 -31 215 -14.5 c 0,48,49
 158 2 158 2 108.5 27 c 0,50,51
 59 52 59 52 26.5 81.5 c 0,52,53
 -6 111 -6 111 -6 138 c 0,54,55
 -6 149 -6 149 1 171 c 0,56,57
 8 193 8 193 19.5 219 c 0,58,59
 31 245 31 245 45.5 272 c 0,60,61
 60 299 60 299 75 321 c 0,62,63
 90 343 90 343 104.5 357 c 0,64,65
 119 371 119 371 129 371 c 0,66,67
 138 371 138 371 148 356.5 c 0,68,69
 158 342 158 342 170 318.5 c 0,70,71
 182 295 182 295 198 267 c 0,72,73
 214 239 214 239 236 212 c 0,74,75
 258 185 258 185 286.5 162.5 c 0,76,77
 315 140 315 140 353 129 c 0,78,-1
 414 565 l 0,79,80
 405 569 405 569 395 572.5 c 0,81,82
 385 576 385 576 375 581 c 0,83,84
 312 605 312 605 261.5 632.5 c 0,85,86
 211 660 211 660 176 694.5 c 0,87,88
 141 729 141 729 122 773 c 0,89,90
 103 817 103 817 103 875 c 0,91,92
 103 930 103 930 125 986 c 0,93,94
 147 1042 147 1042 195.5 1090 c 0,95,96
 244 1138 244 1138 320.5 1173.5 c 0,97,98
 397 1209 397 1209 507 1223 c 0,99,-1
 524 1338 l 0,100,101
 550 1354 550 1354 573 1371 c 0,102,103
 596 1388 596 1388 622 1396 c 0,104,-1
 654 1364 l 0,105,-1
 635 1231 l 0,106,-1
 639 1231 l 0,107,108
 683 1231 683 1231 726 1223.5 c 0,109,110
 769 1216 769 1216 808.5 1204 c 0,111,112
 848 1192 848 1192 882 1176 c 0,113,114
 916 1160 916 1160 943 1144 c 0,0,1
654 343 m 0,115,116
 654 395 654 395 625.5 434 c 0,117,118
 597 473 597 473 534 509 c 0,119,-1
 480 125 l 0,120,121
 566 139 566 139 610 195 c 0,122,123
 654 251 654 251 654 343 c 0,115,116
329 950 m 0,124,125
 329 926 329 926 334 905.5 c 0,126,127
 339 885 339 885 352 866 c 0,128,129
 365 847 365 847 387.5 828.5 c 0,130,131
 410 810 410 810 446 792 c 0,132,-1
 490 1100 l 0,133,134
 454 1094 454 1094 424.5 1080.5 c 0,135,136
 395 1067 395 1067 374 1047 c 0,137,138
 353 1027 353 1027 341 1002 c 0,139,140
 329 977 329 977 329 950 c 0,124,125
EndSplineSet
EndChar

StartChar: percent
Encoding: 8 37 8
Width: 1411
Flags: W
LayerCount: 2
Fore
SplineSet
712 995 m 0,0,1
 712 916 712 916 687 837.5 c 0,2,3
 662 759 662 759 613.5 696 c 0,4,5
 565 633 565 633 492.5 594 c 0,6,7
 420 555 420 555 325 555 c 0,8,9
 269 555 269 555 222 575 c 0,10,11
 175 595 175 595 141 629 c 0,12,13
 107 663 107 663 88 707.5 c 0,14,15
 69 752 69 752 69 800 c 0,16,17
 69 879 69 879 95 958 c 0,18,19
 121 1037 121 1037 172 1099 c 0,20,21
 223 1161 223 1161 297 1200 c 0,22,23
 371 1239 371 1239 467 1239 c 0,24,25
 518 1239 518 1239 563 1222 c 0,26,27
 608 1205 608 1205 641 1173.5 c 0,28,29
 674 1142 674 1142 693 1097 c 0,30,31
 712 1052 712 1052 712 995 c 0,0,1
504 1013 m 0,32,33
 504 1055 504 1055 498.5 1084.5 c 0,34,35
 493 1114 493 1114 483.5 1132 c 0,36,37
 474 1150 474 1150 460.5 1158 c 0,38,39
 447 1166 447 1166 432 1166 c 0,40,41
 402 1166 402 1166 379.5 1144 c 0,42,43
 357 1122 357 1122 341 1087.5 c 0,44,45
 325 1053 325 1053 314.5 1009.5 c 0,46,47
 304 966 304 966 297.5 923 c 0,48,49
 291 880 291 880 288.5 841 c 0,50,51
 286 802 286 802 286 777 c 0,52,53
 286 699 286 699 303 664 c 0,54,55
 320 629 320 629 362 629 c 0,56,57
 398 629 398 629 424.5 667.5 c 0,58,59
 451 706 451 706 469 764 c 0,60,61
 487 822 487 822 495.5 889 c 0,62,63
 504 956 504 956 504 1013 c 0,32,33
273 3 m 0,64,65
 261 -3 261 -3 241.5 -7.5 c 0,66,67
 222 -12 222 -12 200.5 -16 c 0,68,69
 179 -20 179 -20 158.5 -23.5 c 0,70,71
 138 -27 138 -27 125 -30 c 0,72,-1
 106 0 l 0,73,-1
 1137 1203 l 0,74,75
 1147 1207 1147 1207 1166.5 1211.5 c 0,76,77
 1186 1216 1186 1216 1208 1220.5 c 0,78,79
 1230 1225 1230 1225 1250 1229 c 0,80,81
 1270 1233 1270 1233 1281 1235 c 0,82,-1
 1301 1207 l 0,83,-1
 273 3 l 0,64,65
1338 408 m 0,84,85
 1338 329 1338 329 1313 250.5 c 0,86,87
 1288 172 1288 172 1239.5 109 c 0,88,89
 1191 46 1191 46 1118.5 7 c 0,90,91
 1046 -32 1046 -32 951 -32 c 0,92,93
 895 -32 895 -32 848 -12 c 0,94,95
 801 8 801 8 767 42 c 0,96,97
 733 76 733 76 714 120.5 c 0,98,99
 695 165 695 165 695 213 c 0,100,101
 695 292 695 292 721 371 c 0,102,103
 747 450 747 450 798 512 c 0,104,105
 849 574 849 574 923 613 c 0,106,107
 997 652 997 652 1093 652 c 0,108,109
 1144 652 1144 652 1189 635 c 0,110,111
 1234 618 1234 618 1267 586.5 c 0,112,113
 1300 555 1300 555 1319 510 c 0,114,115
 1338 465 1338 465 1338 408 c 0,84,85
1130 426 m 0,116,117
 1130 468 1130 468 1124.5 497.5 c 0,118,119
 1119 527 1119 527 1109.5 545 c 0,120,121
 1100 563 1100 563 1086.5 571 c 0,122,123
 1073 579 1073 579 1058 579 c 0,124,125
 1028 579 1028 579 1005.5 557 c 0,126,127
 983 535 983 535 967 500.5 c 0,128,129
 951 466 951 466 940.5 422.5 c 0,130,131
 930 379 930 379 923.5 336 c 0,132,133
 917 293 917 293 914.5 254 c 0,134,135
 912 215 912 215 912 190 c 0,136,137
 912 112 912 112 929 77 c 0,138,139
 946 42 946 42 988 42 c 0,140,141
 1024 42 1024 42 1050.5 80.5 c 0,142,143
 1077 119 1077 119 1095 177 c 0,144,145
 1113 235 1113 235 1121.5 302 c 0,146,147
 1130 369 1130 369 1130 426 c 0,116,117
EndSplineSet
EndChar

StartChar: ampersand
Encoding: 9 38 9
Width: 1327
Flags: W
LayerCount: 2
Fore
SplineSet
596 1130 m 0,0,1
 589 1080 589 1080 594.5 1026.5 c 0,2,3
 600 973 600 973 615 917 c 0,4,5
 656 942 656 942 685.5 973.5 c 0,6,7
 715 1005 715 1005 735.5 1038.5 c 0,8,9
 756 1072 756 1072 767 1106 c 0,10,11
 778 1140 778 1140 783 1171 c 0,12,13
 788 1206 788 1206 783.5 1232.5 c 0,14,15
 779 1259 779 1259 768 1277 c 0,16,17
 757 1295 757 1295 741.5 1304 c 0,18,19
 726 1313 726 1313 708 1313 c 0,20,21
 685 1313 685 1313 667 1299 c 0,22,23
 649 1285 649 1285 635 1260.5 c 0,24,25
 621 1236 621 1236 611.5 1202.5 c 0,26,27
 602 1169 602 1169 596 1130 c 0,0,1
527 124 m 0,28,29
 572 124 572 124 616.5 138 c 0,30,31
 661 152 661 152 704 176 c 0,32,33
 632 262 632 262 561 371.5 c 0,34,35
 490 481 490 481 436 603 c 0,36,37
 392 547 392 547 371 491.5 c 0,38,39
 350 436 350 436 342 373 c 0,40,41
 332 303 332 303 345.5 255.5 c 0,42,43
 359 208 359 208 386.5 178.5 c 0,44,45
 414 149 414 149 451.5 136.5 c 0,46,47
 489 124 489 124 527 124 c 0,28,29
1401 748 m 0,48,49
 1387 733 1387 733 1370 712.5 c 0,50,51
 1353 692 1353 692 1335.5 672 c 0,52,53
 1318 652 1318 652 1301 635 c 0,54,55
 1284 618 1284 618 1272 609 c 0,56,57
 1240 626 1240 626 1204.5 642 c 0,58,59
 1169 658 1169 658 1137 660 c 0,60,61
 1153 634 1153 634 1154.5 603.5 c 0,62,63
 1156 573 1156 573 1152 543 c 0,64,65
 1143 478 1143 478 1105.5 405 c 0,66,67
 1068 332 1068 332 1008 262 c 0,68,69
 1022 247 1022 247 1034.5 233 c 0,70,71
 1047 219 1047 219 1060 206 c 0,72,73
 1105 159 1105 159 1158.5 148 c 0,74,75
 1212 137 1212 137 1258 148 c 0,76,-1
 1264 65 l 0,77,78
 1221 46 1221 46 1171.5 28.5 c 0,79,80
 1122 11 1122 11 1077 -2 c 0,81,82
 1032 -15 1032 -15 998.5 -22.5 c 0,83,84
 965 -30 965 -30 955 -30 c 0,85,86
 931 -30 931 -30 889 -1.5 c 0,87,88
 847 27 847 27 794 78 c 0,89,90
 714 28 714 28 624.5 -1 c 0,91,92
 535 -30 535 -30 441 -30 c 0,93,94
 237 -30 237 -30 139.5 66.5 c 0,95,96
 42 163 42 163 68 352 c 0,97,98
 81 454 81 454 155 557.5 c 0,99,100
 229 661 229 661 376 768 c 0,101,102
 355 846 355 846 347 922.5 c 0,103,104
 339 999 339 999 349 1073 c 0,105,106
 360 1154 360 1154 400 1223 c 0,107,108
 440 1292 440 1292 499 1342.5 c 0,109,110
 558 1393 558 1393 632 1421.5 c 0,111,112
 706 1450 706 1450 786 1450 c 0,113,114
 860 1450 860 1450 911.5 1429.5 c 0,115,116
 963 1409 963 1409 993 1375 c 0,117,118
 1023 1341 1023 1341 1034 1296.5 c 0,119,120
 1045 1252 1045 1252 1038 1204 c 0,121,122
 1031 1152 1031 1152 996 1096.5 c 0,123,124
 961 1041 961 1041 910 988 c 0,125,126
 859 935 859 935 797.5 887 c 0,127,128
 736 839 736 839 676 802 c 0,129,-1
 659 791 l 0,130,131
 705 681 705 681 772 574.5 c 0,132,133
 839 468 839 468 911 376 c 0,134,135
 930 408 930 408 942 439.5 c 0,136,137
 954 471 954 471 959 502 c 0,138,139
 965 544 965 544 958 576.5 c 0,140,141
 951 609 951 609 934.5 630.5 c 0,142,143
 918 652 918 652 894.5 663.5 c 0,144,145
 871 675 871 675 844 675 c 0,146,-1
 819 713 l 0,147,-1
 837 731 l 0,148,149
 849 743 849 743 863.5 756 c 0,150,151
 878 769 878 769 892.5 779.5 c 0,152,153
 907 790 907 790 917 794 c 0,154,-1
 1377 794 l 0,155,-1
 1401 748 l 0,48,49
EndSplineSet
EndChar

StartChar: quotesingle
Encoding: 10 39 10
Width: 500
Flags: W
LayerCount: 2
Fore
SplineSet
342 849 m 0,0,1
 334 844 334 844 319 840.5 c 0,2,3
 304 837 304 837 287.5 834 c 0,4,5
 271 831 271 831 255 829.5 c 0,6,7
 239 828 239 828 228 828 c 0,8,-1
 211 1342 l 0,9,10
 219 1346 219 1346 238.5 1354 c 0,11,12
 258 1362 258 1362 283 1371 c 0,13,14
 308 1380 308 1380 336 1389.5 c 0,15,16
 364 1399 364 1399 389.5 1407.5 c 0,17,18
 415 1416 415 1416 434 1422 c 0,19,20
 453 1428 453 1428 460 1430 c 0,21,-1
 507 1399 l 0,22,-1
 342 849 l 0,0,1
EndSplineSet
EndChar

StartChar: parenleft
Encoding: 11 40 11
Width: 641
Flags: W
LayerCount: 2
Fore
SplineSet
762 1519 m 0,0,1
 696 1462 696 1462 636.5 1384.5 c 0,2,3
 577 1307 577 1307 528 1204 c 0,4,5
 479 1101 479 1101 441.5 971.5 c 0,6,7
 404 842 404 842 382 682 c 0,8,9
 361 536 361 536 356.5 405 c 0,10,11
 352 274 352 274 367 159 c 0,12,13
 382 44 382 44 418.5 -53.5 c 0,14,15
 455 -151 455 -151 516 -230 c 0,16,-1
 449 -315 l 0,17,18
 348 -252 348 -252 272.5 -152.5 c 0,19,20
 197 -53 197 -53 151.5 72.5 c 0,21,22
 106 198 106 198 92.5 345 c 0,23,24
 79 492 79 492 102 651 c 0,25,26
 125 815 125 815 179.5 962 c 0,27,28
 234 1109 234 1109 314 1231.5 c 0,29,30
 394 1354 394 1354 496.5 1449 c 0,31,32
 599 1544 599 1544 719 1604 c 0,33,-1
 762 1519 l 0,0,1
EndSplineSet
EndChar

StartChar: parenright
Encoding: 12 41 12
Width: 641
Flags: W
LayerCount: 2
Fore
SplineSet
559 638 m 0,0,1
 536 474 536 474 481.5 327 c 0,2,3
 427 180 427 180 347 57.5 c 0,4,5
 267 -65 267 -65 164.5 -160 c 0,6,7
 62 -255 62 -255 -58 -315 c 0,8,-1
 -101 -230 l 0,9,10
 -35 -173 -35 -173 24.5 -95.5 c 0,11,12
 84 -18 84 -18 133 85 c 0,13,14
 182 188 182 188 219 317 c 0,15,16
 256 446 256 446 279 607 c 0,17,18
 300 753 300 753 304.5 884 c 0,19,20
 309 1015 309 1015 294 1130 c 0,21,22
 279 1245 279 1245 242.5 1342.5 c 0,23,24
 206 1440 206 1440 145 1519 c 0,25,-1
 212 1604 l 0,26,27
 313 1541 313 1541 388.5 1441.5 c 0,28,29
 464 1342 464 1342 509.5 1216.5 c 0,30,31
 555 1091 555 1091 568.5 944 c 0,32,33
 582 797 582 797 559 638 c 0,0,1
EndSplineSet
EndChar

StartChar: asterisk
Encoding: 13 42 13
Width: 746
Flags: W
LayerCount: 2
Fore
SplineSet
453 1230 m 0,0,-1
 666 1410 l 0,1,2
 674 1404 674 1404 691.5 1387.5 c 0,3,4
 709 1371 709 1371 728 1352.5 c 0,5,6
 747 1334 747 1334 763 1316.5 c 0,7,8
 779 1299 779 1299 785 1291 c 0,9,-1
 766 1231 l 0,10,-1
 494 1136 l 0,11,-1
 720 1051 l 0,12,13
 718 1039 718 1039 711 1012.5 c 0,14,15
 704 986 704 986 695.5 956.5 c 0,16,17
 687 927 687 927 679 901 c 0,18,19
 671 875 671 875 667 864 c 0,20,-1
 610 845 l 0,21,-1
 431 1038 l 0,22,-1
 446 775 l 0,23,24
 435 769 435 769 410.5 759 c 0,25,26
 386 749 386 749 358.5 738 c 0,27,28
 331 727 331 727 306 718.5 c 0,29,30
 281 710 281 710 271 707 c 0,31,-1
 234 748 l 0,32,-1
 327 1037 l 0,33,-1
 115 858 l 0,34,35
 106 864 106 864 88.5 880.5 c 0,36,37
 71 897 71 897 52 915.5 c 0,38,39
 33 934 33 934 16.5 951.5 c 0,40,41
 0 969 0 969 -6 977 c 0,42,-1
 15 1037 l 0,43,-1
 288 1132 l 0,44,-1
 60 1217 l 0,45,46
 63 1229 63 1229 70 1255.5 c 0,47,48
 77 1282 77 1282 85 1311.5 c 0,49,50
 93 1341 93 1341 101 1367 c 0,51,52
 109 1393 109 1393 114 1404 c 0,53,-1
 170 1423 l 0,54,-1
 349 1229 l 0,55,-1
 335 1493 l 0,56,57
 346 1499 346 1499 370.5 1509 c 0,58,59
 395 1519 395 1519 422.5 1530 c 0,60,61
 450 1541 450 1541 474 1549.5 c 0,62,63
 498 1558 498 1558 509 1561 c 0,64,-1
 547 1520 l 0,65,-1
 453 1230 l 0,0,-1
EndSplineSet
EndChar

StartChar: plus
Encoding: 14 43 14
Width: 835
Flags: W
LayerCount: 2
Fore
SplineSet
785 606 m 0,0,1
 781 595 781 595 772.5 578 c 0,2,3
 764 561 764 561 754 543 c 0,4,5
 744 525 744 525 735 509 c 0,6,7
 726 493 726 493 722 485 c 0,8,-1
 488 485 l 0,9,-1
 452 221 l 0,10,11
 443 216 443 216 428 210 c 0,12,13
 413 204 413 204 396.5 198 c 0,14,15
 380 192 380 192 364 187 c 0,16,17
 348 182 348 182 338 180 c 0,18,-1
 312 212 l 0,19,-1
 349 485 l 0,20,-1
 81 485 l 0,21,-1
 55 519 l 0,22,23
 59 530 59 530 67 546.5 c 0,24,25
 75 563 75 563 84.5 580.5 c 0,26,27
 94 598 94 598 103 614 c 0,28,29
 112 630 112 630 117 640 c 0,30,-1
 370 640 l 0,31,-1
 407 906 l 0,32,33
 416 909 416 909 431 914.5 c 0,34,35
 446 920 446 920 462.5 926 c 0,36,37
 479 932 479 932 495 937 c 0,38,39
 511 942 511 942 521 945 c 0,40,-1
 546 912 l 0,41,-1
 509 640 l 0,42,-1
 757 640 l 0,43,-1
 785 606 l 0,0,1
EndSplineSet
EndChar

StartChar: comma
Encoding: 15 44 15
Width: 500
Flags: W
LayerCount: 2
Fore
SplineSet
399 122 m 0,0,1
 399 76 399 76 383 25.5 c 0,2,3
 367 -25 367 -25 340.5 -75.5 c 0,4,5
 314 -126 314 -126 279 -174 c 0,6,7
 244 -222 244 -222 205.5 -264.5 c 0,8,9
 167 -307 167 -307 128 -340.5 c 0,10,11
 89 -374 89 -374 54 -395 c 0,12,-1
 -10 -340 l 0,13,14
 28 -300 28 -300 57 -258 c 0,15,16
 86 -216 86 -216 105 -175.5 c 0,17,18
 124 -135 124 -135 133.5 -98 c 0,19,20
 143 -61 143 -61 143 -30 c 0,21,22
 143 -12 143 -12 136 7 c 0,23,24
 129 26 129 26 115 41 c 0,25,26
 101 56 101 56 80 65 c 0,27,28
 59 74 59 74 30 71 c 0,29,-1
 27 159 l 0,30,31
 39 169 39 169 61.5 181 c 0,32,33
 84 193 84 193 112 205.5 c 0,34,35
 140 218 140 218 171 229 c 0,36,37
 202 240 202 240 231 249 c 0,38,39
 260 258 260 258 285 263.5 c 0,40,41
 310 269 310 269 326 269 c 0,42,43
 361 249 361 249 380 216.5 c 0,44,45
 399 184 399 184 399 122 c 0,0,1
EndSplineSet
EndChar

StartChar: hyphen
Encoding: 16 45 16
Width: 691
Flags: W
LayerCount: 2
Fore
SplineSet
596 383 m 1,0,-1
 59 383 l 1,1,-1
 100 598 l 1,2,-1
 637 598 l 1,3,-1
 596 383 l 1,0,-1
EndSplineSet
Refer: 356 727 N 1 0 0 1 0 0 2
EndChar

StartChar: period
Encoding: 17 46 17
Width: 500
Flags: W
LayerCount: 2
Fore
SplineSet
373 172 m 0,0,1
 373 137 373 137 360.5 101 c 0,2,3
 348 65 348 65 323 36 c 0,4,5
 298 7 298 7 261 -12 c 0,6,7
 224 -31 224 -31 175 -31 c 0,8,9
 105 -31 105 -31 73 2 c 0,10,11
 41 35 41 35 41 88 c 0,12,13
 41 121 41 121 55 156 c 0,14,15
 69 191 69 191 94.5 220 c 0,16,17
 120 249 120 249 157 267.5 c 0,18,19
 194 286 194 286 241 286 c 0,20,21
 308 286 308 286 340.5 253.5 c 0,22,23
 373 221 373 221 373 172 c 0,0,1
EndSplineSet
EndChar

StartChar: slash
Encoding: 18 47 18
Width: 911
Flags: W
LayerCount: 2
Fore
SplineSet
121 -265 m 0,0,1
 111 -272 111 -272 84 -282.5 c 0,2,3
 57 -293 57 -293 26.5 -303.5 c 0,4,5
 -4 -314 -4 -314 -32 -323 c 0,6,7
 -60 -332 -60 -332 -72 -336 c 0,8,-1
 -111 -301 l 0,9,-1
 785 1530 l 0,10,11
 798 1539 798 1539 824 1549.5 c 0,12,13
 850 1560 850 1560 878 1569.5 c 0,14,15
 906 1579 906 1579 932 1587 c 0,16,17
 958 1595 958 1595 973 1599 c 0,18,-1
 1014 1567 l 0,19,-1
 121 -265 l 0,0,1
EndSplineSet
EndChar

StartChar: zero
Encoding: 19 48 19
Width: 968
Flags: W
LayerCount: 2
Fore
SplineSet
928 784 m 0,0,1
 928 704 928 704 921 633 c 0,2,3
 914 562 914 562 898 495 c 0,4,5
 882 428 882 428 855.5 364 c 0,6,7
 829 300 829 300 791 236 c 0,8,9
 758 180 758 180 715 131.5 c 0,10,11
 672 83 672 83 619.5 47 c 0,12,13
 567 11 567 11 505.5 -10 c 0,14,15
 444 -31 444 -31 374 -31 c 0,16,17
 297 -31 297 -31 233 6.5 c 0,18,19
 169 44 169 44 123 106.5 c 0,20,21
 77 169 77 169 52 251 c 0,22,23
 27 333 27 333 27 422 c 0,24,25
 27 507 27 507 34 577 c 0,26,27
 41 647 41 647 57 710 c 0,28,29
 73 773 73 773 98 834 c 0,30,31
 123 895 123 895 158 961 c 0,32,33
 189 1018 189 1018 233 1068 c 0,34,35
 277 1118 277 1118 331 1155 c 0,36,37
 385 1192 385 1192 448.5 1213.5 c 0,38,39
 512 1235 512 1235 583 1235 c 0,40,41
 653 1235 653 1235 715.5 1204 c 0,42,43
 778 1173 778 1173 825.5 1114.5 c 0,44,45
 873 1056 873 1056 900.5 972.5 c 0,46,47
 928 889 928 889 928 784 c 0,0,1
660 816 m 0,48,49
 660 895 660 895 650.5 949 c 0,50,51
 641 1003 641 1003 624 1036.5 c 0,52,53
 607 1070 607 1070 583.5 1085 c 0,54,55
 560 1100 560 1100 532 1100 c 0,56,57
 481 1100 481 1100 443.5 1059.5 c 0,58,59
 406 1019 406 1019 379.5 954.5 c 0,60,61
 353 890 353 890 336.5 810 c 0,62,63
 320 730 320 730 310.5 650 c 0,64,65
 301 570 301 570 297.5 498.5 c 0,66,67
 294 427 294 427 294 380 c 0,68,69
 294 235 294 235 325.5 170.5 c 0,70,71
 357 106 357 106 428 106 c 0,72,73
 471 106 471 106 504.5 139 c 0,74,75
 538 172 538 172 564 227.5 c 0,76,77
 590 283 590 283 608 356 c 0,78,79
 626 429 626 429 637.5 507.5 c 0,80,81
 649 586 649 586 654.5 666 c 0,82,83
 660 746 660 746 660 816 c 0,48,49
EndSplineSet
EndChar

StartChar: one
Encoding: 20 49 20
Width: 968
Flags: W
LayerCount: 2
Fore
SplineSet
806 0 m 0,0,-1
 71 0 l 0,1,-1
 83 93 l 0,2,3
 158 102 158 102 208 113.5 c 0,4,5
 258 125 258 125 288.5 137 c 0,6,7
 319 149 319 149 332.5 160.5 c 0,8,9
 346 172 346 172 348 183 c 0,10,-1
 446 900 l 0,11,12
 451 940 451 940 451.5 962 c 0,13,14
 452 984 452 984 442 998 c 0,15,16
 437 1004 437 1004 423.5 1008 c 0,17,18
 410 1012 410 1012 382.5 1011 c 0,19,20
 355 1010 355 1010 311.5 1004 c 0,21,22
 268 998 268 998 205 984 c 0,23,-1
 190 1075 l 0,24,25
 217 1080 217 1080 259 1092 c 0,26,27
 301 1104 301 1104 349.5 1119.5 c 0,28,29
 398 1135 398 1135 449.5 1153 c 0,30,31
 501 1171 501 1171 548.5 1188 c 0,32,33
 596 1205 596 1205 635.5 1220 c 0,34,35
 675 1235 675 1235 700 1245 c 0,36,-1
 738 1200 l 0,37,-1
 599 183 l 0,38,39
 597 173 597 173 605.5 161.5 c 0,40,41
 614 150 614 150 638.5 138 c 0,42,43
 663 126 663 126 706 114 c 0,44,45
 749 102 749 102 818 93 c 0,46,-1
 806 0 l 0,0,-1
EndSplineSet
EndChar

StartChar: two
Encoding: 21 50 21
Width: 968
Flags: W
LayerCount: 2
Fore
SplineSet
921 1026 m 0,0,1
 921 984 921 984 910 941.5 c 0,2,3
 899 899 899 899 872 848.5 c 0,4,5
 845 798 845 798 799 736 c 0,6,7
 753 674 753 674 682.5 595 c 0,8,9
 612 516 612 516 514 416.5 c 0,10,11
 416 317 416 317 286 190 c 0,12,-1
 641 190 l 0,13,14
 657 190 657 190 671.5 199 c 0,15,16
 686 208 686 208 697.5 222.5 c 0,17,18
 709 237 709 237 718.5 255.5 c 0,19,20
 728 274 728 274 736 294 c 0,21,22
 754 340 754 340 764 399 c 0,23,-1
 848 377 l 0,24,-1
 781 0 l 0,25,-1
 6 0 l 0,26,-1
 -10 74 l 0,27,28
 168 255 168 255 293 395 c 0,29,30
 418 535 418 535 497 643.5 c 0,31,32
 576 752 576 752 612 833 c 0,33,34
 648 914 648 914 648 977 c 0,35,36
 648 1049 648 1049 620.5 1080 c 0,37,38
 593 1111 593 1111 539 1111 c 0,39,40
 502 1111 502 1111 477 1093.5 c 0,41,42
 452 1076 452 1076 437 1048 c 0,43,44
 422 1020 422 1020 416.5 985 c 0,45,46
 411 950 411 950 413 914 c 0,47,48
 397 905 397 905 365.5 893.5 c 0,49,50
 334 882 334 882 298.5 872 c 0,51,52
 263 862 263 862 229.5 854.5 c 0,53,54
 196 847 196 847 175 845 c 0,55,-1
 149 925 l 0,56,57
 156 977 156 977 196.5 1032 c 0,58,59
 237 1087 237 1087 301 1132 c 0,60,61
 365 1177 365 1177 448 1206 c 0,62,63
 531 1235 531 1235 623 1235 c 0,64,65
 680 1235 680 1235 734 1224.5 c 0,66,67
 788 1214 788 1214 829.5 1190 c 0,68,69
 871 1166 871 1166 896 1126 c 0,70,71
 921 1086 921 1086 921 1026 c 0,0,1
EndSplineSet
EndChar

StartChar: three
Encoding: 22 51 22
Width: 968
Flags: W
LayerCount: 2
Fore
SplineSet
873 1001 m 0,0,1
 873 947 873 947 855.5 900.5 c 0,2,3
 838 854 838 854 807 815.5 c 0,4,5
 776 777 776 777 734 747.5 c 0,6,7
 692 718 692 718 644 698 c 0,8,9
 697 692 697 692 735.5 668 c 0,10,11
 774 644 774 644 799.5 607 c 0,12,13
 825 570 825 570 837 524 c 0,14,15
 849 478 849 478 849 428 c 0,16,17
 849 334 849 334 809 250.5 c 0,18,19
 769 167 769 167 700.5 104.5 c 0,20,21
 632 42 632 42 541.5 5.5 c 0,22,23
 451 -31 451 -31 350 -31 c 0,24,25
 315 -31 315 -31 269.5 -19 c 0,26,27
 224 -7 224 -7 177.5 15 c 0,28,29
 131 37 131 37 86.5 68.5 c 0,30,31
 42 100 42 100 8 139 c 0,32,-1
 67 246 l 0,33,34
 140 177 140 177 212.5 149.5 c 0,35,36
 285 122 285 122 354 122 c 0,37,38
 399 122 399 122 439 141.5 c 0,39,40
 479 161 479 161 509.5 197 c 0,41,42
 540 233 540 233 558 284.5 c 0,43,44
 576 336 576 336 576 401 c 0,45,46
 576 501 576 501 530.5 547 c 0,47,48
 485 593 485 593 412 593 c 0,49,-1
 391 593 l 0,50,51
 383 593 383 593 374.5 592 c 0,52,53
 366 591 366 591 356.5 590 c 0,54,55
 347 589 347 589 333 586 c 0,56,-1
 327 686 l 0,57,58
 605 754 605 754 605 990 c 0,59,60
 605 1053 605 1053 584 1082 c 0,61,62
 563 1111 563 1111 520 1111 c 0,63,64
 496 1111 496 1111 475 1100.5 c 0,65,66
 454 1090 454 1090 439 1069.5 c 0,67,68
 424 1049 424 1049 416.5 1019.5 c 0,69,70
 409 990 409 990 412 953 c 0,71,72
 391 941 391 941 360 927 c 0,73,74
 329 913 329 913 294.5 901.5 c 0,75,76
 260 890 260 890 227.5 882.5 c 0,77,78
 195 875 195 875 171 874 c 0,79,-1
 145 945 l 0,80,81
 151 987 151 987 187 1037.5 c 0,82,83
 223 1088 223 1088 280.5 1132 c 0,84,85
 338 1176 338 1176 414 1205.5 c 0,86,87
 490 1235 490 1235 576 1235 c 0,88,89
 663 1235 663 1235 720 1215.5 c 0,90,91
 777 1196 777 1196 811 1163.5 c 0,92,93
 845 1131 845 1131 859 1088.5 c 0,94,95
 873 1046 873 1046 873 1001 c 0,0,1
EndSplineSet
EndChar

StartChar: four
Encoding: 23 52 23
Width: 968
Flags: W
LayerCount: 2
Fore
SplineSet
255 481 m 0,0,-1
 516 481 l 0,1,-1
 582 960 l 0,2,-1
 255 481 l 0,0,-1
911 450 m 0,3,4
 899 434 899 434 883.5 416.5 c 0,5,6
 868 399 868 399 852 382.5 c 0,7,8
 836 366 836 366 821 352.5 c 0,9,10
 806 339 806 339 794 330 c 0,11,-1
 737 330 l 0,12,-1
 711 144 l 0,13,14
 710 136 710 136 715 129.5 c 0,15,16
 720 123 720 123 733.5 115.5 c 0,17,18
 747 108 747 108 771 100 c 0,19,20
 795 92 795 92 833 83 c 0,21,-1
 822 0 l 0,22,-1
 255 0 l 0,23,-1
 266 83 l 0,24,25
 328 94 328 94 367.5 103.5 c 0,26,27
 407 113 407 113 430 121.5 c 0,28,29
 453 130 453 130 462 138 c 0,30,31
 471 146 471 146 472 155 c 0,32,-1
 496 330 l 0,33,-1
 61 330 l 0,34,-1
 27 373 l 0,35,-1
 578 1164 l 0,36,37
 602 1172 602 1172 634 1182.5 c 0,38,39
 666 1193 666 1193 699 1204 c 0,40,-1
 763 1225 l 0,41,42
 795 1236 795 1236 819 1245 c 0,43,-1
 856 1200 l 0,44,-1
 757 481 l 0,45,-1
 891 481 l 0,46,-1
 911 450 l 0,3,4
EndSplineSet
EndChar

StartChar: five
Encoding: 24 53 24
Width: 968
Flags: W
LayerCount: 2
Fore
SplineSet
948 1184 m 0,0,1
 937 1166 937 1166 915 1139 c 0,2,3
 893 1112 893 1112 869 1085 c 0,4,5
 845 1058 845 1058 823 1035.5 c 0,6,7
 801 1013 801 1013 789 1004 c 0,8,-1
 376 1004 l 0,9,10
 370 975 370 975 361.5 940.5 c 0,11,12
 353 906 353 906 344 872 c 0,13,14
 335 838 335 838 326.5 807 c 0,15,16
 318 776 318 776 311 754 c 0,17,18
 348 774 348 774 405 787 c 0,19,20
 462 800 462 800 523 800 c 0,21,22
 611 800 611 800 675 771.5 c 0,23,24
 739 743 739 743 780.5 697.5 c 0,25,26
 822 652 822 652 842 594 c 0,27,28
 862 536 862 536 862 477 c 0,29,30
 862 417 862 417 848 356.5 c 0,31,32
 834 296 834 296 806.5 239.5 c 0,33,34
 779 183 779 183 737.5 133.5 c 0,35,36
 696 84 696 84 640.5 47.5 c 0,37,38
 585 11 585 11 515 -10 c 0,39,40
 445 -31 445 -31 362 -31 c 0,41,42
 317 -31 317 -31 269.5 -20 c 0,43,44
 222 -9 222 -9 176 12 c 0,45,46
 130 33 130 33 87.5 64 c 0,47,48
 45 95 45 95 10 134 c 0,49,-1
 71 231 l 0,50,51
 116 196 116 196 155.5 173 c 0,52,53
 195 150 195 150 231 136.5 c 0,54,55
 267 123 267 123 299.5 117.5 c 0,56,57
 332 112 332 112 364 112 c 0,58,59
 412 112 412 112 455.5 136 c 0,60,61
 499 160 499 160 532 202 c 0,62,63
 565 244 565 244 584.5 301 c 0,64,65
 604 358 604 358 604 424 c 0,66,67
 604 473 604 473 591 513 c 0,68,69
 578 553 578 553 554 581 c 0,70,71
 530 609 530 609 495.5 624.5 c 0,72,73
 461 640 461 640 419 640 c 0,74,75
 338 640 338 640 278 615 c 0,76,77
 218 590 218 590 165 550 c 0,78,-1
 123 583 l 0,79,80
 136 619 136 619 151 669.5 c 0,81,82
 166 720 166 720 182 777 c 0,83,84
 198 834 198 834 214 895 c 0,85,86
 230 956 230 956 243.5 1012.5 c 0,87,88
 257 1069 257 1069 268.5 1119 c 0,89,90
 280 1169 280 1169 286 1204 c 0,91,-1
 805 1204 l 0,92,93
 830 1204 830 1204 850.5 1206.5 c 0,94,95
 871 1209 871 1209 885 1213 c 0,96,97
 902 1217 902 1217 915 1223 c 0,98,-1
 948 1184 l 0,0,1
EndSplineSet
EndChar

StartChar: six
Encoding: 25 54 25
Width: 968
Flags: W
LayerCount: 2
Fore
SplineSet
900 1150 m 0,0,1
 782 1129 782 1129 693 1086 c 0,2,3
 604 1043 604 1043 539 983 c 0,4,5
 474 923 474 923 431.5 848.5 c 0,6,7
 389 774 389 774 364 689 c 0,8,9
 425 738 425 738 485.5 764 c 0,10,11
 546 790 546 790 599 790 c 0,12,13
 666 790 666 790 721 767 c 0,14,15
 776 744 776 744 815 703.5 c 0,16,17
 854 663 854 663 875.5 606.5 c 0,18,19
 897 550 897 550 897 483 c 0,20,21
 897 429 897 429 882.5 369.5 c 0,22,23
 868 310 868 310 840.5 253 c 0,24,25
 813 196 813 196 772 144.5 c 0,26,27
 731 93 731 93 678.5 54 c 0,28,29
 626 15 626 15 562.5 -8 c 0,30,31
 499 -31 499 -31 425 -31 c 0,32,33
 349 -31 349 -31 281.5 -2.5 c 0,34,35
 214 26 214 26 163 77.5 c 0,36,37
 112 129 112 129 82.5 201 c 0,38,39
 53 273 53 273 53 360 c 0,40,41
 53 468 53 468 77 571.5 c 0,42,43
 101 675 101 675 148 768.5 c 0,44,45
 195 862 195 862 265 943 c 0,46,47
 335 1024 335 1024 427.5 1087 c 0,48,49
 520 1150 520 1150 635 1192 c 0,50,51
 750 1234 750 1234 886 1249 c 0,52,-1
 900 1150 l 0,0,1
506 639 m 0,53,54
 471 639 471 639 426 611 c 0,55,56
 381 583 381 583 333 535 c 0,57,58
 328 495 328 495 326 455 c 0,59,60
 324 415 324 415 324 373 c 0,61,62
 324 298 324 298 335 247 c 0,63,64
 346 196 346 196 365 164.5 c 0,65,66
 384 133 384 133 410.5 119.5 c 0,67,68
 437 106 437 106 467 106 c 0,69,70
 497 106 497 106 521 122.5 c 0,71,72
 545 139 545 139 563.5 167 c 0,73,74
 582 195 582 195 594.5 231 c 0,75,76
 607 267 607 267 615.5 305 c 0,77,78
 624 343 624 343 627.5 381.5 c 0,79,80
 631 420 631 420 631 452 c 0,81,82
 631 510 631 510 620 546.5 c 0,83,84
 609 583 609 583 591 603.5 c 0,85,86
 573 624 573 624 550.5 631.5 c 0,87,88
 528 639 528 639 506 639 c 0,53,54
EndSplineSet
EndChar

StartChar: seven
Encoding: 26 55 26
Width: 968
Flags: W
LayerCount: 2
Fore
SplineSet
1005 1167 m 0,0,1
 947 1059 947 1059 891 950 c 0,2,3
 835 841 835 841 782 735 c 0,4,5
 729 629 729 629 681 529 c 0,6,7
 633 429 633 429 591.5 341.5 c 0,8,9
 550 254 550 254 516.5 180.5 c 0,10,11
 483 107 483 107 460 54 c 0,12,13
 442 42 442 42 411.5 29.5 c 0,14,15
 381 17 381 17 347 6 c 0,16,17
 313 -5 313 -5 280 -14.5 c 0,18,19
 247 -24 247 -24 223 -30 c 0,20,-1
 181 13 l 0,21,22
 249 115 249 115 306 204.5 c 0,23,24
 363 294 363 294 413 376 c 0,25,26
 463 458 463 458 507.5 534.5 c 0,27,28
 552 611 552 611 594.5 687.5 c 0,29,30
 637 764 637 764 679 842 c 0,31,32
 721 920 721 920 767 1005 c 0,33,-1
 344 1005 l 0,34,35
 330 1005 330 1005 313.5 1001 c 0,36,37
 297 997 297 997 277.5 980.5 c 0,38,39
 258 964 258 964 234.5 931 c 0,40,41
 211 898 211 898 183 840 c 0,42,-1
 115 868 l 0,43,44
 119 883 119 883 126.5 910 c 0,45,46
 134 937 134 937 143 969.5 c 0,47,48
 152 1002 152 1002 161.5 1037 c 0,49,50
 171 1072 171 1072 180 1104.5 c 0,51,52
 189 1137 189 1137 197 1163 c 0,53,54
 205 1189 205 1189 211 1204 c 0,55,-1
 979 1204 l 0,56,-1
 1005 1167 l 0,0,1
EndSplineSet
EndChar

StartChar: eight
Encoding: 27 56 27
Width: 968
Flags: W
LayerCount: 2
Fore
SplineSet
933 1001 m 0,0,1
 933 950 933 950 911 907.5 c 0,2,3
 889 865 889 865 854 828.5 c 0,4,5
 819 792 819 792 776 761 c 0,6,7
 733 730 733 730 690 704 c 0,8,9
 730 683 730 683 767.5 656 c 0,10,11
 805 629 805 629 833.5 593 c 0,12,13
 862 557 862 557 879 509 c 0,14,15
 896 461 896 461 896 397 c 0,16,17
 896 312 896 312 855 234.5 c 0,18,19
 814 157 814 157 746.5 98 c 0,20,21
 679 39 679 39 591.5 4 c 0,22,23
 504 -31 504 -31 411 -31 c 0,24,25
 312 -31 312 -31 240.5 -8 c 0,26,27
 169 15 169 15 123 54 c 0,28,29
 77 93 77 93 55 143.5 c 0,30,31
 33 194 33 194 33 250 c 0,32,33
 33 314 33 314 59.5 369.5 c 0,34,35
 86 425 86 425 129 472.5 c 0,36,37
 172 520 172 520 227.5 559 c 0,38,39
 283 598 283 598 342 629 c 0,40,41
 307 648 307 648 275.5 670.5 c 0,42,43
 244 693 244 693 220.5 723 c 0,44,45
 197 753 197 753 183 793.5 c 0,46,47
 169 834 169 834 169 889 c 0,48,49
 169 962 169 962 205 1025.5 c 0,50,51
 241 1089 241 1089 302 1135.5 c 0,52,53
 363 1182 363 1182 444 1208.5 c 0,54,55
 525 1235 525 1235 615 1235 c 0,56,57
 699 1235 699 1235 759 1217.5 c 0,58,59
 819 1200 819 1200 858 1169 c 0,60,61
 897 1138 897 1138 915 1095 c 0,62,63
 933 1052 933 1052 933 1001 c 0,0,1
622 342 m 0,64,65
 622 390 622 390 608.5 425.5 c 0,66,67
 595 461 595 461 571.5 488 c 0,68,69
 548 515 548 515 517 535.5 c 0,70,71
 486 556 486 556 452 574 c 0,72,73
 421 543 421 543 395 509.5 c 0,74,75
 369 476 369 476 349.5 439 c 0,76,77
 330 402 330 402 319 361 c 0,78,79
 308 320 308 320 308 274 c 0,80,81
 308 231 308 231 319.5 198.5 c 0,82,83
 331 166 331 166 350 144 c 0,84,85
 369 122 369 122 393.5 111 c 0,86,87
 418 100 418 100 444 100 c 0,88,89
 484 100 484 100 517 121 c 0,90,91
 550 142 550 142 573 176.5 c 0,92,93
 596 211 596 211 609 254 c 0,94,95
 622 297 622 297 622 342 c 0,64,65
417 940 m 0,96,97
 417 905 417 905 429.5 879 c 0,98,99
 442 853 442 853 463.5 832 c 0,100,101
 485 811 485 811 514 793.5 c 0,102,103
 543 776 543 776 576 760 c 0,104,105
 615 800 615 800 644 852 c 0,106,107
 673 904 673 904 673 975 c 0,108,109
 673 1041 673 1041 642.5 1076 c 0,110,111
 612 1111 612 1111 556 1111 c 0,112,113
 527 1111 527 1111 502 1096 c 0,114,115
 477 1081 477 1081 458 1056.5 c 0,116,117
 439 1032 439 1032 428 1001.5 c 0,118,119
 417 971 417 971 417 940 c 0,96,97
EndSplineSet
EndChar

StartChar: nine
Encoding: 28 57 28
Width: 968
Flags: W
LayerCount: 2
Fore
SplineSet
942 862 m 0,0,1
 942 691 942 691 889 537 c 0,2,3
 836 383 836 383 730 261.5 c 0,4,5
 624 140 624 140 466.5 60 c 0,6,7
 309 -20 309 -20 100 -43 c 0,8,-1
 87 56 l 0,9,10
 208 84 208 84 299.5 125.5 c 0,11,12
 391 167 391 167 457 224 c 0,13,14
 523 281 523 281 565.5 355 c 0,15,16
 608 429 608 429 632 522 c 0,17,18
 580 475 580 475 517 444.5 c 0,19,20
 454 414 454 414 381 414 c 0,21,22
 306 414 306 414 252.5 440 c 0,23,24
 199 466 199 466 164.5 509 c 0,25,26
 130 552 130 552 114 608 c 0,27,28
 98 664 98 664 98 725 c 0,29,30
 98 817 98 817 136 908 c 0,31,32
 174 999 174 999 240 1072 c 0,33,34
 306 1145 306 1145 395.5 1190 c 0,35,36
 485 1235 485 1235 589 1235 c 0,37,38
 670 1235 670 1235 735 1212.5 c 0,39,40
 800 1190 800 1190 846 1144 c 0,41,42
 892 1098 892 1098 917 1027.5 c 0,43,44
 942 957 942 957 942 862 c 0,0,1
474 575 m 0,45,46
 526 575 526 575 572.5 602.5 c 0,47,48
 619 630 619 630 658 673 c 0,49,50
 667 757 667 757 667 856 c 0,51,52
 667 929 667 929 658.5 976.5 c 0,53,54
 650 1024 650 1024 634 1051.5 c 0,55,56
 618 1079 618 1079 596 1089.5 c 0,57,58
 574 1100 574 1100 547 1100 c 0,59,60
 494 1100 494 1100 458.5 1069 c 0,61,62
 423 1038 423 1038 402 990 c 0,63,64
 381 942 381 942 372 883.5 c 0,65,66
 363 825 363 825 363 770 c 0,67,68
 363 716 363 716 373 679 c 0,69,70
 383 642 383 642 399 618.5 c 0,71,72
 415 595 415 595 434.5 585 c 0,73,74
 454 575 454 575 474 575 c 0,45,46
EndSplineSet
EndChar

StartChar: colon
Encoding: 29 58 29
Width: 500
Flags: W
LayerCount: 2
Fore
SplineSet
373 172 m 0,0,1
 373 137 373 137 360.5 101 c 0,2,3
 348 65 348 65 323 36 c 0,4,5
 298 7 298 7 261 -12 c 0,6,7
 224 -31 224 -31 175 -31 c 0,8,9
 105 -31 105 -31 73 2 c 0,10,11
 41 35 41 35 41 88 c 0,12,13
 41 121 41 121 55 156 c 0,14,15
 69 191 69 191 94.5 220 c 0,16,17
 120 249 120 249 157 267.5 c 0,18,19
 194 286 194 286 241 286 c 0,20,21
 308 286 308 286 340.5 253.5 c 0,22,23
 373 221 373 221 373 172 c 0,0,1
466 847 m 0,24,25
 466 812 466 812 453.5 776 c 0,26,27
 441 740 441 740 416 711 c 0,28,29
 391 682 391 682 354 663 c 0,30,31
 317 644 317 644 268 644 c 0,32,33
 198 644 198 644 166 677 c 0,34,35
 134 710 134 710 134 763 c 0,36,37
 134 796 134 796 148 831 c 0,38,39
 162 866 162 866 187.5 895 c 0,40,41
 213 924 213 924 250 942.5 c 0,42,43
 287 961 287 961 334 961 c 0,44,45
 401 961 401 961 433.5 928.5 c 0,46,47
 466 896 466 896 466 847 c 0,24,25
EndSplineSet
EndChar

StartChar: semicolon
Encoding: 30 59 30
Width: 500
Flags: W
LayerCount: 2
Fore
SplineSet
399 122 m 0,0,1
 399 76 399 76 383 25.5 c 0,2,3
 367 -25 367 -25 340.5 -75.5 c 0,4,5
 314 -126 314 -126 279 -174 c 0,6,7
 244 -222 244 -222 205.5 -264.5 c 0,8,9
 167 -307 167 -307 128 -340.5 c 0,10,11
 89 -374 89 -374 54 -395 c 0,12,-1
 -10 -340 l 0,13,14
 28 -300 28 -300 57 -258 c 0,15,16
 86 -216 86 -216 105 -175.5 c 0,17,18
 124 -135 124 -135 133.5 -98 c 0,19,20
 143 -61 143 -61 143 -30 c 0,21,22
 143 -12 143 -12 136 7 c 0,23,24
 129 26 129 26 115 41 c 0,25,26
 101 56 101 56 80 65 c 0,27,28
 59 74 59 74 30 71 c 0,29,-1
 27 159 l 0,30,31
 39 169 39 169 61.5 181 c 0,32,33
 84 193 84 193 112 205.5 c 0,34,35
 140 218 140 218 171 229 c 0,36,37
 202 240 202 240 231 249 c 0,38,39
 260 258 260 258 285 263.5 c 0,40,41
 310 269 310 269 326 269 c 0,42,43
 361 249 361 249 380 216.5 c 0,44,45
 399 184 399 184 399 122 c 0,0,1
468 847 m 0,46,47
 468 812 468 812 455.5 776 c 0,48,49
 443 740 443 740 418 711 c 0,50,51
 393 682 393 682 356 663 c 0,52,53
 319 644 319 644 270 644 c 0,54,55
 200 644 200 644 168 677 c 0,56,57
 136 710 136 710 136 763 c 0,58,59
 136 796 136 796 150 831 c 0,60,61
 164 866 164 866 189.5 895 c 0,62,63
 215 924 215 924 252 942.5 c 0,64,65
 289 961 289 961 336 961 c 0,66,67
 403 961 403 961 435.5 928.5 c 0,68,69
 468 896 468 896 468 847 c 0,46,47
EndSplineSet
EndChar

StartChar: less
Encoding: 31 60 31
Width: 900
Flags: W
LayerCount: 2
Fore
SplineSet
867 892 m 0,0,1
 863 881 863 881 855.5 862 c 0,2,3
 848 843 848 843 840 822 c 0,4,5
 832 801 832 801 824.5 782 c 0,6,7
 817 763 817 763 813 754 c 0,8,-1
 321 569 l 0,9,-1
 773 382 l 0,10,-1
 791 336 l 0,11,12
 780 326 780 326 766 312.5 c 0,13,14
 752 299 752 299 736.5 285 c 0,15,16
 721 271 721 271 705 258 c 0,17,18
 689 245 689 245 674 236 c 0,19,-1
 85 480 l 0,20,-1
 60 525 l 0,21,22
 65 538 65 538 72 555 c 0,23,24
 79 572 79 572 86.5 590 c 0,25,26
 94 608 94 608 101.5 625 c 0,27,28
 109 642 109 642 115 654 c 0,29,-1
 839 927 l 0,30,-1
 867 892 l 0,0,1
EndSplineSet
EndChar

StartChar: equal
Encoding: 32 61 32
Width: 900
Flags: W
LayerCount: 2
Fore
SplineSet
809 456 m 0,0,1
 805 445 805 445 796.5 428 c 0,2,3
 788 411 788 411 778 393 c 0,4,5
 768 375 768 375 759 359 c 0,6,7
 750 343 750 343 746 335 c 0,8,-1
 66 335 l 0,9,-1
 40 369 l 0,10,11
 44 380 44 380 52 396.5 c 0,12,13
 60 413 60 413 69.5 430.5 c 0,14,15
 79 448 79 448 88 464 c 0,16,17
 97 480 97 480 103 490 c 0,18,-1
 782 490 l 0,19,-1
 809 456 l 0,0,1
850 756 m 0,20,21
 846 745 846 745 837.5 728 c 0,22,23
 829 711 829 711 819 693 c 0,24,25
 809 675 809 675 800 659 c 0,26,27
 791 643 791 643 787 635 c 0,28,-1
 107 635 l 0,29,-1
 81 669 l 0,30,31
 85 680 85 680 93 696.5 c 0,32,33
 101 713 101 713 110.5 730.5 c 0,34,35
 120 748 120 748 129 764 c 0,36,37
 138 780 138 780 144 790 c 0,38,-1
 823 790 l 0,39,-1
 850 756 l 0,20,21
EndSplineSet
EndChar

StartChar: greater
Encoding: 33 62 33
Width: 900
Flags: W
LayerCount: 2
Fore
SplineSet
831 638 m 0,0,1
 826 624 826 624 819 606.5 c 0,2,3
 812 589 812 589 804.5 571.5 c 0,4,5
 797 554 797 554 789.5 537.5 c 0,6,7
 782 521 782 521 776 509 c 0,8,-1
 51 236 l 0,9,-1
 25 271 l 0,10,11
 28 281 28 281 35.5 300.5 c 0,12,13
 43 320 43 320 51 341 c 0,14,15
 59 362 59 362 67 381 c 0,16,17
 75 400 75 400 79 409 c 0,18,-1
 570 594 l 0,19,-1
 118 781 l 0,20,-1
 101 827 l 0,21,22
 112 837 112 837 126 850.5 c 0,23,24
 140 864 140 864 155 878 c 0,25,26
 170 892 170 892 186 905 c 0,27,28
 202 918 202 918 217 927 c 0,29,-1
 805 683 l 0,30,-1
 831 638 l 0,0,1
EndSplineSet
EndChar

StartChar: question
Encoding: 34 63 34
Width: 900
Flags: W
LayerCount: 2
Fore
SplineSet
919 1186 m 0,0,1
 919 1103 919 1103 889.5 1038 c 0,2,3
 860 973 860 973 815 918.5 c 0,4,5
 770 864 770 864 716.5 816 c 0,6,7
 663 768 663 768 615.5 720 c 0,8,9
 568 672 568 672 533 620 c 0,10,11
 498 568 498 568 490 505 c 0,12,-1
 479 419 l 0,13,14
 470 412 470 412 455.5 404.5 c 0,15,16
 441 397 441 397 424.5 390.5 c 0,17,18
 408 384 408 384 392 378 c 0,19,20
 376 372 376 372 364 368 c 0,21,-1
 341 389 l 0,22,-1
 346 515 l 0,23,24
 349 577 349 577 371.5 631 c 0,25,26
 394 685 394 685 426.5 734 c 0,27,28
 459 783 459 783 496.5 829 c 0,29,30
 534 875 534 875 565.5 922.5 c 0,31,32
 597 970 597 970 618 1020.5 c 0,33,34
 639 1071 639 1071 639 1128 c 0,35,36
 639 1166 639 1166 631.5 1200 c 0,37,38
 624 1234 624 1234 610 1259.5 c 0,39,40
 596 1285 596 1285 574.5 1300 c 0,41,42
 553 1315 553 1315 525 1315 c 0,43,44
 495 1315 495 1315 472.5 1297.5 c 0,45,46
 450 1280 450 1280 437 1249 c 0,47,48
 424 1218 424 1218 421.5 1177 c 0,49,50
 419 1136 419 1136 428 1088 c 0,51,52
 406 1078 406 1078 371.5 1066.5 c 0,53,54
 337 1055 337 1055 300 1045.5 c 0,55,56
 263 1036 263 1036 228.5 1028.5 c 0,57,58
 194 1021 194 1021 172 1019 c 0,59,-1
 142 1060 l 0,60,61
 142 1124 142 1124 177 1189.5 c 0,62,63
 212 1255 212 1255 275 1308.5 c 0,64,65
 338 1362 338 1362 426 1396 c 0,66,67
 514 1430 514 1430 621 1430 c 0,68,69
 692 1430 692 1430 747.5 1411 c 0,70,71
 803 1392 803 1392 841 1359 c 0,72,73
 879 1326 879 1326 899 1281.5 c 0,74,75
 919 1237 919 1237 919 1186 c 0,0,1
543 172 m 0,76,77
 543 137 543 137 530.5 101 c 0,78,79
 518 65 518 65 493 36 c 0,80,81
 468 7 468 7 431 -12 c 0,82,83
 394 -31 394 -31 345 -31 c 0,84,85
 275 -31 275 -31 243 2 c 0,86,87
 211 35 211 35 211 88 c 0,88,89
 211 121 211 121 225 156 c 0,90,91
 239 191 239 191 264.5 220 c 0,92,93
 290 249 290 249 327 267.5 c 0,94,95
 364 286 364 286 411 286 c 0,96,97
 478 286 478 286 510.5 253.5 c 0,98,99
 543 221 543 221 543 172 c 0,76,77
EndSplineSet
EndChar

StartChar: at
Encoding: 35 64 35
Width: 1729
Flags: W
LayerCount: 2
Fore
SplineSet
1659 549 m 0,0,1
 1647 462 1647 462 1611.5 385 c 0,2,3
 1576 308 1576 308 1526.5 242.5 c 0,4,5
 1477 177 1477 177 1418 124.5 c 0,6,7
 1359 72 1359 72 1300 35 c 0,8,9
 1241 -2 1241 -2 1187 -21.5 c 0,10,11
 1133 -41 1133 -41 1094 -41 c 0,12,13
 1079 -41 1079 -41 1058.5 -32.5 c 0,14,15
 1038 -24 1038 -24 1017.5 -1.5 c 0,16,17
 997 21 997 21 979 60.5 c 0,18,19
 961 100 961 100 952 162 c 0,20,21
 926 121 926 121 892 84 c 0,22,23
 858 47 858 47 821 19 c 0,24,25
 784 -9 784 -9 746 -25 c 0,26,27
 708 -41 708 -41 675 -41 c 0,28,29
 641 -41 641 -41 600.5 -22 c 0,30,31
 560 -3 560 -3 524.5 38.5 c 0,32,33
 489 80 489 80 465.5 145.5 c 0,34,35
 442 211 442 211 442 305 c 0,36,37
 442 384 442 384 462 459.5 c 0,38,39
 482 535 482 535 520.5 604 c 0,40,41
 559 673 559 673 614 733.5 c 0,42,43
 669 794 669 794 740 842 c 0,44,45
 767 860 767 860 804 877 c 0,46,47
 841 894 841 894 880.5 907 c 0,48,49
 920 920 920 920 959 928 c 0,50,51
 998 936 998 936 1030 936 c 0,52,53
 1071 936 1071 936 1110.5 918 c 0,54,55
 1150 900 1150 900 1185 880 c 0,56,57
 1221 896 1221 896 1255 910 c 0,58,59
 1289 924 1289 924 1315 936 c 0,60,-1
 1350 861 l 0,61,62
 1333 847 1333 847 1321 836 c 0,63,64
 1309 825 1309 825 1300 810.5 c 0,65,66
 1291 796 1291 796 1284.5 775 c 0,67,68
 1278 754 1278 754 1271 720 c 0,69,70
 1256 648 1256 648 1244.5 583.5 c 0,71,72
 1233 519 1233 519 1225.5 465 c 0,73,74
 1218 411 1218 411 1214 371 c 0,75,76
 1210 331 1210 331 1210 309 c 0,77,78
 1210 247 1210 247 1226 215.5 c 0,79,80
 1242 184 1242 184 1266 184 c 0,81,82
 1317 184 1317 184 1355.5 262 c 0,83,84
 1394 340 1394 340 1420 510 c 0,85,86
 1445 679 1445 679 1417.5 804 c 0,87,88
 1390 929 1390 929 1324 1011 c 0,89,90
 1258 1093 1258 1093 1162 1133.5 c 0,91,92
 1066 1174 1066 1174 955 1174 c 0,93,94
 835 1174 835 1174 729 1120 c 0,95,96
 623 1066 623 1066 540.5 974 c 0,97,98
 458 882 458 882 402 760.5 c 0,99,100
 346 639 346 639 327 504 c 0,101,102
 310 383 310 383 324 283.5 c 0,103,104
 338 184 338 184 375 105 c 0,105,106
 412 26 412 26 468.5 -32.5 c 0,107,108
 525 -91 525 -91 593.5 -129.5 c 0,109,110
 662 -168 662 -168 738.5 -187 c 0,111,112
 815 -206 815 -206 893 -206 c 0,113,114
 948 -206 948 -206 1002.5 -195.5 c 0,115,116
 1057 -185 1057 -185 1109 -168 c 0,117,118
 1161 -151 1161 -151 1208.5 -129.5 c 0,119,120
 1256 -108 1256 -108 1296.5 -85 c 0,121,122
 1337 -62 1337 -62 1369 -40.5 c 0,123,124
 1401 -19 1401 -19 1422 -2 c 0,125,-1
 1458 -107 l 0,126,127
 1420 -145 1420 -145 1357 -191.5 c 0,128,129
 1294 -238 1294 -238 1210.5 -279 c 0,130,131
 1127 -320 1127 -320 1025.5 -347.5 c 0,132,133
 924 -375 924 -375 809 -375 c 0,134,135
 693 -375 693 -375 588 -348.5 c 0,136,137
 483 -322 483 -322 393.5 -271 c 0,138,139
 304 -220 304 -220 234 -147 c 0,140,141
 164 -74 164 -74 119.5 19.5 c 0,142,143
 75 113 75 113 58.5 225 c 0,144,145
 42 337 42 337 60 465 c 0,146,147
 76 577 76 577 119 685.5 c 0,148,149
 162 794 162 794 228.5 890 c 0,150,151
 295 986 295 986 382 1067.5 c 0,152,153
 469 1149 469 1149 572.5 1208 c 0,154,155
 676 1267 676 1267 794 1300 c 0,156,157
 912 1333 912 1333 1039 1333 c 0,158,159
 1183 1333 1183 1333 1308 1281 c 0,160,161
 1433 1229 1433 1229 1520 1128.5 c 0,162,163
 1607 1028 1607 1028 1646.5 882 c 0,164,165
 1686 736 1686 736 1659 549 c 0,0,1
948 334 m 0,166,167
 952 373 952 373 960.5 427 c 0,168,169
 969 481 969 481 978 537 c 0,170,171
 987 593 987 593 996.5 645 c 0,172,173
 1006 697 1006 697 1012 733 c 0,174,175
 989 753 989 753 965 767 c 0,176,177
 941 781 941 781 918 781 c 0,178,179
 880 781 880 781 849 762 c 0,180,181
 818 743 818 743 793.5 711.5 c 0,182,183
 769 680 769 680 751.5 639 c 0,184,185
 734 598 734 598 722 553.5 c 0,186,187
 710 509 710 509 704.5 463.5 c 0,188,189
 699 418 699 418 699 379 c 0,190,191
 699 326 699 326 706 287.5 c 0,192,193
 713 249 713 249 723.5 224 c 0,194,195
 734 199 734 199 746 187.5 c 0,196,197
 758 176 758 176 768 176 c 0,198,199
 781 176 781 176 798.5 184 c 0,200,201
 816 192 816 192 838.5 210 c 0,202,203
 861 228 861 228 888.5 258.5 c 0,204,205
 916 289 916 289 948 334 c 0,166,167
EndSplineSet
EndChar

StartChar: A
Encoding: 36 65 36
Width: 1210
Flags: W
LayerCount: 2
Fore
SplineSet
712 555 m 0,0,-1
 623 1003 l 0,1,-1
 429 555 l 0,2,-1
 712 555 l 0,0,-1
371 424 m 0,3,-1
 249 151 l 0,4,5
 236 120 236 120 265 106 c 0,6,7
 294 92 294 92 369 83 c 0,8,-1
 358 0 l 0,9,-1
 -55 0 l 0,10,-1
 -44 83 l 0,11,12
 21 95 21 95 55.5 108 c 0,13,14
 90 121 90 121 103 151 c 0,15,-1
 564 1197 l 0,16,17
 593 1220 593 1220 625.5 1238.5 c 0,18,19
 658 1257 658 1257 691.5 1272 c 0,20,21
 725 1287 725 1287 758 1298 c 0,22,23
 791 1309 791 1309 820 1317 c 0,24,-1
 1050 151 l 0,25,26
 1053 137 1053 137 1058.5 126 c 0,27,28
 1064 115 1064 115 1075 107 c 0,29,30
 1086 99 1086 99 1105 93 c 0,31,32
 1124 87 1124 87 1154 83 c 0,33,-1
 1143 0 l 0,34,-1
 657 0 l 0,35,-1
 668 83 l 0,36,37
 741 88 741 88 768.5 103 c 0,38,39
 796 118 796 118 790 151 c 0,40,-1
 737 424 l 0,41,-1
 371 424 l 0,3,-1
EndSplineSet
EndChar

StartChar: B
Encoding: 37 66 37
Width: 1114
Flags: W
LayerCount: 2
Fore
SplineSet
1054 410 m 0,0,1
 1054 312 1054 312 1011 231 c 0,2,3
 968 150 968 150 893.5 92 c 0,4,5
 819 34 819 34 718 1.5 c 0,6,7
 617 -31 617 -31 501 -31 c 0,8,9
 481 -31 481 -31 450.5 -30 c 0,10,11
 420 -29 420 -29 384 -26.5 c 0,12,13
 348 -24 348 -24 309 -21.5 c 0,14,15
 270 -19 270 -19 233 -16 c 0,16,17
 145 -9 145 -9 46 0 c 0,18,-1
 -10 0 l 0,19,-1
 -4 83 l 0,20,21
 59 97 59 97 92 113.5 c 0,22,23
 125 130 125 130 127 144 c 0,24,-1
 269 1160 l 0,25,26
 229 1155 229 1155 195.5 1148.5 c 0,27,28
 162 1142 162 1142 131 1135 c 0,29,-1
 131 1227 l 0,30,31
 177 1240 177 1240 233 1251.5 c 0,32,33
 289 1263 289 1263 351.5 1271.5 c 0,34,35
 414 1280 414 1280 481.5 1285 c 0,36,37
 549 1290 549 1290 618 1290 c 0,38,39
 838 1290 838 1290 943 1223.5 c 0,40,41
 1048 1157 1048 1157 1048 1040 c 0,42,43
 1048 935 1048 935 983 852 c 0,44,45
 918 769 918 769 787 723 c 0,46,47
 845 716 845 716 894.5 688.5 c 0,48,49
 944 661 944 661 979 619 c 0,50,51
 1014 577 1014 577 1034 523.5 c 0,52,53
 1054 470 1054 470 1054 410 c 0,0,1
558 629 m 0,54,55
 537 629 537 629 522 628 c 0,56,57
 507 627 507 627 495.5 625 c 0,58,59
 484 623 484 623 474 621 c 0,60,61
 464 619 464 619 454 616 c 0,62,-1
 388 144 l 0,63,64
 385 135 385 135 404 121 c 0,65,66
 436 105 436 105 471.5 99 c 0,67,68
 507 93 507 93 547 93 c 0,69,70
 604 93 604 93 647.5 114.5 c 0,71,72
 691 136 691 136 720 173.5 c 0,73,74
 749 211 749 211 763.5 262.5 c 0,75,76
 778 314 778 314 778 375 c 0,77,78
 778 425 778 425 767.5 471 c 0,79,80
 757 517 757 517 731.5 552 c 0,81,82
 706 587 706 587 663.5 608 c 0,83,84
 621 629 621 629 558 629 c 0,54,55
533 1176 m 0,85,-1
 472 745 l 0,86,-1
 505 745 l 0,87,88
 552 745 552 745 599.5 759 c 0,89,90
 647 773 647 773 685.5 802.5 c 0,91,92
 724 832 724 832 748 878 c 0,93,94
 772 924 772 924 772 987 c 0,95,96
 772 1041 772 1041 753.5 1077 c 0,97,98
 735 1113 735 1113 706 1135 c 0,99,100
 677 1157 677 1157 641 1166.5 c 0,101,102
 605 1176 605 1176 571 1176 c 0,103,-1
 533 1176 l 0,85,-1
EndSplineSet
EndChar

StartChar: C
Encoding: 38 67 38
Width: 1055
Flags: W
LayerCount: 2
Fore
SplineSet
1096 1190 m 0,0,1
 1098 1187 1098 1187 1091.5 1170 c 0,2,3
 1085 1153 1085 1153 1073 1128.5 c 0,4,5
 1061 1104 1061 1104 1045.5 1075.5 c 0,6,7
 1030 1047 1030 1047 1014 1021 c 0,8,9
 998 995 998 995 984 974.5 c 0,10,11
 970 954 970 954 961 947 c 0,12,-1
 891 965 l 0,13,14
 880 1000 880 1000 862 1033 c 0,15,16
 844 1066 844 1066 818.5 1092 c 0,17,18
 793 1118 793 1118 760 1133.5 c 0,19,20
 727 1149 727 1149 686 1149 c 0,21,22
 646 1149 646 1149 613.5 1140 c 0,23,24
 581 1131 581 1131 541 1100 c 0,25,26
 478 1051 478 1051 436.5 977 c 0,27,28
 395 903 395 903 371 821.5 c 0,29,30
 347 740 347 740 337 659.5 c 0,31,32
 327 579 327 579 327 516 c 0,33,34
 327 407 327 407 354.5 336 c 0,35,36
 382 265 382 265 423 223 c 0,37,38
 464 181 464 181 512.5 164 c 0,39,40
 561 147 561 147 603 146 c 0,41,42
 627 146 627 146 659 151 c 0,43,44
 691 156 691 156 731.5 171 c 0,45,46
 772 186 772 186 823.5 213.5 c 0,47,48
 875 241 875 241 938 286 c 0,49,50
 943 284 943 284 949 273 c 0,51,52
 955 262 955 262 960.5 249 c 0,53,54
 966 236 966 236 970.5 225 c 0,55,56
 975 214 975 214 977 211 c 0,57,58
 909 144 909 144 841.5 98.5 c 0,59,60
 774 53 774 53 711 25 c 0,61,62
 648 -3 648 -3 591 -15 c 0,63,64
 534 -27 534 -27 487 -27 c 0,65,66
 397 -27 397 -27 318 5.5 c 0,67,68
 239 38 239 38 181 100 c 0,69,70
 123 162 123 162 89.5 252.5 c 0,71,72
 56 343 56 343 56 459 c 0,73,74
 56 553 56 553 76 650.5 c 0,75,76
 96 748 96 748 137 840.5 c 0,77,78
 178 933 178 933 240.5 1016.5 c 0,79,80
 303 1100 303 1100 387 1167 c 0,81,82
 423 1195 423 1195 469 1218 c 0,83,84
 515 1241 515 1241 564.5 1257 c 0,85,86
 614 1273 614 1273 665 1281.5 c 0,87,88
 716 1290 716 1290 763 1290 c 0,89,90
 812 1290 812 1290 862 1282 c 0,91,92
 912 1274 912 1274 957 1260.5 c 0,93,94
 1002 1247 1002 1247 1038 1229 c 0,95,96
 1074 1211 1074 1211 1096 1190 c 0,0,1
EndSplineSet
EndChar

StartChar: D
Encoding: 39 68 39
Width: 1238
Flags: W
LayerCount: 2
Fore
SplineSet
1217 755 m 0,0,1
 1217 667 1217 667 1195 577 c 0,2,3
 1173 487 1173 487 1130.5 403 c 0,4,5
 1088 319 1088 319 1027.5 245.5 c 0,6,7
 967 172 967 172 889.5 117.5 c 0,8,9
 812 63 812 63 719.5 31.5 c 0,10,11
 627 0 627 0 521 0 c 0,12,-1
 -10 0 l 0,13,-1
 0 83 l 0,14,15
 63 97 63 97 96 113.5 c 0,16,17
 129 130 129 130 131 144 c 0,18,-1
 270 1148 l 0,19,-1
 133 1126 l 0,20,-1
 133 1229 l 0,21,22
 190 1243 190 1243 255 1254 c 0,23,24
 320 1265 320 1265 385 1273 c 0,25,26
 450 1281 450 1281 512.5 1285.5 c 0,27,28
 575 1290 575 1290 626 1290 c 0,29,30
 781 1290 781 1290 892.5 1253 c 0,31,32
 1004 1216 1004 1216 1076 1146.5 c 0,33,34
 1148 1077 1148 1077 1182.5 978 c 0,35,36
 1217 879 1217 879 1217 755 c 0,0,1
594 1176 m 0,37,38
 579 1176 579 1176 564 1174 c 0,39,40
 549 1172 549 1172 534 1171 c 0,41,-1
 399 169 l 0,42,43
 395 140 395 140 421 127 c 0,44,45
 447 114 447 114 515 114 c 0,46,47
 582 114 582 114 639.5 140 c 0,48,49
 697 166 697 166 744 210.5 c 0,50,51
 791 255 791 255 826.5 315 c 0,52,53
 862 375 862 375 886 443 c 0,54,55
 910 511 910 511 922.5 584 c 0,56,57
 935 657 935 657 935 727 c 0,58,59
 935 834 935 834 917 917.5 c 0,60,61
 899 1001 899 1001 858.5 1058.5 c 0,62,63
 818 1116 818 1116 753 1146 c 0,64,65
 688 1176 688 1176 594 1176 c 0,37,38
EndSplineSet
EndChar

StartChar: E
Encoding: 40 69 40
Width: 1030
Flags: W
LayerCount: 2
Fore
SplineSet
977 324 m 0,0,1
 968 281 968 281 956 230.5 c 0,2,3
 944 180 944 180 932.5 133.5 c 0,4,5
 921 87 921 87 911 51 c 0,6,7
 901 15 901 15 895 0 c 0,8,-1
 -10 0 l 0,9,-1
 1 83 l 0,10,11
 66 97 66 97 99.5 113.5 c 0,12,13
 133 130 133 130 135 144 c 0,14,-1
 268 1115 l 0,15,16
 270 1127 270 1127 243 1145 c 0,17,18
 216 1163 216 1163 151 1177 c 0,19,-1
 162 1260 l 0,20,-1
 1005 1260 l 0,21,-1
 1040 1225 l 0,22,23
 1035 1199 1035 1199 1025.5 1157 c 0,24,25
 1016 1115 1016 1115 1004.5 1071 c 0,26,27
 993 1027 993 1027 981.5 988 c 0,28,29
 970 949 970 949 962 930 c 0,30,-1
 883 930 l 0,31,32
 891 1023 891 1023 879.5 1076.5 c 0,33,34
 868 1130 868 1130 833 1130 c 0,35,-1
 530 1130 l 0,36,-1
 476 735 l 0,37,-1
 843 735 l 0,38,-1
 872 697 l 0,39,40
 863 683 863 683 849.5 663 c 0,41,42
 836 643 836 643 821.5 622.5 c 0,43,44
 807 602 807 602 792.5 585 c 0,45,46
 778 568 778 568 767 560 c 0,47,48
 755 575 755 575 740.5 585 c 0,49,50
 726 595 726 595 706 602 c 0,51,52
 686 609 686 609 658 612 c 0,53,54
 630 615 630 615 591 615 c 0,55,-1
 459 615 l 0,56,-1
 402 194 l 0,57,58
 400 179 400 179 405 167.5 c 0,59,60
 410 156 410 156 429 147.5 c 0,61,62
 448 139 448 139 484.5 134.5 c 0,63,64
 521 130 521 130 583 130 c 0,65,-1
 666 130 l 0,66,67
 709 130 709 130 741 142.5 c 0,68,69
 773 155 773 155 800 182 c 0,70,71
 827 209 827 209 851.5 251 c 0,72,73
 876 293 876 293 904 352 c 0,74,-1
 977 324 l 0,0,1
EndSplineSet
EndChar

StartChar: F
Encoding: 41 70 41
Width: 974
Flags: W
LayerCount: 2
Fore
SplineSet
846 697 m 0,0,1
 835 679 835 679 821 658.5 c 0,2,3
 807 638 807 638 793 618.5 c 0,4,5
 779 599 779 599 765 583.5 c 0,6,7
 751 568 751 568 740 560 c 0,8,9
 728 575 728 575 714 585 c 0,10,11
 700 595 700 595 679.5 602 c 0,12,13
 659 609 659 609 631 612 c 0,14,15
 603 615 603 615 564 615 c 0,16,-1
 459 615 l 0,17,-1
 395 144 l 0,18,19
 394 138 394 138 400 131 c 0,20,21
 406 124 406 124 422.5 116.5 c 0,22,23
 439 109 439 109 467.5 100.5 c 0,24,25
 496 92 496 92 541 83 c 0,26,-1
 530 0 l 0,27,-1
 -10 0 l 0,28,-1
 1 83 l 0,29,30
 66 97 66 97 99.5 113.5 c 0,31,32
 133 130 133 130 135 144 c 0,33,-1
 268 1115 l 0,34,35
 270 1127 270 1127 243 1145 c 0,36,37
 216 1163 216 1163 151 1177 c 0,38,-1
 162 1260 l 0,39,-1
 1014 1260 l 0,40,-1
 1047 1225 l 0,41,42
 1043 1199 1043 1199 1033.5 1157 c 0,43,44
 1024 1115 1024 1115 1013 1071 c 0,45,46
 1002 1027 1002 1027 990.5 988 c 0,47,48
 979 949 979 949 971 930 c 0,49,-1
 890 930 l 0,50,51
 900 1023 900 1023 888 1076.5 c 0,52,53
 876 1130 876 1130 841 1130 c 0,54,-1
 530 1130 l 0,55,-1
 476 735 l 0,56,-1
 815 735 l 0,57,-1
 846 697 l 0,0,1
EndSplineSet
EndChar

StartChar: G
Encoding: 42 71 42
Width: 1136
Flags: W
LayerCount: 2
Fore
SplineSet
1140 549 m 0,0,1
 1086 533 1086 533 1062 511.5 c 0,2,3
 1038 490 1038 490 1035 467 c 0,4,5
 1031 440 1031 440 1026 398 c 0,6,7
 1021 356 1021 356 1015.5 312.5 c 0,8,9
 1010 269 1010 269 1005.5 231 c 0,10,11
 1001 193 1001 193 999 174 c 0,12,13
 923 113 923 113 856 73.5 c 0,14,15
 789 34 789 34 730.5 10.5 c 0,16,17
 672 -13 672 -13 622 -22 c 0,18,19
 572 -31 572 -31 532 -31 c 0,20,21
 438 -31 438 -31 352 5.5 c 0,22,23
 266 42 266 42 200 110.5 c 0,24,25
 134 179 134 179 95 276 c 0,26,27
 56 373 56 373 56 493 c 0,28,29
 56 588 56 588 77.5 679 c 0,30,31
 99 770 99 770 138 852 c 0,32,33
 177 934 177 934 231 1005.5 c 0,34,35
 285 1077 285 1077 351 1133 c 0,36,37
 394 1170 394 1170 441 1199 c 0,38,39
 488 1228 488 1228 543 1248 c 0,40,41
 598 1268 598 1268 662 1279 c 0,42,43
 726 1290 726 1290 803 1290 c 0,44,45
 840 1290 840 1290 887 1283 c 0,46,47
 934 1276 934 1276 980.5 1263 c 0,48,49
 1027 1250 1027 1250 1068 1231 c 0,50,51
 1109 1212 1109 1212 1135 1188 c 0,52,53
 1139 1184 1139 1184 1133 1167 c 0,54,55
 1127 1150 1127 1150 1115 1126 c 0,56,57
 1103 1102 1103 1102 1086.5 1073.5 c 0,58,59
 1070 1045 1070 1045 1053.5 1019.5 c 0,60,61
 1037 994 1037 994 1022 974 c 0,62,63
 1007 954 1007 954 998 947 c 0,64,-1
 930 963 l 0,65,66
 915 1002 915 1002 894.5 1037.5 c 0,67,68
 874 1073 874 1073 845 1100.5 c 0,69,70
 816 1128 816 1128 777 1144.5 c 0,71,72
 738 1161 738 1161 687 1161 c 0,73,74
 641 1161 641 1161 593 1138 c 0,75,76
 545 1115 545 1115 496 1065 c 0,77,78
 461 1029 461 1029 429.5 968 c 0,79,80
 398 907 398 907 375 834.5 c 0,81,82
 352 762 352 762 338.5 684 c 0,83,84
 325 606 325 606 325 536 c 0,85,86
 325 429 325 429 351 353.5 c 0,87,88
 377 278 377 278 418 230 c 0,89,90
 459 182 459 182 509.5 160 c 0,91,92
 560 138 560 138 610 138 c 0,93,94
 637 138 637 138 672.5 144 c 0,95,96
 708 150 708 150 743 176 c 0,97,-1
 786 467 l 0,98,99
 787 477 787 477 783.5 487 c 0,100,101
 780 497 780 497 759.5 507 c 0,102,103
 739 517 739 517 696.5 527 c 0,104,105
 654 537 654 537 579 549 c 0,106,-1
 585 632 l 0,107,-1
 1146 632 l 0,108,-1
 1140 549 l 0,0,1
EndSplineSet
EndChar

StartChar: H
Encoding: 43 72 43
Width: 1329
Flags: W
LayerCount: 2
Fore
SplineSet
663 1177 m 0,0,1
 597 1163 597 1163 563.5 1146 c 0,2,3
 530 1129 530 1129 528 1115 c 0,4,-1
 474 725 l 0,5,-1
 930 725 l 0,6,-1
 984 1115 l 0,7,8
 985 1127 985 1127 958.5 1145 c 0,9,10
 932 1163 932 1163 867 1177 c 0,11,-1
 878 1260 l 0,12,-1
 1390 1260 l 0,13,-1
 1379 1177 l 0,14,15
 1313 1163 1313 1163 1279.5 1146 c 0,16,17
 1246 1129 1246 1129 1244 1115 c 0,18,-1
 1111 144 l 0,19,20
 1109 132 1109 132 1136 114.5 c 0,21,22
 1163 97 1163 97 1229 83 c 0,23,-1
 1218 0 l 0,24,-1
 706 0 l 0,25,-1
 717 83 l 0,26,27
 782 97 782 97 815.5 113.5 c 0,28,29
 849 130 849 130 851 144 c 0,30,-1
 913 595 l 0,31,-1
 457 595 l 0,32,-1
 395 144 l 0,33,34
 393 132 393 132 419.5 114.5 c 0,35,36
 446 97 446 97 513 83 c 0,37,-1
 502 0 l 0,38,-1
 -10 0 l 0,39,-1
 1 83 l 0,40,41
 66 97 66 97 99.5 113.5 c 0,42,43
 133 130 133 130 135 144 c 0,44,-1
 268 1115 l 0,45,46
 270 1127 270 1127 243 1145 c 0,47,48
 216 1163 216 1163 151 1177 c 0,49,-1
 162 1260 l 0,50,-1
 674 1260 l 0,51,-1
 663 1177 l 0,0,1
EndSplineSet
EndChar

StartChar: I
Encoding: 44 73 44
Width: 652
Flags: W
LayerCount: 2
Fore
SplineSet
682 1177 m 0,0,1
 617 1163 617 1163 583.5 1146 c 0,2,3
 550 1129 550 1129 548 1115 c 0,4,-1
 415 144 l 0,5,6
 413 132 413 132 439.5 114.5 c 0,7,8
 466 97 466 97 532 83 c 0,9,-1
 521 0 l 0,10,-1
 10 0 l 0,11,-1
 21 83 l 0,12,13
 85 97 85 97 118.5 113.5 c 0,14,15
 152 130 152 130 154 144 c 0,16,-1
 287 1115 l 0,17,18
 289 1127 289 1127 262.5 1145 c 0,19,20
 236 1163 236 1163 171 1177 c 0,21,-1
 182 1260 l 0,22,-1
 693 1260 l 0,23,-1
 682 1177 l 0,0,1
EndSplineSet
EndChar

StartChar: J
Encoding: 45 74 45
Width: 658
Flags: W
LayerCount: 2
Fore
SplineSet
706 1177 m 0,0,1
 643 1163 643 1163 608 1146 c 0,2,3
 573 1129 573 1129 571 1115 c 0,4,-1
 450 205 l 0,5,6
 435 95 435 95 401.5 16.5 c 0,7,8
 368 -62 368 -62 326 -119 c 0,9,10
 284 -176 284 -176 237.5 -216.5 c 0,11,12
 191 -257 191 -257 150 -289 c 0,13,14
 123 -310 123 -310 86.5 -330.5 c 0,15,16
 50 -351 50 -351 10 -366.5 c 0,17,18
 -30 -382 -30 -382 -70.5 -391.5 c 0,19,20
 -111 -401 -111 -401 -145 -401 c 0,21,22
 -185 -401 -185 -401 -224 -390 c 0,23,24
 -263 -379 -263 -379 -294 -363.5 c 0,25,26
 -325 -348 -325 -348 -344.5 -330.5 c 0,27,28
 -364 -313 -364 -313 -364 -301 c 0,29,30
 -364 -294 -364 -294 -352 -277.5 c 0,31,32
 -340 -261 -340 -261 -321.5 -241 c 0,33,34
 -303 -221 -303 -221 -280.5 -200 c 0,35,36
 -258 -179 -258 -179 -237 -161.5 c 0,37,38
 -216 -144 -216 -144 -198.5 -132.5 c 0,39,40
 -181 -121 -181 -121 -173 -121 c 0,41,42
 -163 -121 -163 -121 -146.5 -136 c 0,43,44
 -130 -151 -130 -151 -107.5 -169.5 c 0,45,46
 -85 -188 -85 -188 -58 -203 c 0,47,48
 -31 -218 -31 -218 0 -218 c 0,49,50
 24 -218 24 -218 48.5 -207 c 0,51,52
 73 -196 73 -196 96 -159.5 c 0,53,54
 119 -123 119 -123 140 -53.5 c 0,55,56
 161 16 161 16 177 133 c 0,57,-1
 311 1115 l 0,58,59
 312 1121 312 1121 306.5 1128 c 0,60,61
 301 1135 301 1135 283.5 1143 c 0,62,63
 266 1151 266 1151 233.5 1159.5 c 0,64,65
 201 1168 201 1168 147 1177 c 0,66,-1
 158 1260 l 0,67,-1
 719 1260 l 0,68,-1
 706 1177 l 0,0,1
EndSplineSet
EndChar

StartChar: K
Encoding: 46 75 46
Width: 1239
Flags: W
LayerCount: 2
Fore
SplineSet
663 1177 m 0,0,1
 597 1163 597 1163 563.5 1146 c 0,2,3
 530 1129 530 1129 528 1115 c 0,4,-1
 466 664 l 0,5,-1
 859 1088 l 0,6,7
 884 1115 884 1115 896 1131 c 0,8,9
 908 1147 908 1147 905.5 1156 c 0,10,11
 903 1165 903 1165 884.5 1169.5 c 0,12,13
 866 1174 866 1174 830 1177 c 0,14,-1
 841 1260 l 0,15,-1
 1269 1260 l 0,16,-1
 1258 1177 l 0,17,18
 1227 1173 1227 1173 1206.5 1169 c 0,19,20
 1186 1165 1186 1165 1170 1158.5 c 0,21,22
 1154 1152 1154 1152 1140 1141.5 c 0,23,24
 1126 1131 1126 1131 1109 1115 c 0,25,-1
 654 677 l 0,26,-1
 1009 218 l 0,27,28
 1022 202 1022 202 1044.5 196 c 0,29,30
 1067 190 1067 190 1092.5 191 c 0,31,32
 1118 192 1118 192 1145 198.5 c 0,33,34
 1172 205 1172 205 1194 214 c 0,35,-1
 1223 131 l 0,36,37
 1194 106 1194 106 1148 80.5 c 0,38,39
 1102 55 1102 55 1054 34 c 0,40,41
 1006 13 1006 13 963 -0.5 c 0,42,43
 920 -14 920 -14 898 -14 c 0,44,45
 870 -14 870 -14 850.5 -5 c 0,46,47
 831 4 831 4 815 29 c 0,48,-1
 460 621 l 0,49,-1
 395 144 l 0,50,51
 393 132 393 132 419.5 114.5 c 0,52,53
 446 97 446 97 513 83 c 0,54,-1
 502 0 l 0,55,-1
 -10 0 l 0,56,-1
 1 83 l 0,57,58
 66 97 66 97 99.5 113.5 c 0,59,60
 133 130 133 130 135 144 c 0,61,-1
 268 1115 l 0,62,63
 270 1127 270 1127 243 1145 c 0,64,65
 216 1163 216 1163 151 1177 c 0,66,-1
 162 1260 l 0,67,-1
 674 1260 l 0,68,-1
 663 1177 l 0,0,1
EndSplineSet
EndChar

StartChar: L
Encoding: 47 76 47
Width: 1018
Flags: W
LayerCount: 2
Fore
SplineSet
968 324 m 0,0,1
 959 281 959 281 947 230.5 c 0,2,3
 935 180 935 180 923 133.5 c 0,4,5
 911 87 911 87 901 51 c 0,6,7
 891 15 891 15 886 0 c 0,8,-1
 -10 0 l 0,9,-1
 1 83 l 0,10,11
 66 97 66 97 99.5 113.5 c 0,12,13
 133 130 133 130 135 144 c 0,14,-1
 268 1115 l 0,15,16
 270 1127 270 1127 243 1145 c 0,17,18
 216 1163 216 1163 151 1177 c 0,19,-1
 162 1260 l 0,20,-1
 674 1260 l 0,21,-1
 663 1177 l 0,22,23
 597 1163 597 1163 563.5 1146 c 0,24,25
 530 1129 530 1129 528 1115 c 0,26,-1
 403 204 l 0,27,28
 401 186 401 186 407 172.5 c 0,29,30
 413 159 413 159 431.5 149.5 c 0,31,32
 450 140 450 140 482.5 135 c 0,33,34
 515 130 515 130 566 130 c 0,35,-1
 662 130 l 0,36,37
 705 130 705 130 736 142.5 c 0,38,39
 767 155 767 155 793 182 c 0,40,41
 819 209 819 209 843 251 c 0,42,43
 867 293 867 293 895 352 c 0,44,-1
 968 324 l 0,0,1
EndSplineSet
EndChar

StartChar: M
Encoding: 48 77 48
Width: 1638
Flags: W
LayerCount: 2
Fore
SplineSet
1665 1177 m 0,0,1
 1618 1177 1618 1177 1545 1152 c 0,2,-1
 1416 144 l 0,3,4
 1414 132 1414 132 1445.5 114.5 c 0,5,6
 1477 97 1477 97 1543 83 c 0,7,-1
 1532 0 l 0,8,-1
 1027 0 l 0,9,-1
 1038 83 l 0,10,11
 1102 97 1102 97 1140.5 113.5 c 0,12,13
 1179 130 1179 130 1181 144 c 0,14,-1
 1280 922 l 0,15,-1
 763 0 l 0,16,-1
 661 0 l 0,17,-1
 407 922 l 0,18,-1
 292 144 l 0,19,20
 290 132 290 132 317 114.5 c 0,21,22
 344 97 344 97 410 83 c 0,23,-1
 399 0 l 0,24,-1
 6 0 l 0,25,-1
 17 83 l 0,26,27
 83 97 83 97 116 113.5 c 0,28,29
 149 130 149 130 151 144 c 0,30,-1
 297 1144 l 0,31,32
 268 1163 268 1163 236 1170 c 0,33,34
 204 1177 204 1177 177 1177 c 0,35,-1
 188 1260 l 0,36,-1
 528 1260 l 0,37,38
 537 1260 537 1260 544.5 1257 c 0,39,40
 552 1254 552 1254 558.5 1245 c 0,41,42
 565 1236 565 1236 571.5 1219.5 c 0,43,44
 578 1203 578 1203 586 1176 c 0,45,-1
 808 364 l 0,46,-1
 1265 1176 l 0,47,48
 1281 1206 1281 1206 1292 1222.5 c 0,49,50
 1303 1239 1303 1239 1312 1247.5 c 0,51,52
 1321 1256 1321 1256 1328.5 1258 c 0,53,54
 1336 1260 1336 1260 1345 1260 c 0,55,-1
 1676 1260 l 0,56,-1
 1665 1177 l 0,0,1
EndSplineSet
EndChar

StartChar: N
Encoding: 49 78 49
Width: 1273
Flags: W
LayerCount: 2
Fore
SplineSet
1358 1177 m 0,0,1
 1289 1167 1289 1167 1257 1148 c 0,2,3
 1225 1129 1225 1129 1223 1115 c 0,4,-1
 1066 -30 l 0,5,6
 1016 -26 1016 -26 976 -14.5 c 0,7,8
 936 -3 936 -3 906 13 c 0,9,10
 876 29 876 29 856 49 c 0,11,12
 836 69 836 69 824 91 c 0,13,-1
 394 895 l 0,14,-1
 291 144 l 0,15,16
 290 138 290 138 295 129.5 c 0,17,18
 300 121 300 121 313.5 112.5 c 0,19,20
 327 104 327 104 350 96 c 0,21,22
 373 88 373 88 408 83 c 0,23,-1
 397 0 l 0,24,-1
 -3 0 l 0,25,-1
 8 83 l 0,26,27
 78 92 78 92 109 111 c 0,28,29
 140 130 140 130 142 144 c 0,30,-1
 273 1102 l 0,31,32
 247 1132 247 1132 218 1152 c 0,33,34
 189 1172 189 1172 158 1177 c 0,35,-1
 169 1260 l 0,36,-1
 450 1260 l 0,37,38
 463 1260 463 1260 472 1257.5 c 0,39,40
 481 1255 481 1255 489 1247 c 0,41,42
 497 1239 497 1239 505.5 1223.5 c 0,43,44
 514 1208 514 1208 528 1182 c 0,45,-1
 970 353 l 0,46,-1
 1075 1115 l 0,47,48
 1076 1121 1076 1121 1071.5 1129.5 c 0,49,50
 1067 1138 1067 1138 1054 1146.5 c 0,51,52
 1041 1155 1041 1155 1018 1163 c 0,53,54
 995 1171 995 1171 958 1177 c 0,55,-1
 969 1260 l 0,56,-1
 1369 1260 l 0,57,-1
 1358 1177 l 0,0,1
EndSplineSet
EndChar

StartChar: O
Encoding: 50 79 50
Width: 1191
Flags: W
LayerCount: 2
Fore
SplineSet
1180 774 m 0,0,1
 1180 703 1180 703 1166 630 c 0,2,3
 1152 557 1152 557 1126 486 c 0,4,5
 1100 415 1100 415 1063 348.5 c 0,6,7
 1026 282 1026 282 981 225 c 0,8,9
 939 171 939 171 885 124.5 c 0,10,11
 831 78 831 78 770.5 43.5 c 0,12,13
 710 9 710 9 644 -11 c 0,14,15
 578 -31 578 -31 511 -31 c 0,16,17
 407 -31 407 -31 325.5 10 c 0,18,19
 244 51 244 51 187 121.5 c 0,20,21
 130 192 130 192 100 286 c 0,22,23
 70 380 70 380 70 485 c 0,24,25
 70 642 70 642 119 775 c 0,26,27
 168 908 168 908 248 1018 c 0,28,29
 290 1074 290 1074 342 1123.5 c 0,30,31
 394 1173 394 1173 456 1210 c 0,32,33
 518 1247 518 1247 590.5 1268.5 c 0,34,35
 663 1290 663 1290 745 1290 c 0,36,37
 854 1290 854 1290 936 1249 c 0,38,39
 1018 1208 1018 1208 1072 1137.5 c 0,40,41
 1126 1067 1126 1067 1153 973 c 0,42,43
 1180 879 1180 879 1180 774 c 0,0,1
911 756 m 0,44,45
 911 840 911 840 895.5 913 c 0,46,47
 880 986 880 986 850 1040 c 0,48,49
 820 1094 820 1094 775 1124.5 c 0,50,51
 730 1155 730 1155 672 1155 c 0,52,53
 616 1155 616 1155 570 1126.5 c 0,54,55
 524 1098 524 1098 487 1049.5 c 0,56,57
 450 1001 450 1001 423 938 c 0,58,59
 396 875 396 875 378 805.5 c 0,60,61
 360 736 360 736 351 665.5 c 0,62,63
 342 595 342 595 342 532 c 0,64,65
 342 439 342 439 357 361 c 0,66,67
 372 283 372 283 401.5 227.5 c 0,68,69
 431 172 431 172 474.5 141 c 0,70,71
 518 110 518 110 576 110 c 0,72,73
 635 110 635 110 683 140 c 0,74,75
 731 170 731 170 768 221 c 0,76,77
 805 272 805 272 832 338 c 0,78,79
 859 404 859 404 876.5 475.5 c 0,80,81
 894 547 894 547 902.5 620 c 0,82,83
 911 693 911 693 911 756 c 0,44,45
EndSplineSet
EndChar

StartChar: P
Encoding: 51 80 51
Width: 1095
Flags: W
LayerCount: 2
Fore
SplineSet
1125 942 m 0,0,1
 1125 857 1125 857 1087 779.5 c 0,2,3
 1049 702 1049 702 984.5 643.5 c 0,4,5
 920 585 920 585 834.5 550 c 0,6,7
 749 515 749 515 653 515 c 0,8,9
 615 515 615 515 576 524.5 c 0,10,11
 537 534 537 534 510 549 c 0,12,-1
 491 663 l 0,13,14
 525 648 525 648 550.5 639 c 0,15,16
 576 630 576 630 612 630 c 0,17,18
 727 630 727 630 789 702 c 0,19,20
 851 774 851 774 851 905 c 0,21,22
 851 989 851 989 827 1041.5 c 0,23,24
 803 1094 803 1094 763 1124 c 0,25,26
 723 1154 723 1154 671.5 1165 c 0,27,28
 620 1176 620 1176 566 1176 c 0,29,30
 560 1176 560 1176 553.5 1175.5 c 0,31,32
 547 1175 547 1175 541 1175 c 0,33,-1
 397 144 l 0,34,35
 395 138 395 138 401 131 c 0,36,37
 407 124 407 124 424 116 c 0,38,39
 441 108 441 108 471 100 c 0,40,41
 501 92 501 92 548 83 c 0,42,-1
 538 0 l 0,43,-1
 -10 0 l 0,44,-1
 0 83 l 0,45,46
 63 97 63 97 96 113.5 c 0,47,48
 129 130 129 130 131 144 c 0,49,-1
 271 1150 l 0,50,51
 236 1145 236 1145 201 1138.5 c 0,52,53
 166 1132 166 1132 131 1125 c 0,54,-1
 131 1225 l 0,55,56
 183 1239 183 1239 244.5 1251 c 0,57,58
 306 1263 306 1263 369 1271.5 c 0,59,60
 432 1280 432 1280 494 1285 c 0,61,62
 556 1290 556 1290 609 1290 c 0,63,64
 732 1290 732 1290 828 1268 c 0,65,66
 924 1246 924 1246 990 1202 c 0,67,68
 1056 1158 1056 1158 1090.5 1093 c 0,69,70
 1125 1028 1125 1028 1125 942 c 0,0,1
EndSplineSet
EndChar

StartChar: Q
Encoding: 52 81 52
Width: 1221
Flags: W
LayerCount: 2
Fore
SplineSet
1302 -127 m 0,0,1
 1274 -171 1274 -171 1242.5 -208.5 c 0,2,3
 1211 -246 1211 -246 1181.5 -274.5 c 0,4,5
 1152 -303 1152 -303 1127 -319 c 0,6,7
 1102 -335 1102 -335 1088 -335 c 0,8,9
 1043 -335 1043 -335 999.5 -319 c 0,10,11
 956 -303 956 -303 913.5 -277 c 0,12,13
 871 -251 871 -251 829 -217.5 c 0,14,15
 787 -184 787 -184 745 -149.5 c 0,16,17
 703 -115 703 -115 661 -82.5 c 0,18,19
 619 -50 619 -50 576 -26 c 0,20,21
 559 -28 559 -28 543.5 -29.5 c 0,22,23
 528 -31 528 -31 511 -31 c 0,24,25
 407 -31 407 -31 325.5 10 c 0,26,27
 244 51 244 51 187 121.5 c 0,28,29
 130 192 130 192 100 286 c 0,30,31
 70 380 70 380 70 485 c 0,32,33
 70 642 70 642 119 775 c 0,34,35
 168 908 168 908 248 1018 c 0,36,37
 290 1074 290 1074 342 1123.5 c 0,38,39
 394 1173 394 1173 456 1210 c 0,40,41
 518 1247 518 1247 590.5 1268.5 c 0,42,43
 663 1290 663 1290 745 1290 c 0,44,45
 854 1290 854 1290 936 1249 c 0,46,47
 1018 1208 1018 1208 1072 1137.5 c 0,48,49
 1126 1067 1126 1067 1153 973 c 0,50,51
 1180 879 1180 879 1180 774 c 0,52,53
 1180 703 1180 703 1166 630 c 0,54,55
 1152 557 1152 557 1126 486 c 0,56,57
 1100 415 1100 415 1063 348.5 c 0,58,59
 1026 282 1026 282 981 225 c 0,60,61
 935 167 935 167 876.5 117 c 0,62,63
 818 67 818 67 751 32 c 0,64,65
 805 13 805 13 853 -13 c 0,66,67
 901 -39 901 -39 946 -63 c 0,68,69
 991 -87 991 -87 1034 -103.5 c 0,70,71
 1077 -120 1077 -120 1122 -120 c 0,72,73
 1134 -120 1134 -120 1145 -117.5 c 0,74,75
 1156 -115 1156 -115 1171 -108 c 0,76,77
 1186 -101 1186 -101 1207 -87.5 c 0,78,79
 1228 -74 1228 -74 1259 -52 c 0,80,-1
 1302 -127 l 0,0,1
911 756 m 0,81,82
 911 840 911 840 895.5 913 c 0,83,84
 880 986 880 986 850 1040 c 0,85,86
 820 1094 820 1094 775 1124.5 c 0,87,88
 730 1155 730 1155 672 1155 c 0,89,90
 616 1155 616 1155 570 1126.5 c 0,91,92
 524 1098 524 1098 487 1049.5 c 0,93,94
 450 1001 450 1001 423 938 c 0,95,96
 396 875 396 875 378 805.5 c 0,97,98
 360 736 360 736 351 665.5 c 0,99,100
 342 595 342 595 342 532 c 0,101,102
 342 439 342 439 357 361 c 0,103,104
 372 283 372 283 401.5 227.5 c 0,105,106
 431 172 431 172 474.5 141 c 0,107,108
 518 110 518 110 576 110 c 0,109,110
 635 110 635 110 683 140 c 0,111,112
 731 170 731 170 768 221 c 0,113,114
 805 272 805 272 832 338 c 0,115,116
 859 404 859 404 876.5 475.5 c 0,117,118
 894 547 894 547 902.5 620 c 0,119,120
 911 693 911 693 911 756 c 0,81,82
EndSplineSet
EndChar

StartChar: R
Encoding: 53 82 53
Width: 1167
Flags: W
LayerCount: 2
Fore
SplineSet
578 1176 m 0,0,-1
 558 1176 l 0,1,2
 548 1176 548 1176 537 1175 c 0,3,-1
 475 713 l 0,4,5
 498 706 498 706 519 704 c 0,6,7
 540 702 540 702 565 702 c 0,8,9
 614 702 614 702 659 718.5 c 0,10,11
 704 735 704 735 738.5 765.5 c 0,12,13
 773 796 773 796 794 840.5 c 0,14,15
 815 885 815 885 815 942 c 0,16,17
 815 1016 815 1016 792.5 1061.5 c 0,18,19
 770 1107 770 1107 735.5 1132.5 c 0,20,21
 701 1158 701 1158 659 1167 c 0,22,23
 617 1176 617 1176 578 1176 c 0,0,-1
1187 119 m 0,24,25
 1148 93 1148 93 1099.5 69 c 0,26,27
 1051 45 1051 45 1005 26.5 c 0,28,29
 959 8 959 8 923 -3 c 0,30,31
 887 -14 887 -14 874 -14 c 0,32,33
 857 -14 857 -14 840 -9.5 c 0,34,35
 823 -5 823 -5 806.5 9 c 0,36,37
 790 23 790 23 773.5 48.5 c 0,38,39
 757 74 757 74 742 117 c 0,40,-1
 577 578 l 0,41,42
 549 578 549 578 517.5 580.5 c 0,43,44
 486 583 486 583 458 590 c 0,45,-1
 398 144 l 0,46,47
 395 132 395 132 426.5 114.5 c 0,48,49
 458 97 458 97 521 83 c 0,50,-1
 510 0 l 0,51,-1
 -10 0 l 0,52,-1
 1 83 l 0,53,54
 64 97 64 97 97 113.5 c 0,55,56
 130 130 130 130 132 144 c 0,57,-1
 268 1150 l 0,58,59
 230 1144 230 1144 195 1138 c 0,60,61
 160 1132 160 1132 130 1125 c 0,62,-1
 131 1227 l 0,63,64
 176 1240 176 1240 234 1251.5 c 0,65,66
 292 1263 292 1263 357 1271.5 c 0,67,68
 422 1280 422 1280 491.5 1285 c 0,69,70
 561 1290 561 1290 629 1290 c 0,71,72
 852 1290 852 1290 970 1208.5 c 0,73,74
 1088 1127 1088 1127 1088 971 c 0,75,76
 1088 920 1088 920 1066 865.5 c 0,77,78
 1044 811 1044 811 1002.5 761.5 c 0,79,80
 961 712 961 712 902 671 c 0,81,82
 843 630 843 630 770 606 c 0,83,-1
 986 224 l 0,84,85
 999 201 999 201 1014 189.5 c 0,86,87
 1029 178 1029 178 1049 176 c 0,88,89
 1069 174 1069 174 1095.5 180 c 0,90,91
 1122 186 1122 186 1159 197 c 0,92,-1
 1187 119 l 0,24,25
EndSplineSet
EndChar

StartChar: S
Encoding: 54 83 54
Width: 1000
Flags: W
LayerCount: 2
Fore
SplineSet
992 1198 m 0,0,1
 996 1195 996 1195 991.5 1178.5 c 0,2,3
 987 1162 987 1162 977 1139 c 0,4,5
 967 1116 967 1116 953.5 1090 c 0,6,7
 940 1064 940 1064 926 1040.5 c 0,8,9
 912 1017 912 1017 899.5 1000 c 0,10,11
 887 983 887 983 880 979 c 0,12,-1
 811 985 l 0,13,14
 800 1033 800 1033 779.5 1067 c 0,15,16
 759 1101 759 1101 733 1123 c 0,17,18
 707 1145 707 1145 677 1155.5 c 0,19,20
 647 1166 647 1166 617 1166 c 0,21,22
 567 1166 567 1166 531 1151.5 c 0,23,24
 495 1137 495 1137 472 1113.5 c 0,25,26
 449 1090 449 1090 438 1059 c 0,27,28
 427 1028 427 1028 427 995 c 0,29,30
 427 973 427 973 434 949 c 0,31,32
 441 925 441 925 463 899 c 0,33,34
 485 873 485 873 525.5 843.5 c 0,35,36
 566 814 566 814 633 780 c 0,37,38
 712 739 712 739 770 700.5 c 0,39,40
 828 662 828 662 865.5 620.5 c 0,41,42
 903 579 903 579 921.5 532.5 c 0,43,44
 940 486 940 486 940 430 c 0,45,46
 940 336 940 336 898 252.5 c 0,47,48
 856 169 856 169 783 106 c 0,49,50
 710 43 710 43 611 6 c 0,51,52
 512 -31 512 -31 398 -31 c 0,53,54
 342 -31 342 -31 276 -18 c 0,55,56
 210 -5 210 -5 152 17 c 0,57,58
 94 39 94 39 55.5 67 c 0,59,60
 17 95 17 95 17 125 c 0,61,62
 17 135 17 135 25.5 155 c 0,63,64
 34 175 34 175 47.5 198 c 0,65,66
 61 221 61 221 78.5 245 c 0,67,68
 96 269 96 269 113.5 289 c 0,69,70
 131 309 131 309 147 321.5 c 0,71,72
 163 334 163 334 174 334 c 0,73,74
 185 334 185 334 200 318 c 0,75,76
 215 302 215 302 233.5 277.5 c 0,77,78
 252 253 252 253 275.5 225 c 0,79,80
 299 197 299 197 329 172.5 c 0,81,82
 359 148 359 148 395 132 c 0,83,84
 431 116 431 116 475 116 c 0,85,86
 519 116 519 116 558 130.5 c 0,87,88
 597 145 597 145 626 172 c 0,89,90
 655 199 655 199 672 239 c 0,91,92
 689 279 689 279 689 330 c 0,93,94
 689 375 689 375 674 412.5 c 0,95,96
 659 450 659 450 625.5 484.5 c 0,97,98
 592 519 592 519 538.5 552 c 0,99,100
 485 585 485 585 409 621 c 0,101,102
 343 652 343 652 300 686.5 c 0,103,104
 257 721 257 721 232.5 758.5 c 0,105,106
 208 796 208 796 198 838 c 0,107,108
 188 880 188 880 188 928 c 0,109,110
 188 994 188 994 223 1059 c 0,111,112
 258 1124 258 1124 322 1175 c 0,113,114
 386 1226 386 1226 476.5 1258 c 0,115,116
 567 1290 567 1290 679 1290 c 0,117,118
 782 1290 782 1290 863 1262.5 c 0,119,120
 944 1235 944 1235 992 1198 c 0,0,1
EndSplineSet
EndChar

StartChar: T
Encoding: 55 84 55
Width: 1123
Flags: W
LayerCount: 2
Fore
SplineSet
783 0 m 0,0,-1
 236 0 l 0,1,-1
 247 83 l 0,2,3
 291 92 291 92 320 102 c 0,4,5
 349 112 349 112 366.5 121.5 c 0,6,7
 384 131 384 131 391.5 139.5 c 0,8,9
 399 148 399 148 400 155 c 0,10,-1
 533 1130 l 0,11,-1
 311 1130 l 0,12,13
 297 1130 297 1130 282.5 1117.5 c 0,14,15
 268 1105 268 1105 251 1078.5 c 0,16,17
 234 1052 234 1052 212 1010 c 0,18,19
 190 968 190 968 161 910 c 0,20,-1
 88 939 l 0,21,22
 94 968 94 968 105 1012 c 0,23,24
 116 1056 116 1056 128 1102.5 c 0,25,26
 140 1149 140 1149 152 1191.5 c 0,27,28
 164 1234 164 1234 172 1260 c 0,29,-1
 1186 1260 l 0,30,-1
 1218 1225 l 0,31,32
 1214 1199 1214 1199 1205 1160 c 0,33,34
 1196 1121 1196 1121 1184 1078 c 0,35,-1
 1161 993 l 0,36,37
 1150 951 1150 951 1140 920 c 0,38,-1
 1061 920 l 0,39,40
 1058 966 1058 966 1057.5 1005 c 0,41,42
 1057 1044 1057 1044 1053 1071.5 c 0,43,44
 1049 1099 1049 1099 1040 1114.5 c 0,45,46
 1031 1130 1031 1130 1011 1130 c 0,47,-1
 794 1130 l 0,48,-1
 661 155 l 0,49,50
 660 149 660 149 665 140.5 c 0,51,52
 670 132 670 132 685 122 c 0,53,54
 700 112 700 112 726 102 c 0,55,56
 752 92 752 92 794 83 c 0,57,-1
 783 0 l 0,0,-1
EndSplineSet
EndChar

StartChar: U
Encoding: 56 85 56
Width: 1282
Flags: W
LayerCount: 2
Fore
SplineSet
1340 1177 m 0,0,1
 1277 1163 1277 1163 1247 1146 c 0,2,3
 1217 1129 1217 1129 1215 1115 c 0,4,-1
 1130 512 l 0,5,6
 1112 381 1112 381 1062.5 279.5 c 0,7,8
 1013 178 1013 178 941.5 109 c 0,9,10
 870 40 870 40 780.5 4.5 c 0,11,12
 691 -31 691 -31 592 -31 c 0,13,14
 510 -31 510 -31 434 -6 c 0,15,16
 358 19 358 19 299.5 67 c 0,17,18
 241 115 241 115 206 185.5 c 0,19,20
 171 256 171 256 171 348 c 0,21,22
 171 401 171 401 180 463 c 0,23,-1
 273 1115 l 0,24,25
 274 1127 274 1127 248 1145 c 0,26,27
 222 1163 222 1163 158 1177 c 0,28,-1
 169 1260 l 0,29,-1
 674 1260 l 0,30,-1
 663 1177 l 0,31,32
 600 1163 600 1163 566.5 1146 c 0,33,34
 533 1129 533 1129 531 1115 c 0,35,-1
 443 510 l 0,36,37
 438 481 438 481 435 452 c 0,38,39
 432 423 432 423 432 397 c 0,40,41
 432 257 432 257 490.5 191.5 c 0,42,43
 549 126 549 126 673 126 c 0,44,45
 738 126 738 126 785.5 151.5 c 0,46,47
 833 177 833 177 865.5 223 c 0,48,49
 898 269 898 269 917.5 331.5 c 0,50,51
 937 394 937 394 947 469 c 0,52,-1
 1038 1115 l 0,53,54
 1039 1121 1039 1121 1034 1129 c 0,55,56
 1029 1137 1029 1137 1016.5 1145 c 0,57,58
 1004 1153 1004 1153 982.5 1161.5 c 0,59,60
 961 1170 961 1170 929 1177 c 0,61,-1
 940 1260 l 0,62,-1
 1351 1260 l 0,63,-1
 1340 1177 l 0,0,1
EndSplineSet
EndChar

StartChar: V
Encoding: 57 86 57
Width: 1256
Flags: W
LayerCount: 2
Fore
SplineSet
1356 1177 m 0,0,1
 1290 1164 1290 1164 1253 1151.5 c 0,2,3
 1216 1139 1216 1139 1203 1111 c 0,4,-1
 716 89 l 0,5,6
 706 67 706 67 682 48 c 0,7,8
 658 29 658 29 627.5 14 c 0,9,10
 597 -1 597 -1 564 -12 c 0,11,12
 531 -23 531 -23 504 -30 c 0,13,-1
 233 1111 l 0,14,15
 226 1137 226 1137 201 1153 c 0,16,17
 176 1169 176 1169 119 1177 c 0,18,-1
 130 1260 l 0,19,-1
 628 1260 l 0,20,-1
 617 1177 l 0,21,22
 542 1171 542 1171 516.5 1156.5 c 0,23,24
 491 1142 491 1142 498 1113 c 0,25,-1
 681 313 l 0,26,-1
 1055 1111 l 0,27,28
 1062 1126 1062 1126 1060.5 1136 c 0,29,30
 1059 1146 1059 1146 1047 1153.5 c 0,31,32
 1035 1161 1035 1161 1011.5 1166.5 c 0,33,34
 988 1172 988 1172 951 1177 c 0,35,-1
 962 1260 l 0,36,-1
 1367 1260 l 0,37,-1
 1356 1177 l 0,0,1
EndSplineSet
EndChar

StartChar: W
Encoding: 58 87 58
Width: 1603
Flags: W
LayerCount: 2
Fore
SplineSet
1710 1177 m 0,0,1
 1667 1168 1667 1168 1639 1160 c 0,2,3
 1611 1152 1611 1152 1594.5 1144.5 c 0,4,5
 1578 1137 1578 1137 1570 1130 c 0,6,7
 1562 1123 1562 1123 1560 1115 c 0,8,-1
 1203 59 l 0,9,10
 1196 38 1196 38 1177 22.5 c 0,11,12
 1158 7 1158 7 1135 -3.5 c 0,13,14
 1112 -14 1112 -14 1089 -20.5 c 0,15,16
 1066 -27 1066 -27 1051 -30 c 0,17,-1
 850 854 l 0,18,-1
 475 59 l 0,19,20
 466 38 466 38 446.5 23 c 0,21,22
 427 8 427 8 404 -2.5 c 0,23,24
 381 -13 381 -13 356.5 -19.5 c 0,25,26
 332 -26 332 -26 313 -30 c 0,27,-1
 227 1107 l 0,28,29
 225 1132 225 1132 199 1148 c 0,30,31
 173 1164 173 1164 109 1177 c 0,32,-1
 120 1260 l 0,33,-1
 593 1260 l 0,34,-1
 582 1177 l 0,35,36
 536 1172 536 1172 510 1164.5 c 0,37,38
 484 1157 484 1157 471.5 1148 c 0,39,40
 459 1139 459 1139 456.5 1128.5 c 0,41,42
 454 1118 454 1118 455 1107 c 0,43,-1
 512 430 l 0,44,-1
 888 1260 l 0,45,-1
 995 1260 l 0,46,-1
 1187 430 l 0,47,-1
 1422 1115 l 0,48,49
 1426 1127 1426 1127 1417 1136 c 0,50,51
 1408 1145 1408 1145 1389.5 1152 c 0,52,53
 1371 1159 1371 1159 1345 1165 c 0,54,55
 1319 1171 1319 1171 1288 1177 c 0,56,-1
 1299 1260 l 0,57,-1
 1721 1260 l 0,58,-1
 1710 1177 l 0,0,1
EndSplineSet
EndChar

StartChar: X
Encoding: 59 88 59
Width: 1225
Flags: W
LayerCount: 2
Fore
SplineSet
1129 0 m 0,0,-1
 608 0 l 0,1,-1
 619 83 l 0,2,3
 661 87 661 87 687 93.5 c 0,4,5
 713 100 713 100 725.5 109.5 c 0,6,7
 738 119 738 119 737.5 133 c 0,8,9
 737 147 737 147 727 167 c 0,10,-1
 566 488 l 0,11,-1
 317 167 l 0,12,13
 300 145 300 145 293.5 130.5 c 0,14,15
 287 116 287 116 294 106.5 c 0,16,17
 301 97 301 97 324 91.5 c 0,18,19
 347 86 347 86 389 83 c 0,20,-1
 378 0 l 0,21,-1
 -40 0 l 0,22,-1
 -29 83 l 0,23,24
 32 88 32 88 76 107.5 c 0,25,26
 120 127 120 127 151 167 c 0,27,-1
 498 624 l 0,28,-1
 263 1093 l 0,29,30
 252 1115 252 1115 241 1129 c 0,31,32
 230 1143 230 1143 215.5 1152 c 0,33,34
 201 1161 201 1161 180.5 1166.5 c 0,35,36
 160 1172 160 1172 130 1177 c 0,37,-1
 141 1260 l 0,38,-1
 672 1260 l 0,39,-1
 661 1177 l 0,40,41
 581 1169 581 1169 554 1152.5 c 0,42,43
 527 1136 527 1136 549 1093 c 0,44,-1
 691 810 l 0,45,-1
 896 1093 l 0,46,47
 913 1116 913 1116 919 1130.5 c 0,48,49
 925 1145 925 1145 917.5 1154.5 c 0,50,51
 910 1164 910 1164 887 1169 c 0,52,53
 864 1174 864 1174 824 1177 c 0,54,-1
 835 1260 l 0,55,-1
 1256 1260 l 0,56,-1
 1245 1177 l 0,57,58
 1210 1173 1210 1173 1183.5 1167 c 0,59,60
 1157 1161 1157 1161 1135 1151.5 c 0,61,62
 1113 1142 1113 1142 1095.5 1128 c 0,63,64
 1078 1114 1078 1114 1063 1093 c 0,65,-1
 757 678 l 0,66,-1
 1014 167 l 0,67,68
 1025 146 1025 146 1036 131.5 c 0,69,70
 1047 117 1047 117 1061 107.5 c 0,71,72
 1075 98 1075 98 1094 92.5 c 0,73,74
 1113 87 1113 87 1140 83 c 0,75,-1
 1129 0 l 0,0,-1
EndSplineSet
EndChar

StartChar: Y
Encoding: 60 89 60
Width: 1178
Flags: W
LayerCount: 2
Fore
SplineSet
825 0 m 0,0,-1
 276 0 l 0,1,-1
 287 83 l 0,2,3
 330 92 330 92 359 102 c 0,4,5
 388 112 388 112 405.5 121.5 c 0,6,7
 423 131 423 131 431 139.5 c 0,8,9
 439 148 439 148 440 155 c 0,10,-1
 491 528 l 0,11,12
 468 607 468 607 438.5 691 c 0,13,14
 409 775 409 775 377.5 852.5 c 0,15,16
 346 930 346 930 315 997 c 0,17,18
 284 1064 284 1064 259 1111 c 0,19,20
 253 1122 253 1122 245 1130.5 c 0,21,22
 237 1139 237 1139 222.5 1144.5 c 0,23,24
 208 1150 208 1150 184.5 1153 c 0,25,26
 161 1156 161 1156 122 1156 c 0,27,-1
 129 1239 l 0,28,29
 157 1243 157 1243 194.5 1248.5 c 0,30,31
 232 1254 232 1254 269.5 1258.5 c 0,32,33
 307 1263 307 1263 340 1266.5 c 0,34,35
 373 1270 373 1270 392 1270 c 0,36,37
 420 1270 420 1270 447 1257 c 0,38,39
 474 1244 474 1244 487 1221 c 0,40,41
 514 1171 514 1171 543 1107 c 0,42,43
 572 1043 572 1043 600 972 c 0,44,45
 628 901 628 901 654 825.5 c 0,46,47
 680 750 680 750 702 678 c 0,48,-1
 969 1111 l 0,49,50
 985 1137 985 1137 964.5 1152 c 0,51,52
 944 1167 944 1167 874 1177 c 0,53,-1
 885 1260 l 0,54,-1
 1281 1260 l 0,55,-1
 1270 1177 l 0,56,57
 1205 1164 1205 1164 1173.5 1150 c 0,58,59
 1142 1136 1142 1136 1126 1111 c 0,60,-1
 750 516 l 0,61,-1
 701 155 l 0,62,63
 700 149 700 149 705 140.5 c 0,64,65
 710 132 710 132 725 122 c 0,66,67
 740 112 740 112 767 102 c 0,68,69
 794 92 794 92 836 83 c 0,70,-1
 825 0 l 0,0,-1
EndSplineSet
EndChar

StartChar: Z
Encoding: 61 90 61
Width: 1078
Flags: W
LayerCount: 2
Fore
SplineSet
345 140 m 0,0,-1
 748 140 l 0,1,2
 768 140 768 140 786 157 c 0,3,4
 804 174 804 174 822.5 207 c 0,5,6
 841 240 841 240 862.5 287.5 c 0,7,8
 884 335 884 335 910 397 c 0,9,-1
 996 373 l 0,10,11
 990 341 990 341 981 289.5 c 0,12,13
 972 238 972 238 963 183.5 c 0,14,15
 954 129 954 129 946 79 c 0,16,17
 938 29 938 29 934 0 c 0,18,-1
 40 0 l 0,19,-1
 11 55 l 0,20,-1
 771 1120 l 0,21,-1
 428 1120 l 0,22,23
 413 1120 413 1120 391.5 1101 c 0,24,25
 370 1082 370 1082 346.5 1048.5 c 0,26,27
 323 1015 323 1015 300.5 970 c 0,28,29
 278 925 278 925 261 873 c 0,30,-1
 174 895 l 0,31,-1
 262 1276 l 0,32,33
 287 1270 287 1270 307 1266.5 c 0,34,35
 327 1263 327 1263 347 1261.5 c 0,36,37
 367 1260 367 1260 388 1260 c 0,38,-1
 1075 1260 l 0,39,-1
 1100 1207 l 0,40,-1
 345 140 l 0,0,-1
EndSplineSet
EndChar

StartChar: bracketleft
Encoding: 62 91 62
Width: 770
Flags: W
LayerCount: 2
Fore
SplineSet
870 1563 m 0,0,1
 867 1551 867 1551 859.5 1533.5 c 0,2,3
 852 1516 852 1516 843 1498.5 c 0,4,5
 834 1481 834 1481 826 1467 c 0,6,7
 818 1453 818 1453 814 1447 c 0,8,-1
 552 1447 l 0,9,-1
 329 -181 l 0,10,-1
 585 -181 l 0,11,-1
 624 -220 l 0,12,13
 621 -230 621 -230 614 -246 c 0,14,15
 607 -262 607 -262 598.5 -279 c 0,16,17
 590 -296 590 -296 582 -311.5 c 0,18,19
 574 -327 574 -327 569 -336 c 0,20,-1
 66 -336 l 0,21,-1
 338 1599 l 0,22,-1
 833 1599 l 0,23,-1
 870 1563 l 0,0,1
EndSplineSet
EndChar

StartChar: backslash
Encoding: 63 92 63
Width: 869
Flags: W
LayerCount: 2
Fore
SplineSet
697 -336 m 0,0,1
 686 -332 686 -332 660 -323 c 0,2,3
 634 -314 634 -314 605.5 -303.5 c 0,4,5
 577 -293 577 -293 552.5 -282.5 c 0,6,7
 528 -272 528 -272 521 -265 c 0,8,-1
 135 1567 l 0,9,-1
 182 1599 l 0,10,11
 196 1595 196 1595 220.5 1587 c 0,12,13
 245 1579 245 1579 271.5 1569.5 c 0,14,15
 298 1560 298 1560 322 1549.5 c 0,16,17
 346 1539 346 1539 358 1530 c 0,18,-1
 742 -301 l 0,19,-1
 697 -336 l 0,0,1
EndSplineSet
EndChar

StartChar: bracketright
Encoding: 64 93 64
Width: 706
Flags: W
LayerCount: 2
Fore
SplineSet
448 -336 m 0,0,-1
 -47 -336 l 0,1,-1
 -86 -297 l 0,2,3
 -82 -285 -82 -285 -74.5 -268 c 0,4,5
 -67 -251 -67 -251 -59 -234 c 0,6,7
 -51 -217 -51 -217 -43.5 -202 c 0,8,9
 -36 -187 -36 -187 -32 -181 c 0,10,-1
 230 -181 l 0,11,-1
 459 1447 l 0,12,-1
 205 1447 l 0,13,-1
 166 1483 l 0,14,15
 169 1494 169 1494 175.5 1510.5 c 0,16,17
 182 1527 182 1527 190 1544 c 0,18,19
 198 1561 198 1561 205 1576 c 0,20,21
 212 1591 212 1591 217 1599 c 0,22,-1
 718 1599 l 0,23,-1
 448 -336 l 0,0,-1
EndSplineSet
EndChar

StartChar: asciicircum
Encoding: 65 94 65
Width: 938
Flags: W
LayerCount: 2
Fore
SplineSet
854 635 m 0,0,1
 826 612 826 612 801.5 596.5 c 0,2,3
 777 581 777 581 743 565 c 0,4,-1
 713 592 l 0,5,-1
 553 1315 l 0,6,-1
 223 635 l 0,7,8
 212 625 212 625 197 614.5 c 0,9,10
 182 604 182 604 166.5 594.5 c 0,11,12
 151 585 151 585 137 577.5 c 0,13,14
 123 570 123 570 113 565 c 0,15,-1
 94 592 l 0,16,-1
 516 1462 l 0,17,18
 529 1474 529 1474 547 1486.5 c 0,19,20
 565 1499 565 1499 584 1511 c 0,21,22
 603 1523 603 1523 621 1533 c 0,23,24
 639 1543 639 1543 653 1550 c 0,25,-1
 854 635 l 0,0,1
EndSplineSet
EndChar

StartChar: underscore
Encoding: 66 95 66
Width: 930
Flags: W
LayerCount: 2
Fore
SplineSet
811 -166 m 0,0,1
 808 -177 808 -177 800 -193.5 c 0,2,3
 792 -210 792 -210 783 -227.5 c 0,4,5
 774 -245 774 -245 765.5 -261 c 0,6,7
 757 -277 757 -277 752 -286 c 0,8,-1
 3 -286 l 0,9,-1
 -23 -249 l 0,10,11
 -20 -239 -20 -239 -12.5 -223.5 c 0,12,13
 -5 -208 -5 -208 4 -190.5 c 0,14,15
 13 -173 13 -173 22.5 -157 c 0,16,17
 32 -141 32 -141 38 -131 c 0,18,-1
 783 -131 l 0,19,-1
 811 -166 l 0,0,1
EndSplineSet
EndChar

StartChar: grave
Encoding: 67 96 67
Width: 606
Flags: W
LayerCount: 2
Fore
SplineSet
581 1057 m 0,0,1
 561 1045 561 1045 534 1033 c 0,2,3
 507 1021 507 1021 489 1016 c 0,4,-1
 189 1372 l 0,5,-1
 231 1428 l 0,6,7
 243 1430 243 1430 276 1437 c 0,8,9
 309 1444 309 1444 346 1451 c 0,10,11
 383 1458 383 1458 416 1463.5 c 0,12,13
 449 1469 449 1469 462 1469 c 0,14,-1
 581 1057 l 0,0,1
EndSplineSet
EndChar

StartChar: a
Encoding: 68 97 68
Width: 1007
Flags: W
LayerCount: 2
Fore
SplineSet
1006 118 m 0,0,1
 964 88 964 88 920.5 59 c 0,2,3
 877 30 877 30 838 8 c 0,4,5
 799 -14 799 -14 767.5 -27.5 c 0,6,7
 736 -41 736 -41 718 -41 c 0,8,9
 702 -41 702 -41 679.5 -30.5 c 0,10,11
 657 -20 657 -20 635.5 5 c 0,12,13
 614 30 614 30 595.5 71.5 c 0,14,15
 577 113 577 113 570 176 c 0,16,17
 537 132 537 132 500.5 92.5 c 0,18,19
 464 53 464 53 425.5 23.5 c 0,20,21
 387 -6 387 -6 347 -23.5 c 0,22,23
 307 -41 307 -41 266 -41 c 0,24,25
 229 -41 229 -41 188 -22 c 0,26,27
 147 -3 147 -3 112.5 38.5 c 0,28,29
 78 80 78 80 55.5 145.5 c 0,30,31
 33 211 33 211 33 305 c 0,32,33
 33 384 33 384 53.5 459.5 c 0,34,35
 74 535 74 535 112 604 c 0,36,37
 150 673 150 673 205.5 733.5 c 0,38,39
 261 794 261 794 332 842 c 0,40,41
 386 879 386 879 463 907.5 c 0,42,43
 540 936 540 936 632 936 c 0,44,45
 674 936 674 936 715 917.5 c 0,46,47
 756 899 756 899 793 876 c 0,48,49
 831 893 831 893 867.5 907.5 c 0,50,51
 904 922 904 922 932 936 c 0,52,-1
 967 861 l 0,53,54
 950 847 950 847 938.5 836 c 0,55,56
 927 825 927 825 919 810.5 c 0,57,58
 911 796 911 796 904.5 775 c 0,59,60
 898 754 898 754 891 720 c 0,61,62
 876 648 876 648 864.5 583.5 c 0,63,64
 853 519 853 519 845.5 465 c 0,65,66
 838 411 838 411 834 371 c 0,67,68
 830 331 830 331 830 309 c 0,69,70
 830 282 830 282 834 256.5 c 0,71,72
 838 231 838 231 845.5 210.5 c 0,73,74
 853 190 853 190 862.5 178 c 0,75,76
 872 166 872 166 884 166 c 0,77,78
 904 166 904 166 926.5 171.5 c 0,79,80
 949 177 949 177 989 194 c 0,81,-1
 1006 118 l 0,0,1
577 360 m 0,82,83
 582 401 582 401 589 449 c 0,84,85
 596 497 596 497 603.5 545 c 0,86,87
 611 593 611 593 618.5 637 c 0,88,89
 626 681 626 681 632 715 c 0,90,91
 604 742 604 742 575 762 c 0,92,93
 546 782 546 782 520 781 c 0,94,95
 479 780 479 780 446 761 c 0,96,97
 413 742 413 742 387.5 710.5 c 0,98,99
 362 679 362 679 343.5 638 c 0,100,101
 325 597 325 597 313 552.5 c 0,102,103
 301 508 301 508 295.5 463 c 0,104,105
 290 418 290 418 290 379 c 0,106,107
 290 326 290 326 297 287.5 c 0,108,109
 304 249 304 249 316 224 c 0,110,111
 328 199 328 199 342.5 187.5 c 0,112,113
 357 176 357 176 372 176 c 0,114,115
 385 176 385 176 404 185 c 0,116,117
 423 194 423 194 448.5 215.5 c 0,118,119
 474 237 474 237 506 272.5 c 0,120,121
 538 308 538 308 577 360 c 0,82,83
EndSplineSet
EndChar

StartChar: b
Encoding: 69 98 69
Width: 1041
Flags: W
LayerCount: 2
Fore
SplineSet
990 610 m 0,0,1
 988 504 988 504 940.5 395 c 0,2,3
 893 286 893 286 817 188 c 0,4,5
 782 143 782 143 737.5 101.5 c 0,6,7
 693 60 693 60 640.5 28.5 c 0,8,9
 588 -3 588 -3 529 -22 c 0,10,11
 470 -41 470 -41 407 -41 c 0,12,13
 384 -41 384 -41 353 -30 c 0,14,15
 322 -19 322 -19 289.5 0 c 0,16,17
 257 19 257 19 225 46 c 0,18,19
 193 73 193 73 168 105 c 0,20,21
 143 137 143 137 127 173 c 0,22,23
 111 209 111 209 111 247 c 0,24,25
 111 273 111 273 116.5 324.5 c 0,26,27
 122 376 122 376 131.5 443 c 0,28,29
 141 510 141 510 153 588.5 c 0,30,31
 165 667 165 667 178 748 c 0,32,33
 191 829 191 829 203.5 908.5 c 0,34,35
 216 988 216 988 225.5 1057.5 c 0,36,37
 235 1127 235 1127 241 1181 c 0,38,39
 247 1235 247 1235 247 1266 c 0,40,41
 247 1289 247 1289 242 1302.5 c 0,42,43
 237 1316 237 1316 229 1322.5 c 0,44,45
 221 1329 221 1329 212 1331 c 0,46,47
 203 1333 203 1333 194 1333 c 0,48,49
 185 1333 185 1333 169.5 1328.5 c 0,50,51
 154 1324 154 1324 140 1319 c 0,52,53
 122 1313 122 1313 104 1306 c 0,54,-1
 86 1385 l 0,55,56
 132 1407 132 1407 191.5 1431 c 0,57,58
 251 1455 251 1455 308 1475 c 0,59,60
 365 1495 365 1495 411.5 1507.5 c 0,61,62
 458 1520 458 1520 478 1520 c 0,63,64
 513 1520 513 1520 525 1502 c 0,65,66
 537 1484 537 1484 537 1438 c 0,67,68
 537 1396 537 1396 528 1321.5 c 0,69,70
 519 1247 519 1247 505.5 1153.5 c 0,71,72
 492 1060 492 1060 475 955.5 c 0,73,74
 458 851 458 851 442 750 c 0,75,76
 491 809 491 809 534.5 845.5 c 0,77,78
 578 882 578 882 616 902 c 0,79,80
 654 922 654 922 687 929 c 0,81,82
 720 936 720 936 747 936 c 0,83,84
 798 937 798 937 842.5 915.5 c 0,85,86
 887 894 887 894 920 852.5 c 0,87,88
 953 811 953 811 972 750 c 0,89,90
 991 689 991 689 990 610 c 0,0,1
629 743 m 0,91,92
 617 743 617 743 596.5 732.5 c 0,93,94
 576 722 576 722 547.5 696 c 0,95,96
 519 670 519 670 483.5 626.5 c 0,97,98
 448 583 448 583 406 516 c 0,99,100
 397 450 397 450 391.5 398 c 0,101,102
 386 346 386 346 386 316 c 0,103,104
 386 290 386 290 401 263.5 c 0,105,106
 416 237 416 237 438 216 c 0,107,108
 460 195 460 195 483.5 181 c 0,109,110
 507 167 507 167 524 166 c 0,111,112
 566 163 566 163 597 183 c 0,113,114
 628 203 628 203 653 239 c 0,115,116
 672 266 672 266 686 302.5 c 0,117,118
 700 339 700 339 709 378 c 0,119,120
 718 417 718 417 722 456.5 c 0,121,122
 726 496 726 496 726 530 c 0,123,124
 726 576 726 576 720 615 c 0,125,126
 714 654 714 654 701.5 682.5 c 0,127,128
 689 711 689 711 671 727 c 0,129,130
 653 743 653 743 629 743 c 0,91,92
EndSplineSet
EndChar

StartChar: c
Encoding: 70 99 70
Width: 899
Flags: W
LayerCount: 2
Fore
SplineSet
937 825 m 0,0,1
 916 802 916 802 884.5 772 c 0,2,3
 853 742 853 742 820.5 715 c 0,4,5
 788 688 788 688 759 669.5 c 0,6,7
 730 651 730 651 713 651 c 0,8,9
 695 651 695 651 678 671.5 c 0,10,11
 661 692 661 692 642.5 716 c 0,12,13
 624 740 624 740 601.5 760.5 c 0,14,15
 579 781 579 781 551 781 c 0,16,17
 501 781 501 781 462.5 747.5 c 0,18,19
 424 714 424 714 397.5 659.5 c 0,20,21
 371 605 371 605 357 536.5 c 0,22,23
 343 468 343 468 343 398 c 0,24,25
 343 268 343 268 378 197 c 0,26,27
 413 126 413 126 469 126 c 0,28,29
 529 126 529 126 605.5 169.5 c 0,30,31
 682 213 682 213 790 301 c 0,32,33
 794 296 794 296 802 284 c 0,34,35
 810 272 810 272 819 259 c 0,36,37
 828 246 828 246 835.5 235 c 0,38,39
 843 224 843 224 845 220 c 0,40,41
 767 149 767 149 701 99 c 0,42,43
 635 49 635 49 577.5 18 c 0,44,45
 520 -13 520 -13 469.5 -27 c 0,46,47
 419 -41 419 -41 371 -41 c 0,48,49
 326 -41 326 -41 274.5 -24 c 0,50,51
 223 -7 223 -7 179 35 c 0,52,53
 135 77 135 77 106 147 c 0,54,55
 77 217 77 217 77 322 c 0,56,57
 77 389 77 389 91 457.5 c 0,58,59
 105 526 105 526 136.5 590.5 c 0,60,61
 168 655 168 655 218.5 714 c 0,62,63
 269 773 269 773 343 822 c 0,64,65
 371 840 371 840 409 860.5 c 0,66,67
 447 881 447 881 490.5 897.5 c 0,68,69
 534 914 534 914 581 925 c 0,70,71
 628 936 628 936 674 936 c 0,72,73
 718 936 718 936 753 922.5 c 0,74,75
 788 909 788 909 818.5 890.5 c 0,76,77
 849 872 849 872 877.5 853.5 c 0,78,79
 906 835 906 835 937 825 c 0,0,1
EndSplineSet
EndChar

StartChar: d
Encoding: 71 100 71
Width: 1034
Flags: W
LayerCount: 2
Fore
SplineSet
1009 116 m 0,0,1
 967 87 967 87 923.5 59 c 0,2,3
 880 31 880 31 841 9 c 0,4,5
 802 -13 802 -13 769.5 -27 c 0,6,7
 737 -41 737 -41 716 -41 c 0,8,9
 699 -41 699 -41 677 -30 c 0,10,11
 655 -19 655 -19 633.5 6.5 c 0,12,13
 612 32 612 32 595 74 c 0,14,15
 578 116 578 116 571 178 c 0,16,17
 486 63 486 63 408 11 c 0,18,19
 330 -41 330 -41 266 -41 c 0,20,21
 225 -41 225 -41 183.5 -20.5 c 0,22,23
 142 0 142 0 108.5 43.5 c 0,24,25
 75 87 75 87 54 154.5 c 0,26,27
 33 222 33 222 33 315 c 0,28,29
 33 394 33 394 53 468.5 c 0,30,31
 73 543 73 543 111.5 610.5 c 0,32,33
 150 678 150 678 205.5 736.5 c 0,34,35
 261 795 261 795 332 842 c 0,36,37
 360 860 360 860 394.5 876.5 c 0,38,39
 429 893 429 893 466.5 906.5 c 0,40,41
 504 920 504 920 544 928 c 0,42,43
 584 936 584 936 622 936 c 0,44,45
 632 936 632 936 642.5 932.5 c 0,46,47
 653 929 653 929 665 924 c 0,48,49
 682 1034 682 1034 693 1125 c 0,50,51
 704 1216 704 1216 704 1266 c 0,52,53
 704 1289 704 1289 700.5 1302.5 c 0,54,55
 697 1316 697 1316 690.5 1322.5 c 0,56,57
 684 1329 684 1329 676 1331 c 0,58,59
 668 1333 668 1333 659 1333 c 0,60,61
 650 1333 650 1333 634 1328.5 c 0,62,63
 618 1324 618 1324 602 1319 c 0,64,65
 584 1313 584 1313 562 1306 c 0,66,-1
 545 1385 l 0,67,68
 598 1411 598 1411 655.5 1435.5 c 0,69,70
 713 1460 713 1460 765 1478.5 c 0,71,72
 817 1497 817 1497 857.5 1508.5 c 0,73,74
 898 1520 898 1520 918 1520 c 0,75,76
 953 1520 953 1520 973 1502 c 0,77,78
 993 1484 993 1484 993 1438 c 0,79,80
 993 1399 993 1399 986 1338 c 0,81,82
 979 1277 979 1277 967.5 1201.5 c 0,83,84
 956 1126 956 1126 941.5 1040.5 c 0,85,86
 927 955 927 955 911.5 868.5 c 0,87,88
 896 782 896 782 881.5 698 c 0,89,90
 867 614 867 614 855.5 541 c 0,91,92
 844 468 844 468 837 410.5 c 0,93,94
 830 353 830 353 830 319 c 0,95,96
 830 244 830 244 846 206 c 0,97,98
 862 168 862 168 885 168 c 0,99,100
 910 168 910 168 933 173.5 c 0,101,102
 956 179 956 179 991 194 c 0,103,-1
 1009 116 l 0,0,1
578 366 m 0,104,105
 588 434 588 434 602 524.5 c 0,106,107
 616 615 616 615 632 714 c 0,108,109
 606 741 606 741 578 761 c 0,110,111
 550 781 550 781 519 781 c 0,112,113
 478 781 478 781 445.5 762 c 0,114,115
 413 743 413 743 387.5 711.5 c 0,116,117
 362 680 362 680 343.5 639 c 0,118,119
 325 598 325 598 313 553.5 c 0,120,121
 301 509 301 509 295.5 463.5 c 0,122,123
 290 418 290 418 290 379 c 0,124,125
 290 272 290 272 315 224 c 0,126,127
 340 176 340 176 376 176 c 0,128,129
 386 176 386 176 403 183 c 0,130,131
 420 190 420 190 445 211 c 0,132,133
 470 232 470 232 503 269 c 0,134,135
 536 306 536 306 578 366 c 0,104,105
EndSplineSet
EndChar

StartChar: e
Encoding: 72 101 72
Width: 885
Flags: W
LayerCount: 2
Fore
SplineSet
401 722 m 0,0,1
 379 693 379 693 362.5 663.5 c 0,2,3
 346 634 346 634 334 601 c 0,4,5
 322 568 322 568 315 530 c 0,6,7
 308 492 308 492 306 446 c 0,8,9
 394 488 394 488 446.5 521.5 c 0,10,11
 499 555 499 555 526.5 585 c 0,12,13
 554 615 554 615 562 644 c 0,14,15
 570 673 570 673 570 705 c 0,16,17
 570 746 570 746 552 768.5 c 0,18,19
 534 791 534 791 508 791 c 0,20,21
 500 791 500 791 487 786 c 0,22,23
 474 781 474 781 459 772 c 0,24,25
 444 763 444 763 428.5 750.5 c 0,26,27
 413 738 413 738 401 722 c 0,0,1
850 760 m 0,28,29
 850 733 850 733 843.5 701.5 c 0,30,31
 837 670 837 670 817.5 635.5 c 0,32,33
 798 601 798 601 762 563 c 0,34,35
 726 525 726 525 666 485 c 0,36,37
 606 445 606 445 519 403 c 0,38,39
 432 361 432 361 311 318 c 0,40,41
 325 227 325 227 362 176.5 c 0,42,43
 399 126 399 126 447 126 c 0,44,45
 490 126 490 126 572.5 170 c 0,46,47
 655 214 655 214 776 311 c 0,48,49
 782 308 782 308 790 296.5 c 0,50,51
 798 285 798 285 805.5 271.5 c 0,52,53
 813 258 813 258 819 246 c 0,54,-1
 827 230 l 0,55,56
 745 159 745 159 677 107.5 c 0,57,58
 609 56 609 56 551 23 c 0,59,60
 493 -10 493 -10 442.5 -25.5 c 0,61,62
 392 -41 392 -41 345 -41 c 0,63,64
 301 -41 301 -41 248 -22.5 c 0,65,66
 195 -4 195 -4 149.5 36.5 c 0,67,68
 104 77 104 77 73.5 142.5 c 0,69,70
 43 208 43 208 43 303 c 0,71,72
 43 381 43 381 62 451.5 c 0,73,74
 81 522 81 522 116 585.5 c 0,75,76
 151 649 151 649 200.5 706 c 0,77,78
 250 763 250 763 312 816 c 0,79,80
 334 835 334 835 368 856 c 0,81,82
 402 877 402 877 442.5 895 c 0,83,84
 483 913 483 913 526.5 924.5 c 0,85,86
 570 936 570 936 612 936 c 0,87,88
 673 936 673 936 718 920.5 c 0,89,90
 763 905 763 905 792.5 880 c 0,91,92
 822 855 822 855 836 823.5 c 0,93,94
 850 792 850 792 850 760 c 0,28,29
EndSplineSet
EndChar

StartChar: f
Encoding: 73 102 73
Width: 689
Flags: W
LayerCount: 2
Fore
SplineSet
1053 1393 m 0,0,1
 1039 1383 1039 1383 1017.5 1365.5 c 0,2,3
 996 1348 996 1348 971.5 1328.5 c 0,4,5
 947 1309 947 1309 921 1288.5 c 0,6,7
 895 1268 895 1268 872.5 1252 c 0,8,9
 850 1236 850 1236 832.5 1225.5 c 0,10,11
 815 1215 815 1215 807 1215 c 0,12,13
 790 1215 790 1215 773.5 1234 c 0,14,15
 757 1253 757 1253 739 1276 c 0,16,17
 721 1299 721 1299 701 1318 c 0,18,19
 681 1337 681 1337 656 1337 c 0,20,21
 618 1337 618 1337 592 1300.5 c 0,22,23
 566 1264 566 1264 548.5 1208 c 0,24,25
 531 1152 531 1152 520.5 1084 c 0,26,27
 510 1016 510 1016 503 952 c 0,28,-1
 497 905 l 0,29,-1
 743 905 l 0,30,-1
 773 867 l 0,31,32
 763 853 763 853 742.5 832 c 0,33,34
 722 811 722 811 699.5 790 c 0,35,36
 677 769 677 769 656.5 752 c 0,37,38
 636 735 636 735 626 730 c 0,39,40
 615 758 615 758 584 766.5 c 0,41,42
 553 775 553 775 493 775 c 0,43,-1
 482 775 l 0,44,-1
 415 193 l 0,45,46
 402 83 402 83 354.5 -19.5 c 0,47,48
 307 -122 307 -122 241 -210.5 c 0,49,50
 175 -299 175 -299 97.5 -369.5 c 0,51,52
 20 -440 20 -440 -54 -485 c 0,53,-1
 -100 -392 l 0,54,55
 -50 -364 -50 -364 -9.5 -308.5 c 0,56,57
 31 -253 31 -253 61.5 -181 c 0,58,59
 92 -109 92 -109 112 -26 c 0,60,61
 132 57 132 57 141 139 c 0,62,-1
 214 775 l 0,63,-1
 78 775 l 0,64,-1
 53 816 l 0,65,-1
 194 905 l 0,66,-1
 229 905 l 0,67,68
 239 985 239 985 259 1059 c 0,69,70
 279 1133 279 1133 311 1199 c 0,71,72
 343 1265 343 1265 389.5 1322.5 c 0,73,74
 436 1380 436 1380 499 1427 c 0,75,76
 553 1466 553 1466 612.5 1493 c 0,77,78
 672 1520 672 1520 734 1520 c 0,79,80
 785 1520 785 1520 835.5 1502 c 0,81,82
 886 1484 886 1484 929.5 1461.5 c 0,83,84
 973 1439 973 1439 1005.5 1418.5 c 0,85,86
 1038 1398 1038 1398 1053 1393 c 0,0,1
EndSplineSet
EndChar

StartChar: g
Encoding: 74 103 74
Width: 977
Flags: W
LayerCount: 2
Fore
SplineSet
965 861 m 0,0,1
 931 833 931 833 911.5 792 c 0,2,3
 892 751 892 751 883 679 c 0,4,5
 869 560 869 560 863.5 468.5 c 0,6,7
 858 377 858 377 853.5 298.5 c 0,8,9
 849 220 849 220 843.5 149 c 0,10,11
 838 78 838 78 824 1 c 0,12,13
 812 -68 812 -68 780.5 -132 c 0,14,15
 749 -196 749 -196 705 -252 c 0,16,17
 661 -308 661 -308 607.5 -353.5 c 0,18,19
 554 -399 554 -399 496.5 -431.5 c 0,20,21
 439 -464 439 -464 381 -482 c 0,22,23
 323 -500 323 -500 271 -500 c 0,24,25
 218 -500 218 -500 165 -489.5 c 0,26,27
 112 -479 112 -479 70 -462.5 c 0,28,29
 28 -446 28 -446 1.5 -426.5 c 0,30,31
 -25 -407 -25 -407 -25 -389 c 0,32,33
 -25 -378 -25 -378 -15 -360 c 0,34,35
 -5 -342 -5 -342 10 -321.5 c 0,36,37
 25 -301 25 -301 43 -280.5 c 0,38,39
 61 -260 61 -260 78 -243.5 c 0,40,41
 95 -227 95 -227 108 -216.5 c 0,42,43
 121 -206 121 -206 125 -206 c 0,44,45
 137 -206 137 -206 155.5 -222 c 0,46,47
 174 -238 174 -238 202.5 -257.5 c 0,48,49
 231 -277 231 -277 271 -293 c 0,50,51
 311 -309 311 -309 367 -309 c 0,52,53
 400 -309 400 -309 429.5 -299.5 c 0,54,55
 459 -290 459 -290 483.5 -261.5 c 0,56,57
 508 -233 508 -233 527.5 -182 c 0,58,59
 547 -131 547 -131 562 -48 c 0,60,61
 574 26 574 26 579.5 88 c 0,62,63
 585 150 585 150 588 209 c 0,64,65
 504 92 504 92 423 25.5 c 0,66,67
 342 -41 342 -41 256 -41 c 0,68,69
 223 -41 223 -41 182 -22 c 0,70,71
 141 -3 141 -3 105.5 38.5 c 0,72,73
 70 80 70 80 45.5 145.5 c 0,74,75
 21 211 21 211 21 305 c 0,76,77
 21 464 21 464 98 603.5 c 0,78,79
 175 743 175 743 324 842 c 0,80,81
 379 879 379 879 456 907.5 c 0,82,83
 533 936 533 936 632 936 c 0,84,85
 668 936 668 936 711 915 c 0,86,87
 754 894 754 894 794 869 c 0,88,89
 831 891 831 891 865.5 907 c 0,90,91
 900 923 900 923 926 936 c 0,92,-1
 965 861 l 0,0,1
368 176 m 0,93,94
 378 176 378 176 395.5 183 c 0,95,96
 413 190 413 190 440.5 214 c 0,97,98
 468 238 468 238 506 283 c 0,99,100
 544 328 544 328 595 404 c 0,101,102
 598 462 598 462 604 527.5 c 0,103,104
 610 593 610 593 623 672 c 0,105,106
 626 689 626 689 632 706 c 0,107,108
 601 735 601 735 570 758 c 0,109,110
 539 781 539 781 512 781 c 0,111,112
 471 781 471 781 438 762 c 0,113,114
 405 743 405 743 379.5 711.5 c 0,115,116
 354 680 354 680 335 639 c 0,117,118
 316 598 316 598 304 553.5 c 0,119,120
 292 509 292 509 286 463.5 c 0,121,122
 280 418 280 418 280 379 c 0,123,124
 280 272 280 272 305 224 c 0,125,126
 330 176 330 176 368 176 c 0,93,94
EndSplineSet
EndChar

StartChar: h
Encoding: 75 104 75
Width: 1097
Flags: W
LayerCount: 2
Fore
SplineSet
1074 122 m 0,0,1
 1028 95 1028 95 974 66 c 0,2,3
 920 37 920 37 867.5 13.5 c 0,4,5
 815 -10 815 -10 769 -25.5 c 0,6,7
 723 -41 723 -41 693 -41 c 0,8,9
 664 -41 664 -41 640.5 -9.5 c 0,10,11
 617 22 617 22 617 76 c 0,12,13
 617 94 617 94 623 135 c 0,14,15
 629 176 629 176 637.5 229 c 0,16,17
 646 282 646 282 656 341 c 0,18,19
 666 400 666 400 674.5 454.5 c 0,20,21
 683 509 683 509 689 553 c 0,22,23
 695 597 695 597 695 620 c 0,24,25
 695 650 695 650 692 669 c 0,26,27
 689 688 689 688 684 698.5 c 0,28,29
 679 709 679 709 670.5 712.5 c 0,30,31
 662 716 662 716 652 716 c 0,32,33
 639 716 639 716 618 711 c 0,34,35
 597 706 597 706 571.5 691 c 0,36,37
 546 676 546 676 518.5 650 c 0,38,39
 491 624 491 624 466 582 c 0,40,41
 437 534 437 534 418 462.5 c 0,42,43
 399 391 399 391 385 301 c 0,44,45
 376 246 376 246 371 209 c 0,46,47
 366 172 366 172 364 147 c 0,48,49
 362 122 362 122 361.5 105.5 c 0,50,51
 361 89 361 89 362 75 c 0,52,53
 353 70 353 70 333.5 61 c 0,54,55
 314 52 314 52 288.5 40.5 c 0,56,57
 263 29 263 29 235 16.5 c 0,58,59
 207 4 207 4 181.5 -7 c 0,60,61
 156 -18 156 -18 136.5 -27.5 c 0,62,63
 117 -37 117 -37 109 -41 c 0,64,-1
 66 0 l 0,65,66
 75 54 75 54 88 129.5 c 0,67,68
 101 205 101 205 115.5 294.5 c 0,69,70
 130 384 130 384 146 481.5 c 0,71,72
 162 579 162 579 177 676.5 c 0,73,74
 192 774 192 774 205.5 866 c 0,75,76
 219 958 219 958 229 1036.5 c 0,77,78
 239 1115 239 1115 245 1174.5 c 0,79,80
 251 1234 251 1234 251 1266 c 0,81,82
 251 1289 251 1289 247.5 1302.5 c 0,83,84
 244 1316 244 1316 238.5 1322.5 c 0,85,86
 233 1329 233 1329 225.5 1331 c 0,87,88
 218 1333 218 1333 210 1333 c 0,89,90
 200 1333 200 1333 182.5 1328.5 c 0,91,92
 165 1324 165 1324 148 1319 c 0,93,94
 128 1313 128 1313 105 1306 c 0,95,-1
 88 1385 l 0,96,97
 116 1397 116 1397 151.5 1412 c 0,98,99
 187 1427 187 1427 225.5 1442 c 0,100,101
 264 1457 264 1457 302 1471 c 0,102,103
 340 1485 340 1485 373.5 1496 c 0,104,105
 407 1507 407 1507 433 1513.5 c 0,106,107
 459 1520 459 1520 473 1520 c 0,108,109
 501 1520 501 1520 521.5 1502 c 0,110,111
 542 1484 542 1484 542 1438 c 0,112,113
 542 1414 542 1414 536.5 1363 c 0,114,115
 531 1312 531 1312 522 1246.5 c 0,116,117
 513 1181 513 1181 501.5 1107 c 0,118,119
 490 1033 490 1033 479 963 c 0,120,121
 468 893 468 893 458.5 833.5 c 0,122,123
 449 774 449 774 443 738 c 0,124,125
 560 844 560 844 661.5 890 c 0,126,127
 763 936 763 936 852 936 c 0,128,129
 883 936 883 936 908 930 c 0,130,131
 933 924 933 924 950 906.5 c 0,132,133
 967 889 967 889 976 858.5 c 0,134,135
 985 828 985 828 985 780 c 0,136,137
 985 745 985 745 979 698 c 0,138,139
 973 651 973 651 964 599 c 0,140,141
 955 547 955 547 944 492 c 0,142,143
 933 437 933 437 924 387 c 0,144,145
 915 337 915 337 909 295 c 0,146,147
 903 253 903 253 903 225 c 0,148,149
 903 191 903 191 911 178.5 c 0,150,151
 919 166 919 166 939 166 c 0,152,153
 953 166 953 166 964 168 c 0,154,155
 975 170 975 170 987 174.5 c 0,156,157
 999 179 999 179 1012 185 c 0,158,-1
 1044 199 l 0,159,-1
 1074 122 l 0,0,1
EndSplineSet
EndChar

StartChar: i
Encoding: 76 105 76
Width: 589
Flags: W
LayerCount: 2
Fore
SplineSet
587 1262 m 0,0,1
 587 1234 587 1234 574.5 1203 c 0,2,3
 562 1172 562 1172 537.5 1146 c 0,4,5
 513 1120 513 1120 477 1103 c 0,6,7
 441 1086 441 1086 394 1086 c 0,8,9
 364 1086 364 1086 342 1093.5 c 0,10,11
 320 1101 320 1101 306 1114 c 0,12,13
 292 1127 292 1127 285.5 1143 c 0,14,15
 279 1159 279 1159 279 1176 c 0,16,17
 279 1203 279 1203 291.5 1234 c 0,18,19
 304 1265 304 1265 329 1291.5 c 0,20,21
 354 1318 354 1318 389.5 1335.5 c 0,22,23
 425 1353 425 1353 472 1353 c 0,24,25
 502 1353 502 1353 524 1345 c 0,26,27
 546 1337 546 1337 560 1324.5 c 0,28,29
 574 1312 574 1312 580.5 1295.5 c 0,30,31
 587 1279 587 1279 587 1262 c 0,0,1
565 122 m 0,32,33
 518 94 518 94 465.5 65 c 0,34,35
 413 36 413 36 362.5 12.5 c 0,36,37
 312 -11 312 -11 268 -26 c 0,38,39
 224 -41 224 -41 194 -41 c 0,40,41
 160 -41 160 -41 135 -9.5 c 0,42,43
 110 22 110 22 110 76 c 0,44,45
 110 106 110 106 116.5 155.5 c 0,46,47
 123 205 123 205 133 264 c 0,48,49
 143 323 143 323 155 386 c 0,50,51
 167 449 167 449 177 506 c 0,52,53
 187 563 187 563 193.5 609.5 c 0,54,55
 200 656 200 656 200 680 c 0,56,57
 200 703 200 703 197 716.5 c 0,58,59
 194 730 194 730 189 736.5 c 0,60,61
 184 743 184 743 176 745 c 0,62,63
 168 747 168 747 159 747 c 0,64,65
 151 747 151 747 136 743.5 c 0,66,67
 121 740 121 740 106 735 c 0,68,69
 88 730 88 730 69 723 c 0,70,-1
 50 800 l 0,71,72
 92 819 92 819 148.5 842.5 c 0,73,74
 205 866 205 866 260.5 887 c 0,75,76
 316 908 316 908 362 922 c 0,77,78
 408 936 408 936 429 936 c 0,79,80
 457 936 457 936 473.5 917 c 0,81,82
 490 898 490 898 490 852 c 0,83,84
 490 823 490 823 483 773 c 0,85,86
 476 723 476 723 465.5 663.5 c 0,87,88
 455 604 455 604 443 538.5 c 0,89,90
 431 473 431 473 420.5 413.5 c 0,91,92
 410 354 410 354 403 304 c 0,93,94
 396 254 396 254 396 225 c 0,95,96
 396 194 396 194 402.5 180 c 0,97,98
 409 166 409 166 426 166 c 0,99,100
 441 166 441 166 454 168 c 0,101,102
 467 170 467 170 480.5 174 c 0,103,104
 494 178 494 178 509 184 c 0,105,106
 524 190 524 190 545 199 c 0,107,-1
 565 122 l 0,32,33
EndSplineSet
EndChar

StartChar: j
Encoding: 77 106 77
Width: 585
Flags: W
LayerCount: 2
Fore
SplineSet
561 1262 m 0,0,1
 561 1234 561 1234 548.5 1203 c 0,2,3
 536 1172 536 1172 511.5 1146 c 0,4,5
 487 1120 487 1120 451 1103 c 0,6,7
 415 1086 415 1086 368 1086 c 0,8,9
 338 1086 338 1086 316 1093.5 c 0,10,11
 294 1101 294 1101 280 1114 c 0,12,13
 266 1127 266 1127 259.5 1143 c 0,14,15
 253 1159 253 1159 253 1176 c 0,16,17
 253 1203 253 1203 265.5 1234 c 0,18,19
 278 1265 278 1265 303 1291.5 c 0,20,21
 328 1318 328 1318 363.5 1335.5 c 0,22,23
 399 1353 399 1353 446 1353 c 0,24,25
 476 1353 476 1353 498 1345 c 0,26,27
 520 1337 520 1337 534 1324.5 c 0,28,29
 548 1312 548 1312 554.5 1295.5 c 0,30,31
 561 1279 561 1279 561 1262 c 0,0,1
480 870 m 0,32,33
 480 859 480 859 477.5 831.5 c 0,34,35
 475 804 475 804 471 767 c 0,36,37
 467 730 467 730 462.5 687.5 c 0,38,39
 458 645 458 645 453.5 604.5 c 0,40,41
 449 564 449 564 445 529.5 c 0,42,43
 441 495 441 495 439 473 c 0,44,45
 431 404 431 404 421 312.5 c 0,46,47
 411 221 411 221 392 96 c 0,48,49
 378 2 378 2 344.5 -75.5 c 0,50,51
 311 -153 311 -153 268.5 -215.5 c 0,52,53
 226 -278 226 -278 179.5 -325 c 0,54,55
 133 -372 133 -372 92 -404 c 0,56,57
 37 -447 37 -447 -30 -473.5 c 0,58,59
 -97 -500 -97 -500 -163 -500 c 0,60,61
 -210 -500 -210 -500 -252.5 -487 c 0,62,63
 -295 -474 -295 -474 -328 -457 c 0,64,65
 -361 -440 -361 -440 -380.5 -422 c 0,66,67
 -400 -404 -400 -404 -400 -394 c 0,68,69
 -400 -385 -400 -385 -391 -368 c 0,70,71
 -382 -351 -382 -351 -367.5 -331 c 0,72,73
 -353 -311 -353 -311 -335.5 -289.5 c 0,74,75
 -318 -268 -318 -268 -301 -250.5 c 0,76,77
 -284 -233 -284 -233 -270.5 -222 c 0,78,79
 -257 -211 -257 -211 -250 -211 c 0,80,81
 -238 -211 -238 -211 -218 -227 c 0,82,83
 -198 -243 -198 -243 -172.5 -262 c 0,84,85
 -147 -281 -147 -281 -117 -297 c 0,86,87
 -87 -313 -87 -313 -54 -313 c 0,88,89
 -15 -313 -15 -313 9.5 -297.5 c 0,90,91
 34 -282 34 -282 50.5 -244.5 c 0,92,93
 67 -207 67 -207 80 -145 c 0,94,95
 93 -83 93 -83 108 11 c 0,96,97
 120 85 120 85 129.5 152 c 0,98,99
 139 219 139 219 146.5 276 c 0,100,101
 154 333 154 333 159.5 377.5 c 0,102,103
 165 422 165 422 168 451 c 0,104,105
 171 475 171 475 174 508 c 0,106,-1
 180 574 l 0,107,108
 183 607 183 607 184.5 635.5 c 0,109,110
 186 664 186 664 186 680 c 0,111,112
 186 703 186 703 183 716.5 c 0,113,114
 180 730 180 730 174.5 736.5 c 0,115,116
 169 743 169 743 161.5 745 c 0,117,118
 154 747 154 747 145 747 c 0,119,120
 136 747 136 747 121 743.5 c 0,121,122
 106 740 106 740 91 735 c 0,123,124
 73 730 73 730 55 723 c 0,125,-1
 35 800 l 0,126,127
 63 813 63 813 98.5 828 c 0,128,129
 134 843 134 843 172 858 c 0,130,131
 210 873 210 873 247.5 887 c 0,132,133
 285 901 285 901 317.5 912 c 0,134,135
 350 923 350 923 375.5 929.5 c 0,136,137
 401 936 401 936 414 936 c 0,138,139
 442 936 442 936 461 924 c 0,140,141
 480 912 480 912 480 870 c 0,32,33
EndSplineSet
EndChar

StartChar: k
Encoding: 78 107 78
Width: 1039
Flags: W
LayerCount: 2
Fore
SplineSet
540 1417 m 0,0,1
 540 1378 540 1378 534 1320.5 c 0,2,3
 528 1263 528 1263 518.5 1192 c 0,4,5
 509 1121 509 1121 496 1040.5 c 0,6,7
 483 960 483 960 469 875 c 0,8,9
 455 790 455 790 440.5 703.5 c 0,10,11
 426 617 426 617 413 536 c 0,12,-1
 568 650 l 0,13,14
 637 701 637 701 677.5 734.5 c 0,15,16
 718 768 718 768 727 787.5 c 0,17,18
 736 807 736 807 713.5 813.5 c 0,19,20
 691 820 691 820 636 818 c 0,21,-1
 627 897 l 0,22,23
 671 904 671 904 716 910 c 0,24,25
 761 916 761 916 803 920.5 c 0,26,27
 845 925 845 925 883 927.5 c 0,28,29
 921 930 921 930 953 930 c 0,30,31
 1016 930 1016 930 1037.5 911 c 0,32,33
 1059 892 1059 892 1059 858 c 0,34,35
 1059 843 1059 843 1037.5 817.5 c 0,36,37
 1016 792 1016 792 974.5 758.5 c 0,38,39
 933 725 933 725 874 683.5 c 0,40,41
 815 642 815 642 740 596 c 0,42,-1
 612 517 l 0,43,44
 636 490 636 490 659.5 453.5 c 0,45,46
 683 417 683 417 704.5 378 c 0,47,48
 726 339 726 339 747 301 c 0,49,50
 768 263 768 263 788.5 233 c 0,51,52
 809 203 809 203 828.5 184.5 c 0,53,54
 848 166 848 166 868 166 c 0,55,56
 891 166 891 166 927.5 173.5 c 0,57,58
 964 181 964 181 1002 202 c 0,59,-1
 1039 128 l 0,60,61
 1006 100 1006 100 964.5 70.5 c 0,62,63
 923 41 923 41 882 16.5 c 0,64,65
 841 -8 841 -8 805 -23.5 c 0,66,67
 769 -39 769 -39 746 -39 c 0,68,69
 713 -39 713 -39 682 -10.5 c 0,70,71
 651 18 651 18 621.5 63.5 c 0,72,73
 592 109 592 109 563.5 165.5 c 0,74,75
 535 222 535 222 507.5 278.5 c 0,76,77
 480 335 480 335 454 385.5 c 0,78,79
 428 436 428 436 403 469 c 0,80,81
 392 398 392 398 383.5 335 c 0,82,83
 375 272 375 272 370.5 220.5 c 0,84,85
 366 169 366 169 365.5 132 c 0,86,87
 365 95 365 95 370 77 c 0,88,89
 361 72 361 72 340.5 63 c 0,90,91
 320 54 320 54 294 42 c 0,92,93
 268 30 268 30 239 17.5 c 0,94,95
 210 5 210 5 184.5 -6.5 c 0,96,97
 159 -18 159 -18 139 -27.5 c 0,98,99
 119 -37 119 -37 111 -41 c 0,100,-1
 66 0 l 0,101,102
 70 29 70 29 80 90.5 c 0,103,104
 90 152 90 152 103.5 234.5 c 0,105,106
 117 317 117 317 133.5 414.5 c 0,107,108
 150 512 150 512 166 614 c 0,109,110
 182 716 182 716 197.5 815.5 c 0,111,112
 213 915 213 915 225 1002 c 0,113,114
 237 1089 237 1089 244 1157 c 0,115,116
 251 1225 251 1225 251 1263 c 0,117,118
 251 1288 251 1288 248 1302 c 0,119,120
 245 1316 245 1316 239 1323 c 0,121,122
 233 1330 233 1330 224 1331.5 c 0,123,124
 215 1333 215 1333 203 1333 c 0,125,126
 195 1333 195 1333 179 1328.5 c 0,127,128
 163 1324 163 1324 146 1319 c 0,129,130
 127 1313 127 1313 105 1306 c 0,131,-1
 86 1385 l 0,132,133
 128 1404 128 1404 187.5 1427.5 c 0,134,135
 247 1451 247 1451 305.5 1471.5 c 0,136,137
 364 1492 364 1492 412.5 1506 c 0,138,139
 461 1520 461 1520 481 1520 c 0,140,141
 495 1520 495 1520 506 1517 c 0,142,143
 517 1514 517 1514 524.5 1503.5 c 0,144,145
 532 1493 532 1493 536 1472.5 c 0,146,147
 540 1452 540 1452 540 1417 c 0,0,1
EndSplineSet
EndChar

StartChar: l
Encoding: 79 108 79
Width: 569
Flags: W
LayerCount: 2
Fore
SplineSet
544 122 m 0,0,1
 495 91 495 91 440.5 62 c 0,2,3
 386 33 386 33 334 10 c 0,4,5
 282 -13 282 -13 236 -27 c 0,6,7
 190 -41 190 -41 157 -41 c 0,8,9
 129 -41 129 -41 107 -11 c 0,10,11
 85 19 85 19 85 78 c 0,12,13
 85 103 85 103 92 159.5 c 0,14,15
 99 216 99 216 110.5 293.5 c 0,16,17
 122 371 122 371 136.5 463 c 0,18,19
 151 555 151 555 166 651.5 c 0,20,21
 181 748 181 748 195.5 843 c 0,22,23
 210 938 210 938 221.5 1020 c 0,24,25
 233 1102 233 1102 240 1166.5 c 0,26,27
 247 1231 247 1231 247 1266 c 0,28,29
 247 1289 247 1289 242.5 1302.5 c 0,30,31
 238 1316 238 1316 231 1322.5 c 0,32,33
 224 1329 224 1329 214.5 1331 c 0,34,35
 205 1333 205 1333 196 1333 c 0,36,37
 188 1333 188 1333 172.5 1328.5 c 0,38,39
 157 1324 157 1324 141 1319 c 0,40,-1
 102 1306 l 0,41,-1
 82 1385 l 0,42,43
 110 1397 110 1397 146.5 1412 c 0,44,45
 183 1427 183 1427 222 1442 c 0,46,47
 261 1457 261 1457 300.5 1471 c 0,48,49
 340 1485 340 1485 374.5 1496 c 0,50,51
 409 1507 409 1507 435.5 1513.5 c 0,52,53
 462 1520 462 1520 476 1520 c 0,54,55
 504 1520 504 1520 520.5 1502 c 0,56,57
 537 1484 537 1484 537 1438 c 0,58,59
 537 1399 537 1399 530 1334 c 0,60,61
 523 1269 523 1269 511.5 1187 c 0,62,63
 500 1105 500 1105 485 1011.5 c 0,64,65
 470 918 470 918 455 822.5 c 0,66,67
 440 727 440 727 425 634.5 c 0,68,69
 410 542 410 542 398.5 462.5 c 0,70,71
 387 383 387 383 380 321 c 0,72,73
 373 259 373 259 373 225 c 0,74,75
 373 191 373 191 382.5 178.5 c 0,76,77
 392 166 392 166 408 166 c 0,78,79
 431 166 431 166 457 174 c 0,80,81
 483 182 483 182 527 199 c 0,82,-1
 544 122 l 0,0,1
EndSplineSet
EndChar

StartChar: m
Encoding: 80 109 80
Width: 1592
Flags: W
LayerCount: 2
Fore
SplineSet
1548 122 m 0,0,1
 1502 95 1502 95 1448.5 66 c 0,2,3
 1395 37 1395 37 1344 13.5 c 0,4,5
 1293 -10 1293 -10 1248.5 -25.5 c 0,6,7
 1204 -41 1204 -41 1175 -41 c 0,8,9
 1160 -41 1160 -41 1146 -33 c 0,10,11
 1132 -25 1132 -25 1120.5 -9.5 c 0,12,13
 1109 6 1109 6 1102 27.5 c 0,14,15
 1095 49 1095 49 1095 76 c 0,16,17
 1095 94 1095 94 1101 133 c 0,18,19
 1107 172 1107 172 1116.5 223.5 c 0,20,21
 1126 275 1126 275 1136.5 334 c 0,22,23
 1147 393 1147 393 1156.5 449.5 c 0,24,25
 1166 506 1166 506 1172 556 c 0,26,27
 1178 606 1178 606 1178 639 c 0,28,29
 1178 678 1178 678 1168 696 c 0,30,31
 1158 714 1158 714 1140 714 c 0,32,33
 1132 714 1132 714 1116.5 710 c 0,34,35
 1101 706 1101 706 1080 693.5 c 0,36,37
 1059 681 1059 681 1034.5 658.5 c 0,38,39
 1010 636 1010 636 985 600 c 0,40,41
 968 576 968 576 955 548 c 0,42,43
 942 520 942 520 931 484 c 0,44,45
 920 448 920 448 911 401.5 c 0,46,47
 902 355 902 355 893 295 c 0,48,49
 880 204 880 204 876.5 151 c 0,50,51
 873 98 873 98 875 75 c 0,52,53
 866 70 866 70 845.5 61 c 0,54,55
 825 52 825 52 799.5 40.5 c 0,56,57
 774 29 774 29 745.5 16.5 c 0,58,59
 717 4 717 4 691.5 -7 c 0,60,61
 666 -18 666 -18 646 -27.5 c 0,62,63
 626 -37 626 -37 617 -41 c 0,64,-1
 575 0 l 0,65,66
 597 102 597 102 616 201 c 0,67,68
 635 300 635 300 649 385.5 c 0,69,70
 663 471 663 471 671 537 c 0,71,72
 679 603 679 603 679 640 c 0,73,74
 679 714 679 714 640 714 c 0,75,76
 634 714 634 714 619.5 710 c 0,77,78
 605 706 605 706 584 694 c 0,79,80
 563 682 563 682 537.5 660 c 0,81,82
 512 638 512 638 486 602 c 0,83,84
 469 578 469 578 455 549 c 0,85,86
 441 520 441 520 429.5 483 c 0,87,88
 418 446 418 446 408.5 399.5 c 0,89,90
 399 353 399 353 390 295 c 0,91,92
 376 204 376 204 370.5 151.5 c 0,93,94
 365 99 365 99 367 75 c 0,95,96
 358 70 358 70 338.5 61 c 0,97,98
 319 52 319 52 293.5 40.5 c 0,99,100
 268 29 268 29 240 16.5 c 0,101,102
 212 4 212 4 186.5 -7 c 0,103,104
 161 -18 161 -18 141.5 -27.5 c 0,105,106
 122 -37 122 -37 114 -41 c 0,107,-1
 71 0 l 0,108,109
 92 106 92 106 110.5 209 c 0,110,111
 129 312 129 312 143 402.5 c 0,112,113
 157 493 157 493 165.5 565 c 0,114,115
 174 637 174 637 174 680 c 0,116,117
 174 703 174 703 171 716.5 c 0,118,119
 168 730 168 730 162.5 737.5 c 0,120,121
 157 745 157 745 150 747 c 0,122,123
 143 749 143 749 135 749 c 0,124,125
 125 749 125 749 109 745 c 0,126,127
 93 741 93 741 77 736 c 0,128,-1
 38 723 l 0,129,-1
 21 802 l 0,130,131
 49 814 49 814 84.5 829 c 0,132,133
 120 844 120 844 157.5 858.5 c 0,134,135
 195 873 195 873 233 887 c 0,136,137
 271 901 271 901 303.5 912 c 0,138,139
 336 923 336 923 361.5 929.5 c 0,140,141
 387 936 387 936 400 936 c 0,142,143
 415 936 415 936 425.5 931 c 0,144,145
 436 926 436 926 442.5 913.5 c 0,146,147
 449 901 449 901 452 878.5 c 0,148,149
 455 856 455 856 455 821 c 0,150,151
 455 807 455 807 453 783.5 c 0,152,153
 451 760 451 760 448 738 c 0,154,155
 507 797 507 797 558 835.5 c 0,156,157
 609 874 609 874 654.5 896.5 c 0,158,159
 700 919 700 919 741.5 927.5 c 0,160,161
 783 936 783 936 824 936 c 0,162,163
 861 936 861 936 887.5 922.5 c 0,164,165
 914 909 914 909 931 886 c 0,166,167
 948 863 948 863 955.5 833 c 0,168,169
 963 803 963 803 963 770 c 0,170,-1
 963 762 l 0,171,172
 963 756 963 756 962 748 c 0,173,174
 1020 803 1020 803 1068 839.5 c 0,175,176
 1116 876 1116 876 1158 897.5 c 0,177,178
 1200 919 1200 919 1237.5 927.5 c 0,179,180
 1275 936 1275 936 1313 936 c 0,181,182
 1342 936 1342 936 1368.5 926.5 c 0,183,184
 1395 917 1395 917 1414.5 896 c 0,185,186
 1434 875 1434 875 1445.5 841.5 c 0,187,188
 1457 808 1457 808 1457 760 c 0,189,190
 1457 703 1457 703 1445 628 c 0,191,192
 1433 553 1433 553 1418 477 c 0,193,194
 1403 401 1403 401 1391 334 c 0,195,196
 1379 267 1379 267 1379 225 c 0,197,198
 1379 191 1379 191 1389 179.5 c 0,199,200
 1399 168 1399 168 1416 168 c 0,201,202
 1445 168 1445 168 1468.5 175.5 c 0,203,204
 1492 183 1492 183 1533 199 c 0,205,-1
 1548 122 l 0,0,1
EndSplineSet
EndChar

StartChar: n
Encoding: 81 110 81
Width: 1103
Flags: W
LayerCount: 2
Fore
SplineSet
1084 122 m 0,0,1
 1039 95 1039 95 985.5 66 c 0,2,3
 932 37 932 37 880.5 13.5 c 0,4,5
 829 -10 829 -10 784.5 -25.5 c 0,6,7
 740 -41 740 -41 713 -41 c 0,8,9
 678 -41 678 -41 653.5 -9.5 c 0,10,11
 629 22 629 22 629 76 c 0,12,13
 629 94 629 94 635 135 c 0,14,15
 641 176 641 176 650 229 c 0,16,17
 659 282 659 282 669 341 c 0,18,19
 679 400 679 400 688 454.5 c 0,20,21
 697 509 697 509 703 553 c 0,22,23
 709 597 709 597 709 620 c 0,24,25
 709 674 709 674 700.5 695 c 0,26,27
 692 716 692 716 663 716 c 0,28,29
 650 716 650 716 629 710 c 0,30,31
 608 704 608 704 583 689 c 0,32,33
 558 674 558 674 530.5 647.5 c 0,34,35
 503 621 503 621 477 580 c 0,36,37
 447 532 447 532 430.5 465 c 0,38,39
 414 398 414 398 397 301 c 0,40,41
 389 256 389 256 384 223.5 c 0,42,43
 379 191 379 191 376.5 165.5 c 0,44,45
 374 140 374 140 373.5 118.5 c 0,46,47
 373 97 373 97 374 75 c 0,48,49
 365 70 365 70 345.5 61 c 0,50,51
 326 52 326 52 300.5 40.5 c 0,52,53
 275 29 275 29 247 16.5 c 0,54,55
 219 4 219 4 193.5 -7 c 0,56,57
 168 -18 168 -18 148.5 -27.5 c 0,58,59
 129 -37 129 -37 121 -41 c 0,60,-1
 78 0 l 0,61,62
 99 100 99 100 117.5 205.5 c 0,63,64
 136 311 136 311 150.5 405.5 c 0,65,66
 165 500 165 500 173.5 573.5 c 0,67,68
 182 647 182 647 182 682 c 0,69,70
 182 705 182 705 179.5 718.5 c 0,71,72
 177 732 177 732 172 738.5 c 0,73,74
 167 745 167 745 160 747 c 0,75,76
 153 749 153 749 144 749 c 0,77,78
 135 749 135 749 119 745 c 0,79,80
 103 741 103 741 87 736 c 0,81,82
 69 730 69 730 47 723 c 0,83,-1
 27 802 l 0,84,85
 55 814 55 814 91.5 829 c 0,86,87
 128 844 128 844 167 858.5 c 0,88,89
 206 873 206 873 245 887 c 0,90,91
 284 901 284 901 317.5 912 c 0,92,93
 351 923 351 923 375.5 929.5 c 0,94,95
 400 936 400 936 411 936 c 0,96,97
 425 936 425 936 434.5 931.5 c 0,98,99
 444 927 444 927 449.5 915 c 0,100,101
 455 903 455 903 457.5 881 c 0,102,103
 460 859 460 859 460 823 c 0,104,105
 460 802 460 802 459 782.5 c 0,106,107
 458 763 458 763 455 738 c 0,108,109
 564 838 564 838 669 887 c 0,110,111
 774 936 774 936 864 936 c 0,112,113
 895 936 895 936 920 930 c 0,114,115
 945 924 945 924 962.5 907.5 c 0,116,117
 980 891 980 891 989 860.5 c 0,118,119
 998 830 998 830 998 782 c 0,120,121
 998 747 998 747 992 700 c 0,122,123
 986 653 986 653 976.5 600.5 c 0,124,125
 967 548 967 548 956 493 c 0,126,127
 945 438 945 438 935.5 388 c 0,128,129
 926 338 926 338 920 295.5 c 0,130,131
 914 253 914 253 914 225 c 0,132,133
 914 191 914 191 923 178.5 c 0,134,135
 932 166 932 166 950 166 c 0,136,137
 962 166 962 166 972 168 c 0,138,139
 982 170 982 170 993 174 c 0,140,141
 1004 178 1004 178 1018.5 184 c 0,142,143
 1033 190 1033 190 1054 199 c 0,144,-1
 1084 122 l 0,0,1
EndSplineSet
EndChar

StartChar: o
Encoding: 82 111 82
Width: 924
Flags: W
LayerCount: 2
Fore
SplineSet
891 559 m 0,0,1
 891 492 891 492 873 423.5 c 0,2,3
 855 355 855 355 822.5 290.5 c 0,4,5
 790 226 790 226 744 167.5 c 0,6,7
 698 109 698 109 642 63 c 0,8,9
 616 42 616 42 583 23 c 0,10,11
 550 4 550 4 515 -10.5 c 0,12,13
 480 -25 480 -25 445.5 -33 c 0,14,15
 411 -41 411 -41 381 -41 c 0,16,17
 300 -41 300 -41 235.5 -11.5 c 0,18,19
 171 18 171 18 126 69.5 c 0,20,21
 81 121 81 121 57 191.5 c 0,22,23
 33 262 33 262 33 344 c 0,24,25
 33 487 33 487 93 612.5 c 0,26,27
 153 738 153 738 287 840 c 0,28,29
 313 860 313 860 345.5 877.5 c 0,30,31
 378 895 378 895 413.5 908 c 0,32,33
 449 921 449 921 485.5 928.5 c 0,34,35
 522 936 522 936 557 936 c 0,36,37
 635 936 635 936 697 908 c 0,38,39
 759 880 759 880 802 830 c 0,40,41
 845 780 845 780 868 711 c 0,42,43
 891 642 891 642 891 559 c 0,0,1
628 473 m 0,44,45
 628 549 628 549 615.5 608 c 0,46,47
 603 667 603 667 583 707 c 0,48,49
 563 747 563 747 538 768 c 0,50,51
 513 789 513 789 488 789 c 0,52,53
 434 789 434 789 397.5 756.5 c 0,54,55
 361 724 361 724 338.5 672 c 0,56,57
 316 620 316 620 306.5 556 c 0,58,59
 297 492 297 492 297 428 c 0,60,61
 297 361 297 361 310.5 302 c 0,62,63
 324 243 324 243 345.5 198.5 c 0,64,65
 367 154 367 154 394.5 128 c 0,66,67
 422 102 422 102 449 102 c 0,68,69
 499 102 499 102 533.5 137 c 0,70,71
 568 172 568 172 589 226 c 0,72,73
 610 280 610 280 619 345.5 c 0,74,75
 628 411 628 411 628 473 c 0,44,45
EndSplineSet
EndChar

StartChar: p
Encoding: 83 112 83
Width: 1045
Flags: W
LayerCount: 2
Fore
SplineSet
448 870 m 0,0,1
 448 851 448 851 445 822.5 c 0,2,3
 442 794 442 794 437 754 c 0,4,5
 489 809 489 809 532 844 c 0,6,7
 575 879 575 879 613.5 899.5 c 0,8,9
 652 920 652 920 686.5 928 c 0,10,11
 721 936 721 936 756 936 c 0,12,13
 802 936 802 936 843.5 916 c 0,14,15
 885 896 885 896 916.5 856.5 c 0,16,17
 948 817 948 817 966.5 759.5 c 0,18,19
 985 702 985 702 985 627 c 0,20,21
 985 565 985 565 973 500 c 0,22,23
 961 435 961 435 941.5 372.5 c 0,24,25
 922 310 922 310 897 255 c 0,26,27
 872 200 872 200 846 158 c 0,28,29
 823 122 823 122 794 86 c 0,30,31
 765 50 765 50 731.5 22 c 0,32,33
 698 -6 698 -6 660 -23.5 c 0,34,35
 622 -41 622 -41 582 -41 c 0,36,37
 559 -41 559 -41 529.5 -31 c 0,38,39
 500 -21 500 -21 467.5 0 c 0,40,41
 435 21 435 21 401 53 c 0,42,43
 367 85 367 85 335 129 c 0,44,-1
 315 6 l 0,45,46
 298 -97 298 -97 288 -167.5 c 0,47,48
 278 -238 278 -238 273.5 -284.5 c 0,49,50
 269 -331 269 -331 270 -357 c 0,51,52
 271 -383 271 -383 276 -397 c 0,53,54
 266 -400 266 -400 245.5 -407 c 0,55,56
 225 -414 225 -414 199 -424.5 c 0,57,58
 173 -435 173 -435 144.5 -446.5 c 0,59,60
 116 -458 116 -458 90.5 -468.5 c 0,61,62
 65 -479 65 -479 45 -487.5 c 0,63,64
 25 -496 25 -496 16 -500 c 0,65,-1
 -26 -461 l 0,66,67
 -22 -432 -22 -432 -12 -375 c 0,68,69
 -2 -318 -2 -318 11.5 -242 c 0,70,71
 25 -166 25 -166 41.5 -77.5 c 0,72,73
 58 11 58 11 74.5 103 c 0,74,75
 91 195 91 195 106.5 284.5 c 0,76,77
 122 374 122 374 134 451.5 c 0,78,79
 146 529 146 529 153 588.5 c 0,80,81
 160 648 160 648 160 680 c 0,82,83
 160 703 160 703 156 716.5 c 0,84,85
 152 730 152 730 145 736.5 c 0,86,87
 138 743 138 743 130 745 c 0,88,89
 122 747 122 747 113 747 c 0,90,91
 104 747 104 747 88.5 743.5 c 0,92,93
 73 740 73 740 59 735 c 0,94,95
 41 730 41 730 23 723 c 0,96,-1
 4 800 l 0,97,98
 49 821 49 821 107.5 845 c 0,99,100
 166 869 166 869 222.5 889.5 c 0,101,102
 279 910 279 910 325 923 c 0,103,104
 371 936 371 936 391 936 c 0,105,106
 419 936 419 936 433.5 922.5 c 0,107,108
 448 909 448 909 448 870 c 0,0,1
630 745 m 0,109,110
 615 745 615 745 589.5 731.5 c 0,111,112
 564 718 564 718 533 691 c 0,113,114
 502 664 502 664 467.5 623.5 c 0,115,116
 433 583 433 583 402 529 c 0,117,118
 394 476 394 476 383 414 c 0,119,120
 372 352 372 352 360 280 c 0,121,122
 378 257 378 257 403.5 238 c 0,123,124
 429 219 429 219 456.5 205 c 0,125,126
 484 191 484 191 510 183.5 c 0,127,128
 536 176 536 176 556 176 c 0,129,130
 595 176 595 176 626 200 c 0,131,132
 657 224 657 224 674 259 c 0,133,134
 695 304 695 304 707 373 c 0,135,136
 719 442 719 442 719 522 c 0,137,138
 719 570 719 570 711.5 610.5 c 0,139,140
 704 651 704 651 691 681 c 0,141,142
 678 711 678 711 662 728 c 0,143,144
 646 745 646 745 630 745 c 0,109,110
EndSplineSet
EndChar

StartChar: q
Encoding: 84 113 84
Width: 973
Flags: W
LayerCount: 2
Fore
SplineSet
970 861 m 0,0,1
 953 847 953 847 940 836 c 0,2,3
 927 825 927 825 917.5 810.5 c 0,4,5
 908 796 908 796 900 775 c 0,6,7
 892 754 892 754 886 720 c 0,8,9
 864 587 864 587 843 459 c 0,10,11
 822 331 822 331 804 214 c 0,12,13
 786 97 786 97 772 -4.5 c 0,14,15
 758 -106 758 -106 751 -186 c 0,16,17
 744 -266 744 -266 744.5 -320.5 c 0,18,19
 745 -375 745 -375 756 -397 c 0,20,21
 747 -400 747 -400 726.5 -407.5 c 0,22,23
 706 -415 706 -415 679.5 -425.5 c 0,24,25
 653 -436 653 -436 623.5 -447 c 0,26,27
 594 -458 594 -458 568 -468.5 c 0,28,29
 542 -479 542 -479 521.5 -487.5 c 0,30,31
 501 -496 501 -496 493 -500 c 0,32,-1
 448 -461 l 0,33,34
 452 -428 452 -428 461 -369 c 0,35,36
 470 -310 470 -310 482.5 -231.5 c 0,37,38
 495 -153 495 -153 510 -59 c 0,39,40
 525 35 525 35 542 137 c 0,41,42
 497 86 497 86 459.5 52 c 0,43,44
 422 18 422 18 389.5 -3 c 0,45,46
 357 -24 357 -24 327 -32.5 c 0,47,48
 297 -41 297 -41 266 -41 c 0,49,50
 229 -41 229 -41 188 -22 c 0,51,52
 147 -3 147 -3 112.5 38.5 c 0,53,54
 78 80 78 80 55.5 145.5 c 0,55,56
 33 211 33 211 33 305 c 0,57,58
 33 384 33 384 53.5 460.5 c 0,59,60
 74 537 74 537 113 606.5 c 0,61,62
 152 676 152 676 207.5 736 c 0,63,64
 263 796 263 796 334 842 c 0,65,66
 362 860 362 860 400 877 c 0,67,68
 438 894 438 894 479 907 c 0,69,70
 520 920 520 920 560 928 c 0,71,72
 600 936 600 936 632 936 c 0,73,74
 674 936 674 936 716 916.5 c 0,75,76
 758 897 758 897 795 873 c 0,77,78
 832 891 832 891 868.5 907 c 0,79,80
 905 923 905 923 932 936 c 0,81,-1
 970 861 l 0,0,1
378 176 m 0,82,83
 389 176 389 176 406.5 184.5 c 0,84,85
 424 193 424 193 449 214.5 c 0,86,87
 474 236 474 236 506.5 272 c 0,88,89
 539 308 539 308 580 363 c 0,90,-1
 637 710 l 0,91,92
 608 738 608 738 578.5 759.5 c 0,93,94
 549 781 549 781 522 781 c 0,95,96
 481 781 481 781 447.5 762 c 0,97,98
 414 743 414 743 387.5 711.5 c 0,99,100
 361 680 361 680 341 639 c 0,101,102
 321 598 321 598 308 553.5 c 0,103,104
 295 509 295 509 288.5 463.5 c 0,105,106
 282 418 282 418 282 379 c 0,107,108
 282 326 282 326 290 287.5 c 0,109,110
 298 249 298 249 311.5 224 c 0,111,112
 325 199 325 199 342.5 187.5 c 0,113,114
 360 176 360 176 378 176 c 0,82,83
EndSplineSet
EndChar

StartChar: r
Encoding: 85 114 85
Width: 872
Flags: W
LayerCount: 2
Fore
SplineSet
933 850 m 0,0,1
 925 839 925 839 912 817.5 c 0,2,3
 899 796 899 796 884 770 c 0,4,5
 869 744 869 744 852.5 716.5 c 0,6,7
 836 689 836 689 821.5 666.5 c 0,8,9
 807 644 807 644 795 629.5 c 0,10,11
 783 615 783 615 777 615 c 0,12,13
 758 615 758 615 740 627.5 c 0,14,15
 722 640 722 640 704.5 654.5 c 0,16,17
 687 669 687 669 671 681.5 c 0,18,19
 655 694 655 694 640 694 c 0,20,21
 614 694 614 694 582.5 672.5 c 0,22,23
 551 651 551 651 520 610.5 c 0,24,25
 489 570 489 570 461 512.5 c 0,26,27
 433 455 433 455 412 383 c 0,28,29
 391 308 391 308 377.5 231.5 c 0,30,31
 364 155 364 155 367 75 c 0,32,33
 350 68 350 68 313 51.5 c 0,34,35
 276 35 276 35 236 16.5 c 0,36,37
 196 -2 196 -2 161 -18 c 0,38,39
 126 -34 126 -34 114 -41 c 0,40,-1
 71 0 l 0,41,42
 93 106 93 106 112 209 c 0,43,44
 131 312 131 312 144.5 401.5 c 0,45,46
 158 491 158 491 166 563 c 0,47,48
 174 635 174 635 174 680 c 0,49,50
 174 703 174 703 170.5 716.5 c 0,51,52
 167 730 167 730 161.5 736.5 c 0,53,54
 156 743 156 743 148.5 745 c 0,55,56
 141 747 141 747 133 747 c 0,57,58
 123 747 123 747 107.5 743.5 c 0,59,60
 92 740 92 740 77 735 c 0,61,62
 59 730 59 730 40 723 c 0,63,-1
 21 800 l 0,64,65
 49 813 49 813 85 828 c 0,66,67
 121 843 121 843 159 858 c 0,68,69
 197 873 197 873 235 887 c 0,70,71
 273 901 273 901 306 912 c 0,72,73
 339 923 339 923 365 929.5 c 0,74,75
 391 936 391 936 404 936 c 0,76,77
 432 936 432 936 442.5 916 c 0,78,79
 453 896 453 896 453 841 c 0,80,81
 453 830 453 830 452 813.5 c 0,82,83
 451 797 451 797 448.5 777.5 c 0,84,85
 446 758 446 758 443.5 737.5 c 0,86,87
 441 717 441 717 438 698 c 0,88,89
 486 770 486 770 527.5 816.5 c 0,90,91
 569 863 569 863 605.5 889.5 c 0,92,93
 642 916 642 916 675 926 c 0,94,95
 708 936 708 936 740 936 c 0,96,97
 758 936 758 936 782 926 c 0,98,99
 806 916 806 916 832 902 c 0,100,101
 858 888 858 888 884.5 873.5 c 0,102,103
 911 859 911 859 933 850 c 0,0,1
EndSplineSet
EndChar

StartChar: s
Encoding: 86 115 86
Width: 811
Flags: W
LayerCount: 2
Fore
SplineSet
818 844 m 0,0,1
 802 821 802 821 779.5 791.5 c 0,2,3
 757 762 757 762 734.5 735 c 0,4,5
 712 708 712 708 692 689.5 c 0,6,7
 672 671 672 671 661 671 c 0,8,9
 644 671 644 671 623 693 c 0,10,11
 602 715 602 715 575.5 741.5 c 0,12,13
 549 768 549 768 518 790 c 0,14,15
 487 812 487 812 450 812 c 0,16,17
 394 812 394 812 371 786.5 c 0,18,19
 348 761 348 761 348 719 c 0,20,21
 348 694 348 694 359 673.5 c 0,22,23
 370 653 370 653 391.5 634.5 c 0,24,25
 413 616 413 616 444.5 598 c 0,26,27
 476 580 476 580 516 559 c 0,28,29
 557 538 557 538 596.5 513 c 0,30,31
 636 488 636 488 666.5 455.5 c 0,32,33
 697 423 697 423 716 382.5 c 0,34,35
 735 342 735 342 735 289 c 0,36,37
 735 243 735 243 714.5 200.5 c 0,38,39
 694 158 694 158 659 121.5 c 0,40,41
 624 85 624 85 578.5 55 c 0,42,43
 533 25 533 25 484 3.5 c 0,44,45
 435 -18 435 -18 385 -29.5 c 0,46,47
 335 -41 335 -41 292 -41 c 0,48,49
 223 -41 223 -41 165 -24 c 0,50,51
 107 -7 107 -7 65 17.5 c 0,52,53
 23 42 23 42 -0.5 69.5 c 0,54,55
 -24 97 -24 97 -24 118 c 0,56,57
 -24 133 -24 133 -9 166.5 c 0,58,59
 6 200 6 200 26.5 235 c 0,60,61
 47 270 47 270 67 296.5 c 0,62,63
 87 323 87 323 98 323 c 0,64,65
 107 323 107 323 118 306 c 0,66,67
 129 289 129 289 143.5 264 c 0,68,69
 158 239 158 239 176.5 209 c 0,70,71
 195 179 195 179 220.5 154 c 0,72,73
 246 129 246 129 278 112 c 0,74,75
 310 95 310 95 352 95 c 0,76,77
 415 95 415 95 449.5 127 c 0,78,79
 484 159 484 159 484 213 c 0,80,81
 484 246 484 246 466.5 274.5 c 0,82,83
 449 303 449 303 420 328 c 0,84,85
 391 353 391 353 354.5 374.5 c 0,86,87
 318 396 318 396 281 416 c 0,88,89
 228 443 228 443 193.5 471.5 c 0,90,91
 159 500 159 500 139 529.5 c 0,92,93
 119 559 119 559 111 590 c 0,94,95
 103 621 103 621 103 653 c 0,96,97
 103 716 103 716 142 768 c 0,98,99
 181 820 181 820 240 857.5 c 0,100,101
 299 895 299 895 369.5 915.5 c 0,102,103
 440 936 440 936 503 936 c 0,104,105
 557 936 557 936 600.5 923.5 c 0,106,107
 644 911 644 911 681 895.5 c 0,108,109
 718 880 718 880 751 865 c 0,110,111
 784 850 784 850 818 844 c 0,0,1
EndSplineSet
EndChar

StartChar: t
Encoding: 87 116 87
Width: 714
Flags: W
LayerCount: 2
Fore
SplineSet
690 167 m 0,0,1
 633 122 633 122 576 83.5 c 0,2,3
 519 45 519 45 466.5 17.5 c 0,4,5
 414 -10 414 -10 370.5 -25.5 c 0,6,7
 327 -41 327 -41 297 -41 c 0,8,9
 265 -41 265 -41 232 -26 c 0,10,11
 199 -11 199 -11 172.5 15.5 c 0,12,13
 146 42 146 42 129 79 c 0,14,15
 112 116 112 116 112 160 c 0,16,17
 112 179 112 179 112.5 198 c 0,18,19
 113 217 113 217 114.5 237.5 c 0,20,21
 116 258 116 258 118.5 281 c 0,22,23
 121 304 121 304 126 332 c 0,24,-1
 196 775 l 0,25,-1
 64 775 l 0,26,-1
 39 816 l 0,27,-1
 165 905 l 0,28,-1
 217 905 l 0,29,-1
 223 940 l 0,30,31
 229 981 229 981 235.5 1003 c 0,32,33
 242 1025 242 1025 250.5 1037.5 c 0,34,35
 259 1050 259 1050 269 1057 c 0,36,37
 279 1064 279 1064 292 1074 c 0,38,-1
 513 1176 l 0,39,-1
 541 1151 l 0,40,41
 533 1142 533 1142 525 1119 c 0,42,43
 517 1099 517 1099 508.5 1062 c 0,44,45
 500 1025 500 1025 490 963 c 0,46,-1
 480 905 l 0,47,-1
 720 905 l 0,48,-1
 750 867 l 0,49,50
 740 853 740 853 720 832 c 0,51,52
 700 811 700 811 678 790 c 0,53,54
 656 769 656 769 636.5 752 c 0,55,56
 617 735 617 735 608 730 c 0,57,58
 596 758 596 758 560.5 766.5 c 0,59,60
 525 775 525 775 465 775 c 0,61,-1
 460 775 l 0,62,-1
 408 446 l 0,63,64
 405 427 405 427 402.5 405.5 c 0,65,66
 400 384 400 384 398.5 364.5 c 0,67,68
 397 345 397 345 396.5 328 c 0,69,70
 396 311 396 311 396 301 c 0,71,72
 396 239 396 239 413 214.5 c 0,73,74
 430 190 430 190 458 190 c 0,75,76
 493 190 493 190 539 205 c 0,77,78
 585 220 585 220 660 254 c 0,79,-1
 690 167 l 0,0,1
EndSplineSet
EndChar

StartChar: u
Encoding: 88 117 88
Width: 1127
Flags: W
LayerCount: 2
Fore
SplineSet
1100 118 m 0,0,1
 1060 91 1060 91 1017.5 63 c 0,2,3
 975 35 975 35 935 11.5 c 0,4,5
 895 -12 895 -12 859.5 -26.5 c 0,6,7
 824 -41 824 -41 798 -41 c 0,8,9
 775 -41 775 -41 751.5 -27 c 0,10,11
 728 -13 728 -13 708 15 c 0,12,13
 688 43 688 43 673 85 c 0,14,15
 658 127 658 127 652 182 c 0,16,17
 614 134 614 134 569.5 93 c 0,18,19
 525 52 525 52 477.5 22.5 c 0,20,21
 430 -7 430 -7 383 -24 c 0,22,23
 336 -41 336 -41 293 -41 c 0,24,25
 262 -41 262 -41 229 -25.5 c 0,26,27
 196 -10 196 -10 168.5 21 c 0,28,29
 141 52 141 52 123.5 98 c 0,30,31
 106 144 106 144 106 205 c 0,32,33
 106 235 106 235 110.5 275 c 0,34,35
 115 315 115 315 122.5 359.5 c 0,36,37
 130 404 130 404 138 450.5 c 0,38,39
 146 497 146 497 153.5 540 c 0,40,41
 161 583 161 583 165.5 619.5 c 0,42,43
 170 656 170 656 170 680 c 0,44,45
 170 703 170 703 167 716.5 c 0,46,47
 164 730 164 730 158.5 736.5 c 0,48,49
 153 743 153 743 145.5 745 c 0,50,51
 138 747 138 747 129 747 c 0,52,53
 120 747 120 747 104.5 743.5 c 0,54,55
 89 740 89 740 74 735 c 0,56,57
 56 730 56 730 36 723 c 0,58,-1
 19 800 l 0,59,60
 47 813 47 813 83.5 828 c 0,61,62
 120 843 120 843 159 858 c 0,63,64
 198 873 198 873 237 887 c 0,65,66
 276 901 276 901 310 912 c 0,67,68
 344 923 344 923 370.5 929.5 c 0,69,70
 397 936 397 936 410 936 c 0,71,72
 439 936 439 936 449 917 c 0,73,74
 459 898 459 898 459 852 c 0,75,76
 459 823 459 823 453 776.5 c 0,77,78
 447 730 447 730 438 675.5 c 0,79,80
 429 621 429 621 419 562 c 0,81,82
 409 503 409 503 400 448.5 c 0,83,84
 391 394 391 394 385 347.5 c 0,85,86
 379 301 379 301 379 272 c 0,87,88
 379 229 379 229 394.5 204.5 c 0,89,90
 410 180 410 180 424 180 c 0,91,92
 456 180 456 180 517.5 229.5 c 0,93,94
 579 279 579 279 662 390 c 0,95,96
 668 430 668 430 675.5 472 c 0,97,98
 683 514 683 514 689 552.5 c 0,99,100
 695 591 695 591 699.5 624 c 0,101,102
 704 657 704 657 704 680 c 0,103,104
 704 703 704 703 701.5 716.5 c 0,105,106
 699 730 699 730 694 736.5 c 0,107,108
 689 743 689 743 682.5 745 c 0,109,110
 676 747 676 747 667 747 c 0,111,112
 658 747 658 747 644 743.5 c 0,113,114
 630 740 630 740 616 735 c 0,115,116
 600 730 600 730 583 723 c 0,117,-1
 563 800 l 0,118,119
 591 813 591 813 626.5 828 c 0,120,121
 662 843 662 843 700.5 858 c 0,122,123
 739 873 739 873 777 887 c 0,124,125
 815 901 815 901 848 912 c 0,126,127
 881 923 881 923 907 929.5 c 0,128,129
 933 936 933 936 946 936 c 0,130,131
 974 936 974 936 983 917 c 0,132,133
 992 898 992 898 992 852 c 0,134,135
 992 823 992 823 987 781.5 c 0,136,137
 982 740 982 740 974 692 c 0,138,-1
 957 593 l 0,139,140
 949 542 949 542 941 493 c 0,141,142
 933 444 933 444 928 400.5 c 0,143,144
 923 357 923 357 923 324 c 0,145,146
 923 279 923 279 926.5 248.5 c 0,147,148
 930 218 930 218 937 199.5 c 0,149,150
 944 181 944 181 954 173.5 c 0,151,152
 964 166 964 166 976 166 c 0,153,154
 1002 166 1002 166 1023.5 172.5 c 0,155,156
 1045 179 1045 179 1081 194 c 0,157,-1
 1100 118 l 0,0,1
EndSplineSet
EndChar

StartChar: v
Encoding: 89 118 89
Width: 998
Flags: W
LayerCount: 2
Fore
SplineSet
998 852 m 0,0,1
 998 820 998 820 975 765 c 0,2,3
 952 710 952 710 899.5 617 c 0,4,5
 847 524 847 524 763 386.5 c 0,6,7
 679 249 679 249 556 52 c 0,8,9
 547 47 547 47 520.5 34 c 0,10,11
 494 21 494 21 463 5.5 c 0,12,13
 432 -10 432 -10 404.5 -23.5 c 0,14,15
 377 -37 377 -37 367 -41 c 0,16,-1
 325 0 l 0,17,18
 317 56 317 56 307 118 c 0,19,20
 297 180 297 180 285.5 242.5 c 0,21,22
 274 305 274 305 261.5 366 c 0,23,24
 249 427 249 427 237 481 c 0,25,26
 225 535 225 535 214 580 c 0,27,28
 203 625 203 625 194 655 c 0,29,30
 186 682 186 682 177 698 c 0,31,32
 168 714 168 714 158.5 723 c 0,33,34
 149 732 149 732 140 734.5 c 0,35,36
 131 737 131 737 122 737 c 0,37,38
 112 737 112 737 96 733.5 c 0,39,40
 80 730 80 730 64 725 c 0,41,42
 46 720 46 720 24 713 c 0,43,-1
 -4 790 l 0,44,45
 38 812 38 812 89.5 837.5 c 0,46,47
 141 863 141 863 189 885 c 0,48,49
 237 907 237 907 275.5 921.5 c 0,50,51
 314 936 314 936 330 936 c 0,52,53
 359 936 359 936 378.5 907.5 c 0,54,55
 398 879 398 879 420 809 c 0,56,57
 428 783 428 783 439 736.5 c 0,58,59
 450 690 450 690 461.5 633.5 c 0,60,61
 473 577 473 577 484.5 516.5 c 0,62,63
 496 456 496 456 505 404 c 0,64,65
 514 352 514 352 520.5 313.5 c 0,66,67
 527 275 527 275 528 262 c 0,68,69
 595 367 595 367 633.5 444 c 0,70,71
 672 521 672 521 691 573.5 c 0,72,73
 710 626 710 626 714.5 656 c 0,74,75
 719 686 719 686 719 697 c 0,76,77
 719 724 719 724 707 736 c 0,78,79
 695 748 695 748 667 748 c 0,80,81
 650 748 650 748 634.5 744.5 c 0,82,83
 619 741 619 741 597 733 c 0,84,-1
 574 808 l 0,85,86
 606 826 606 826 654 849 c 0,87,88
 702 872 702 872 751.5 891.5 c 0,89,90
 801 911 801 911 845.5 924 c 0,91,92
 890 937 890 937 914 936 c 0,93,94
 931 935 931 935 946.5 931 c 0,95,96
 962 927 962 927 973.5 917 c 0,97,98
 985 907 985 907 991.5 891.5 c 0,99,100
 998 876 998 876 998 852 c 0,0,1
EndSplineSet
EndChar

StartChar: w
Encoding: 90 119 90
Width: 1420
Flags: W
LayerCount: 2
Fore
SplineSet
1428 860 m 0,0,1
 1428 833 1428 833 1420.5 802 c 0,2,3
 1413 771 1413 771 1395.5 728 c 0,4,5
 1378 685 1378 685 1349 627 c 0,6,7
 1320 569 1320 569 1276.5 489 c 0,8,9
 1233 409 1233 409 1174.5 303 c 0,10,11
 1116 197 1116 197 1039 58 c 0,12,13
 1033 55 1033 55 1018.5 47.5 c 0,14,15
 1004 40 1004 40 985.5 30 c 0,16,17
 967 20 967 20 946 8.5 c 0,18,19
 925 -3 925 -3 905.5 -13 c 0,20,21
 886 -23 886 -23 871 -30 c 0,22,-1
 850 -41 l 0,23,-1
 807 0 l 0,24,25
 785 170 785 170 763.5 303.5 c 0,26,27
 742 437 742 437 716 530 c 0,28,29
 693 456 693 456 643.5 343.5 c 0,30,31
 594 231 594 231 504 70 c 0,32,33
 498 67 498 67 482.5 58.5 c 0,34,35
 467 50 467 50 446 38.5 c 0,36,37
 425 27 425 27 401 14.5 c 0,38,39
 377 2 377 2 356 -9.5 c 0,40,41
 335 -21 335 -21 318.5 -29.5 c 0,42,43
 302 -38 302 -38 295 -41 c 0,44,-1
 253 0 l 0,45,46
 247 57 247 57 240.5 123 c 0,47,48
 234 189 234 189 227 256.5 c 0,49,50
 220 324 220 324 212.5 389 c 0,51,52
 205 454 205 454 199 507.5 c 0,53,54
 193 561 193 561 187.5 600 c 0,55,56
 182 639 182 639 178 655 c 0,57,58
 172 682 172 682 163.5 698 c 0,59,60
 155 714 155 714 145.5 723 c 0,61,62
 136 732 136 732 126 734.5 c 0,63,64
 116 737 116 737 107 737 c 0,65,66
 98 737 98 737 82 733.5 c 0,67,68
 66 730 66 730 49 725 c 0,69,70
 30 720 30 720 8 713 c 0,71,-1
 -16 790 l 0,72,73
 27 814 27 814 79.5 839.5 c 0,74,75
 132 865 132 865 180.5 886.5 c 0,76,77
 229 908 229 908 268 922 c 0,78,79
 307 936 307 936 324 936 c 0,80,81
 352 936 352 936 366.5 903.5 c 0,82,83
 381 871 381 871 397 799 c 0,84,85
 401 780 401 780 407 741.5 c 0,86,87
 413 703 413 703 419.5 654.5 c 0,88,89
 426 606 426 606 432.5 552 c 0,90,91
 439 498 439 498 444.5 447.5 c 0,92,93
 450 397 450 397 454 355 c 0,94,95
 458 313 458 313 460 288 c 0,96,97
 500 366 500 366 533 442.5 c 0,98,99
 566 519 566 519 590 587 c 0,100,101
 614 655 614 655 627.5 711 c 0,102,103
 641 767 641 767 643 804 c 0,104,105
 665 825 665 825 696 848 c 0,106,107
 727 871 727 871 759 890.5 c 0,108,109
 791 910 791 910 819.5 923 c 0,110,111
 848 936 848 936 865 936 c 0,112,113
 869 936 869 936 875.5 919.5 c 0,114,115
 882 903 882 903 890 876 c 0,116,117
 898 849 898 849 907 813.5 c 0,118,119
 916 778 916 778 924.5 741 c 0,120,121
 933 704 933 704 940.5 667 c 0,122,123
 948 630 948 630 953 600 c 0,124,125
 968 506 968 506 983 422.5 c 0,126,127
 998 339 998 339 1004 277 c 0,128,129
 1048 355 1048 355 1085.5 424 c 0,130,131
 1123 493 1123 493 1150 549 c 0,132,133
 1177 605 1177 605 1192 648.5 c 0,134,135
 1207 692 1207 692 1207 719 c 0,136,137
 1207 740 1207 740 1192.5 752 c 0,138,139
 1178 764 1178 764 1152 764 c 0,140,141
 1138 764 1138 764 1113 760 c 0,142,143
 1088 756 1088 756 1066 749 c 0,144,-1
 1038 826 l 0,145,146
 1076 850 1076 850 1119 870 c 0,147,148
 1162 890 1162 890 1203.5 905 c 0,149,150
 1245 920 1245 920 1281.5 928 c 0,151,152
 1318 936 1318 936 1344 936 c 0,153,154
 1361 936 1361 936 1376 933.5 c 0,155,156
 1391 931 1391 931 1402.5 923 c 0,157,158
 1414 915 1414 915 1421 900 c 0,159,160
 1428 885 1428 885 1428 860 c 0,0,1
EndSplineSet
EndChar

StartChar: x
Encoding: 91 120 91
Width: 961
Flags: W
LayerCount: 2
Fore
SplineSet
947 112 m 0,0,1
 904 82 904 82 860.5 54.5 c 0,2,3
 817 27 817 27 776.5 5.5 c 0,4,5
 736 -16 736 -16 700.5 -28.5 c 0,6,7
 665 -41 665 -41 638 -41 c 0,8,9
 611 -41 611 -41 584 -17.5 c 0,10,11
 557 6 557 6 530.5 46.5 c 0,12,13
 504 87 504 87 478 140.5 c 0,14,15
 452 194 452 194 427 254 c 0,16,17
 392 203 392 203 350 142.5 c 0,18,19
 308 82 308 82 260 10 c 0,20,21
 248 8 248 8 226 5 c 0,22,23
 204 2 204 2 177.5 -2.5 c 0,24,25
 151 -7 151 -7 122 -12.5 c 0,26,27
 93 -18 93 -18 66.5 -23 c 0,28,29
 40 -28 40 -28 18 -33 c 0,30,31
 -4 -38 -4 -38 -16 -41 c 0,32,-1
 -49 4 l 0,33,34
 -6 42 -6 42 47.5 89.5 c 0,35,36
 101 137 101 137 156.5 189.5 c 0,37,38
 212 242 212 242 266.5 296.5 c 0,39,40
 321 351 321 351 367 402 c 0,41,42
 340 469 340 469 314.5 531.5 c 0,43,44
 289 594 289 594 264.5 642 c 0,45,46
 240 690 240 690 216.5 718.5 c 0,47,48
 193 747 193 747 171 747 c 0,49,50
 162 747 162 747 141 743 c 0,51,52
 120 739 120 739 97 734 c 0,53,54
 71 728 71 728 41 721 c 0,55,-1
 17 800 l 0,56,57
 59 822 59 822 107.5 846 c 0,58,59
 156 870 156 870 200.5 890 c 0,60,61
 245 910 245 910 281.5 923 c 0,62,63
 318 936 318 936 336 936 c 0,64,65
 361 936 361 936 388 907 c 0,66,67
 415 878 415 878 442.5 830 c 0,68,69
 470 782 470 782 497.5 719.5 c 0,70,71
 525 657 525 657 553 590 c 0,72,73
 582 627 582 627 606 660.5 c 0,74,75
 630 694 630 694 647 720 c 0,76,77
 664 746 664 746 673.5 764 c 0,78,79
 683 782 683 782 683 788 c 0,80,81
 683 809 683 809 657 818 c 0,82,83
 631 827 631 827 566 820 c 0,84,-1
 560 901 l 0,85,86
 593 908 593 908 634.5 914 c 0,87,88
 676 920 676 920 717.5 925 c 0,89,90
 759 930 759 930 796 933 c 0,91,92
 833 936 833 936 857 936 c 0,93,94
 920 936 920 936 946.5 920 c 0,95,96
 973 904 973 904 973 883 c 0,97,98
 973 845 973 845 880.5 741 c 0,99,100
 788 637 788 637 608 454 c 0,101,102
 633 394 633 394 657 340 c 0,103,104
 681 286 681 286 703.5 245 c 0,105,106
 726 204 726 204 747.5 180 c 0,107,108
 769 156 769 156 789 156 c 0,109,110
 812 156 812 156 847.5 163 c 0,111,112
 883 170 883 170 920 189 c 0,113,-1
 947 112 l 0,0,1
EndSplineSet
EndChar

StartChar: y
Encoding: 92 121 92
Width: 996
Flags: W
LayerCount: 2
Fore
SplineSet
983 860 m 0,0,1
 983 826 983 826 954 749.5 c 0,2,3
 925 673 925 673 875.5 568.5 c 0,4,5
 826 464 826 464 761.5 338.5 c 0,6,7
 697 213 697 213 625 82 c 0,8,9
 555 -47 555 -47 487.5 -154 c 0,10,11
 420 -261 420 -261 349 -338 c 0,12,13
 278 -415 278 -415 200.5 -457.5 c 0,14,15
 123 -500 123 -500 34 -500 c 0,16,17
 -7 -500 -7 -500 -49 -488.5 c 0,18,19
 -91 -477 -91 -477 -125 -461.5 c 0,20,21
 -159 -446 -159 -446 -180 -428.5 c 0,22,23
 -201 -411 -201 -411 -201 -399 c 0,24,25
 -201 -384 -201 -384 -182 -352 c 0,26,27
 -163 -320 -163 -320 -137.5 -286.5 c 0,28,29
 -112 -253 -112 -253 -86.5 -225.5 c 0,30,31
 -61 -198 -61 -198 -47 -191 c 0,32,33
 -23 -215 -23 -215 3 -234.5 c 0,34,35
 29 -254 29 -254 54.5 -267 c 0,36,37
 80 -280 80 -280 104 -287 c 0,38,39
 128 -294 128 -294 146 -294 c 0,40,41
 195 -294 195 -294 249.5 -241.5 c 0,42,43
 304 -189 304 -189 367 -90 c 0,44,45
 356 -31 356 -31 340.5 39.5 c 0,46,47
 325 110 325 110 307 184 c 0,48,49
 289 258 289 258 269 331 c 0,50,51
 249 404 249 404 230 468 c 0,52,53
 211 532 211 532 193 583.5 c 0,54,55
 175 635 175 635 161 665 c 0,56,57
 138 716 138 716 122 731.5 c 0,58,59
 106 747 106 747 89 747 c 0,60,61
 80 747 80 747 63.5 743.5 c 0,62,63
 47 740 47 740 31 735 c 0,64,65
 12 730 12 730 -9 723 c 0,66,-1
 -31 800 l 0,67,68
 15 823 15 823 66 847 c 0,69,70
 117 871 117 871 164 891 c 0,71,72
 211 911 211 911 248.5 923.5 c 0,73,74
 286 936 286 936 306 936 c 0,75,76
 334 936 334 936 356 907 c 0,77,78
 378 878 378 878 402 809 c 0,79,80
 419 761 419 761 438.5 698 c 0,81,82
 458 635 458 635 477.5 562.5 c 0,83,84
 497 490 497 490 516.5 411 c 0,85,86
 536 332 536 332 553 252 c 0,87,88
 591 329 591 329 624 401.5 c 0,89,90
 657 474 657 474 681 535 c 0,91,92
 705 596 705 596 719 642 c 0,93,94
 733 688 733 688 733 711 c 0,95,96
 733 761 733 761 680 764 c 0,97,98
 663 766 663 766 645.5 760 c 0,99,100
 628 754 628 754 599 741 c 0,101,-1
 571 818 l 0,102,103
 607 839 607 839 651 860 c 0,104,105
 695 881 695 881 739 898 c 0,106,107
 783 915 783 915 823 925.5 c 0,108,109
 863 936 863 936 891 936 c 0,110,111
 908 936 908 936 924.5 933.5 c 0,112,113
 941 931 941 931 954 923 c 0,114,115
 967 915 967 915 975 900 c 0,116,117
 983 885 983 885 983 860 c 0,0,1
EndSplineSet
EndChar

StartChar: z
Encoding: 93 122 93
Width: 787
Flags: W
LayerCount: 2
Fore
SplineSet
787 870 m 0,0,1
 732 811 732 811 689.5 759.5 c 0,2,3
 647 708 647 708 611 659.5 c 0,4,5
 575 611 575 611 542 563 c 0,6,7
 509 515 509 515 473.5 463.5 c 0,8,9
 438 412 438 412 397 355 c 0,10,11
 356 298 356 298 303 230 c 0,12,13
 318 234 318 234 332 238 c 0,14,15
 344 241 344 241 358 243.5 c 0,16,17
 372 246 372 246 385 246 c 0,18,19
 405 246 405 246 434 238 c 0,20,21
 463 230 463 230 494.5 220 c 0,22,23
 526 210 526 210 555.5 202 c 0,24,25
 585 194 585 194 607 194 c 0,26,27
 616 194 616 194 627.5 197.5 c 0,28,29
 639 201 639 201 652.5 212.5 c 0,30,31
 666 224 666 224 682.5 245.5 c 0,32,33
 699 267 699 267 718 303 c 0,34,-1
 784 263 l 0,35,36
 756 201 756 201 730 149 c 0,37,38
 704 97 704 97 674 59.5 c 0,39,40
 644 22 644 22 607.5 1 c 0,41,42
 571 -20 571 -20 522 -20 c 0,43,44
 480 -20 480 -20 437.5 -9.5 c 0,45,46
 395 1 395 1 356 13.5 c 0,47,48
 317 26 317 26 283 36.5 c 0,49,50
 249 47 249 47 225 47 c 0,51,52
 193 47 193 47 143.5 27 c 0,53,54
 94 7 94 7 18 -31 c 0,55,-1
 -22 25 l 0,56,57
 53 115 53 115 123.5 213 c 0,58,59
 194 311 194 311 257.5 403 c 0,60,61
 321 495 321 495 376 574 c 0,62,63
 431 653 431 653 475 705 c 0,64,-1
 268 705 l 0,65,66
 244 705 244 705 226 699 c 0,67,68
 208 693 208 693 192 677.5 c 0,69,70
 176 662 176 662 162.5 635 c 0,71,72
 149 608 149 608 134 566 c 0,73,-1
 61 584 l 0,74,75
 70 629 70 629 82.5 681.5 c 0,76,77
 95 734 95 734 106.5 783.5 c 0,78,79
 118 833 118 833 127 874 c 0,80,81
 136 915 136 915 140 936 c 0,82,83
 149 934 149 934 163.5 930.5 c 0,84,85
 178 927 178 927 195.5 923.5 c 0,86,87
 213 920 213 920 231.5 917.5 c 0,88,89
 250 915 250 915 268 915 c 0,90,-1
 756 915 l 0,91,-1
 787 870 l 0,0,1
EndSplineSet
EndChar

StartChar: braceleft
Encoding: 94 123 94
Width: 704
Flags: W
LayerCount: 2
Fore
SplineSet
804 1513 m 0,0,1
 764 1489 764 1489 730.5 1460.5 c 0,2,3
 697 1432 697 1432 671.5 1401 c 0,4,5
 646 1370 646 1370 629.5 1337.5 c 0,6,7
 613 1305 613 1305 609 1272 c 0,8,9
 602 1221 602 1221 602 1179.5 c 0,10,11
 602 1138 602 1138 603.5 1097.5 c 0,12,13
 605 1057 605 1057 605.5 1015.5 c 0,14,15
 606 974 606 974 599 923 c 0,16,17
 593 881 593 881 573 840.5 c 0,18,19
 553 800 553 800 523 764.5 c 0,20,21
 493 729 493 729 455.5 700 c 0,22,23
 418 671 418 671 376 653 c 0,24,25
 467 635 467 635 503.5 565.5 c 0,26,27
 540 496 540 496 525 385 c 0,28,29
 518 332 518 332 505.5 285 c 0,30,31
 493 238 493 238 480 194 c 0,32,33
 467 150 467 150 455.5 107.5 c 0,34,35
 444 65 444 65 438 23 c 0,36,37
 433 -13 433 -13 434 -44 c 0,38,39
 435 -75 435 -75 447.5 -103 c 0,40,41
 460 -131 460 -131 486 -158 c 0,42,43
 512 -185 512 -185 557 -214 c 0,44,-1
 503 -315 l 0,45,46
 420 -281 420 -281 354.5 -246.5 c 0,47,48
 289 -212 289 -212 246 -170 c 0,49,50
 203 -128 203 -128 184.5 -74 c 0,51,52
 166 -20 166 -20 176 52 c 0,53,54
 183 103 183 103 194.5 147 c 0,55,56
 206 191 206 191 219 233.5 c 0,57,58
 232 276 232 276 244 321.5 c 0,59,60
 256 367 256 367 264 422 c 0,61,62
 275 503 275 503 248.5 534.5 c 0,63,64
 222 566 222 566 167 566 c 0,65,-1
 148 566 l 0,66,67
 142 566 142 566 137 565.5 c 0,68,69
 132 565 132 565 125.5 563.5 c 0,70,71
 119 562 119 562 105 560 c 0,72,-1
 102 653 l 0,73,74
 209 684 209 684 261.5 736 c 0,75,76
 314 788 314 788 325 863 c 0,77,78
 332 916 332 916 331.5 957.5 c 0,79,80
 331 999 331 999 329.5 1038 c 0,81,82
 328 1077 328 1077 327.5 1119 c 0,83,84
 327 1161 327 1161 335 1215 c 0,85,86
 344 1282 344 1282 382 1338 c 0,87,88
 420 1394 420 1394 478.5 1441 c 0,89,90
 537 1488 537 1488 612.5 1527 c 0,91,92
 688 1566 688 1566 773 1600 c 0,93,-1
 804 1513 l 0,0,1
EndSplineSet
EndChar

StartChar: bar
Encoding: 95 124 95
Width: 450
Flags: W
LayerCount: 2
Fore
SplineSet
198 -270 m 0,0,1
 188 -277 188 -277 170 -286.5 c 0,2,3
 152 -296 152 -296 132 -306 c 0,4,5
 112 -316 112 -316 93 -324 c 0,6,7
 74 -332 74 -332 62 -336 c 0,8,-1
 23 -301 l 0,9,-1
 283 1535 l 0,10,11
 297 1544 297 1544 314.5 1553.5 c 0,12,13
 332 1563 332 1563 350 1572 c 0,14,15
 368 1581 368 1581 385.5 1588 c 0,16,17
 403 1595 403 1595 418 1599 c 0,18,-1
 458 1567 l 0,19,-1
 198 -270 l 0,0,1
EndSplineSet
EndChar

StartChar: braceright
Encoding: 96 125 96
Width: 702
Flags: W
LayerCount: 2
Fore
SplineSet
618 631 m 0,0,1
 511 600 511 600 458.5 548 c 0,2,3
 406 496 406 496 395 421 c 0,4,5
 388 368 388 368 388.5 326.5 c 0,6,7
 389 285 389 285 390.5 246 c 0,8,9
 392 207 392 207 392 165 c 0,10,11
 392 123 392 123 385 69 c 0,12,13
 376 1 376 1 338 -54.5 c 0,14,15
 300 -110 300 -110 241.5 -157 c 0,16,17
 183 -204 183 -204 107.5 -243 c 0,18,19
 32 -282 32 -282 -53 -316 c 0,20,-1
 -82 -229 l 0,21,22
 -43 -205 -43 -205 -9.5 -176.5 c 0,23,24
 24 -148 24 -148 49 -117 c 0,25,26
 74 -86 74 -86 90 -53.5 c 0,27,28
 106 -21 106 -21 111 12 c 0,29,30
 118 63 118 63 118 104.5 c 0,31,32
 118 146 118 146 116 186.5 c 0,33,34
 114 227 114 227 114 268.5 c 0,35,36
 114 310 114 310 121 361 c 0,37,38
 127 403 127 403 146.5 443.5 c 0,39,40
 166 484 166 484 196 519.5 c 0,41,42
 226 555 226 555 264 584 c 0,43,44
 302 613 302 613 344 631 c 0,45,46
 253 649 253 649 216.5 718.5 c 0,47,48
 180 788 180 788 195 899 c 0,49,50
 202 951 202 951 214.5 998.5 c 0,51,52
 227 1046 227 1046 240 1090 c 0,53,54
 253 1134 253 1134 264.5 1176.5 c 0,55,56
 276 1219 276 1219 282 1261 c 0,57,58
 287 1297 287 1297 286 1328 c 0,59,60
 285 1359 285 1359 272.5 1387 c 0,61,62
 260 1415 260 1415 234 1442 c 0,63,64
 208 1469 208 1469 163 1498 c 0,65,-1
 217 1599 l 0,66,67
 300 1565 300 1565 365.5 1530.5 c 0,68,69
 431 1496 431 1496 474 1454 c 0,70,71
 517 1412 517 1412 535.5 1358 c 0,72,73
 554 1304 554 1304 544 1232 c 0,74,75
 537 1181 537 1181 525 1137 c 0,76,77
 513 1093 513 1093 500.5 1050.5 c 0,78,79
 488 1008 488 1008 475.5 962.5 c 0,80,81
 463 917 463 917 456 862 c 0,82,83
 445 781 445 781 471.5 749.5 c 0,84,85
 498 718 498 718 553 718 c 0,86,-1
 572 718 l 0,87,88
 578 718 578 718 583 718.5 c 0,89,90
 588 719 588 719 594.5 720.5 c 0,91,92
 601 722 601 722 615 724 c 0,93,-1
 618 631 l 0,0,1
EndSplineSet
EndChar

StartChar: asciitilde
Encoding: 97 126 97
Width: 984
Flags: W
LayerCount: 2
Fore
SplineSet
945 774 m 0,0,1
 919 725 919 725 882 672.5 c 0,2,3
 845 620 845 620 802.5 576.5 c 0,4,5
 760 533 760 533 713.5 505 c 0,6,7
 667 477 667 477 623 477 c 0,8,9
 584 477 584 477 543.5 502 c 0,10,11
 503 527 503 527 462.5 557 c 0,12,13
 422 587 422 587 381 612 c 0,14,15
 340 637 340 637 300 637 c 0,16,17
 254 637 254 637 210.5 598 c 0,18,19
 167 559 167 559 116 475 c 0,20,-1
 70 502 l 0,21,22
 97 551 97 551 134 603.5 c 0,23,24
 171 656 171 656 213.5 699.5 c 0,25,26
 256 743 256 743 302 771 c 0,27,28
 348 799 348 799 392 799 c 0,29,30
 435 799 435 799 476.5 774 c 0,31,32
 518 749 518 749 558.5 719 c 0,33,34
 599 689 599 689 637.5 664 c 0,35,36
 676 639 676 639 714 639 c 0,37,38
 758 639 758 639 803.5 678 c 0,39,40
 849 717 849 717 899 799 c 0,41,-1
 945 774 l 0,0,1
EndSplineSet
EndChar

StartChar: exclam.taml
Encoding: 99 -1 99
Width: 956
Flags: W
LayerCount: 2
Fore
SplineSet
905 1061 m 0,0,1
 854 916 854 916 768 668 c 0,2,3
 754 625 754 625 653 326 c 0,4,5
 628 256 628 256 606 184 c 1,6,-1
 532 184 l 1,7,8
 555 366 555 366 565 481 c 0,9,10
 602 843 602 843 602 1061 c 0,11,12
 602 1157 602 1157 660.5 1226.5 c 128,-1,13
 719 1296 719 1296 801 1296 c 0,14,15
 916 1296 916 1296 915 1163 c 0,16,17
 915 1147 915 1147 915 1130 c 0,18,19
 907 1088 907 1088 905 1061 c 0,0,1
662 -68 m 0,20,21
 648 -134 648 -134 596.5 -176.5 c 128,-1,22
 545 -219 545 -219 479 -219 c 0,23,24
 428 -219 428 -219 397.5 -188.5 c 128,-1,25
 367 -158 367 -158 367 -104 c 0,26,27
 367 -81 367 -81 374 -47.5 c 128,-1,28
 381 -14 381 -14 431 26 c 128,-1,29
 481 66 481 66 541 66 c 256,30,31
 600 66 600 66 637 25.5 c 128,-1,32
 674 -15 674 -15 662 -68 c 0,20,21
EndSplineSet
EndChar

StartChar: quoteleft.taml
Encoding: 100 -1 100
Width: 798
Flags: W
LayerCount: 2
Fore
SplineSet
1022 1837 m 1,0,1
 854 1786 854 1786 737 1667 c 1,2,3
 700 1601 700 1601 664 1536 c 0,4,5
 668 1532 668 1532 677 1530 c 128,-1,6
 686 1528 686 1528 690 1528 c 0,7,8
 708 1528 708 1528 753.5 1551.5 c 128,-1,9
 799 1575 799 1575 823 1575 c 0,10,11
 854 1575 854 1575 872 1559 c 0,12,13
 938 1514 938 1514 938 1425 c 0,14,15
 938 1386 938 1386 925.5 1352.5 c 128,-1,16
 913 1319 913 1319 880.5 1281 c 128,-1,17
 848 1243 848 1243 800 1221.5 c 128,-1,18
 752 1200 752 1200 694 1200 c 0,19,20
 676 1200 676 1200 617.5 1207 c 128,-1,21
 559 1214 559 1214 521 1271.5 c 128,-1,22
 483 1329 483 1329 483 1411 c 0,23,24
 483 1485 483 1485 514 1552 c 0,25,26
 600 1755 600 1755 829 1872 c 0,27,28
 903 1909 903 1909 1040 1948 c 1,29,-1
 1022 1837 l 1,0,1
EndSplineSet
EndChar

StartChar: u20A8
Encoding: 101 8360 101
Width: 2326
Flags: W
LayerCount: 2
Fore
SplineSet
2161 256 m 0,0,1
 2136 137 2136 137 2020.5 50 c 128,-1,2
 1905 -37 1905 -37 1780 -37 c 0,3,4
 1729 -37 1729 -37 1662 -15.5 c 128,-1,5
 1595 6 1595 6 1585 6 c 0,6,7
 1554 6 1554 6 1538 -23 c 1,8,-1
 1462 -23 l 1,9,-1
 1542 344 l 1,10,-1
 1622 344 l 1,11,12
 1622 197 1622 197 1675 135 c 0,13,14
 1720 82 1720 82 1810 82 c 0,15,16
 1861 82 1861 82 1901.5 112.5 c 128,-1,17
 1942 143 1942 143 1950 186 c 0,18,19
 1964 254 1964 254 1884 305 c 0,20,21
 1874 309 1874 309 1784 356 c 0,22,23
 1684 413 1684 413 1647 451 c 0,24,25
 1594 504 1594 504 1593 578 c 0,26,27
 1593 594 1593 594 1597 633 c 0,28,29
 1626 752 1626 752 1723.5 828.5 c 128,-1,30
 1821 905 1821 905 1944 905 c 0,31,32
 1991 905 1991 905 2052 883 c 0,33,34
 2091 869 2091 869 2099 868 c 0,35,36
 2128 868 2128 868 2146 905 c 1,37,-1
 2234 905 l 1,38,-1
 2161 559 l 1,39,-1
 2073 559 l 1,40,41
 2073 690 2073 690 2035 741.5 c 128,-1,42
 1997 793 1997 793 1915 793 c 0,43,44
 1872 793 1872 793 1834 771.5 c 128,-1,45
 1796 750 1796 750 1786 711 c 0,46,47
 1772 639 1772 639 1866 588 c 0,48,49
 1940 551 1940 551 1976 532 c 0,50,51
 2066 481 2066 481 2109 440 c 0,52,53
 2168 381 2168 381 2169 301 c 0,54,55
 2169 291 2169 291 2161 256 c 0,0,1
1368 -8 m 1,56,-1
 981 -6 l 1,57,-1
 670 575 l 1,58,-1
 584 575 l 1,59,-1
 514 244 l 2,60,61
 504 191 504 191 504 152 c 0,62,63
 504 84 504 84 578 84 c 2,64,-1
 664 84 l 1,65,-1
 645 -4 l 1,66,-1
 35 -4 l 1,67,-1
 53 84 l 1,68,-1
 127 84 l 2,69,70
 180 84 180 84 213 117 c 128,-1,71
 246 150 246 150 264 246 c 2,72,-1
 434 1059 l 2,73,74
 444 1100 444 1100 444 1130 c 0,75,76
 444 1173 444 1173 422.5 1188.5 c 128,-1,77
 401 1204 401 1204 358 1204 c 2,78,-1
 285 1204 l 1,79,-1
 303 1292 l 1,80,-1
 793 1292 l 2,81,82
 1053 1292 1053 1292 1176.5 1235 c 128,-1,83
 1300 1178 1300 1178 1300 1034 c 0,84,85
 1300 995 1300 995 1292 952 c 0,86,87
 1267 835 1267 835 1182 754 c 0,88,89
 1086 660 1086 660 913 614 c 1,90,91
 1009 444 1009 444 1069 342 c 0,92,93
 1180 152 1180 152 1203.5 139.5 c 128,-1,94
 1227 127 1227 127 1270 111.5 c 128,-1,95
 1313 96 1313 96 1378 86 c 1,96,-1
 1368 -8 l 1,56,-1
1008 930 m 0,97,98
 1016 961 1016 961 1016 991 c 0,99,100
 1016 1065 1016 1065 969 1110 c 0,101,102
 910 1163 910 1163 791 1163 c 0,103,104
 738 1163 738 1163 705 1159 c 1,105,-1
 608 702 l 1,106,107
 768 702 768 702 881 765 c 128,-1,108
 994 828 994 828 1008 930 c 0,97,98
EndSplineSet
EndChar

StartChar: percent.taml
Encoding: 102 -1 102
Width: 1699
Flags: W
LayerCount: 2
Fore
SplineSet
1573 455 m 0,0,1
 1528 240 1528 240 1395 125 c 0,2,3
 1286 31 1286 31 1163 31 c 0,4,5
 1067 31 1067 31 1016 87 c 128,-1,6
 965 143 965 143 965 252 c 0,7,8
 965 309 965 309 981 395 c 0,9,10
 1028 626 1028 626 1167 743 c 0,11,12
 1271 831 1271 831 1376 831 c 0,13,14
 1458 831 1458 831 1511 788 c 0,15,16
 1585 729 1585 729 1585 592 c 0,17,18
 1585 535 1585 535 1573 455 c 0,0,1
1589 1446 m 1,19,-1
 426 23 l 1,20,-1
 244 20 l 1,21,-1
 1405 1444 l 1,22,-1
 1589 1446 l 1,19,-1
881 1081 m 0,23,24
 834 848 834 848 694 731 c 0,25,26
 590 643 590 643 481 643 c 0,27,28
 399 643 399 643 348 686 c 0,29,30
 276 745 276 745 276 879 c 0,31,32
 276 938 276 938 293 1020 c 0,33,34
 338 1237 338 1237 469 1352 c 0,35,36
 573 1442 573 1442 692 1442 c 0,37,38
 794 1442 794 1442 845.5 1384.5 c 128,-1,39
 897 1327 897 1327 897 1219 c 0,40,41
 897 1161 897 1161 881 1081 c 0,23,24
1370 350 m 0,42,43
 1378 381 1378 381 1380 411.5 c 128,-1,44
 1382 442 1382 442 1382 473 c 0,45,46
 1382 549 1382 549 1348.5 587 c 128,-1,47
 1315 625 1315 625 1262 625 c 0,48,49
 1201 625 1201 625 1181 530.5 c 128,-1,50
 1161 436 1161 436 1161 383 c 0,51,52
 1161 221 1161 221 1284 221 c 0,53,54
 1345 221 1345 221 1370 350 c 0,42,43
682 942 m 0,55,56
 690 973 690 973 692 1005.5 c 128,-1,57
 694 1038 694 1038 694 1071 c 0,58,59
 694 1237 694 1237 571 1237 c 0,60,61
 512 1237 512 1237 490.5 1138.5 c 128,-1,62
 469 1040 469 1040 469 987 c 0,63,64
 469 907 469 907 502 869 c 128,-1,65
 535 831 535 831 586 831 c 0,66,67
 653 831 653 831 682 942 c 0,55,56
EndSplineSet
EndChar

StartChar: ampersand.taml
Encoding: 103 -1 103
Width: 1441
Flags: W
LayerCount: 2
Fore
SplineSet
1436 272 m 1,0,1
 1368 135 1368 135 1277 65.5 c 128,-1,2
 1186 -4 1186 -4 1081 -4 c 0,3,4
 995 -4 995 -4 924 35 c 1,5,6
 863 80 863 80 801 154 c 1,7,8
 576 -6 576 -6 381 -6 c 0,9,10
 242 -6 242 -6 160 78 c 1,11,12
 107 146 107 146 106 225 c 0,13,14
 106 358 106 358 240 504 c 0,15,16
 285 551 285 551 368 608.5 c 128,-1,17
 451 666 451 666 561 717 c 1,18,19
 538 811 538 811 539 887 c 0,20,21
 539 903 539 903 539 922 c 0,22,23
 543 951 543 951 543 961 c 0,24,25
 574 1104 574 1104 688.5 1191 c 128,-1,26
 803 1278 803 1278 946 1278 c 0,27,28
 1046 1278 1046 1278 1102.5 1227 c 128,-1,29
 1159 1176 1159 1176 1159 1090 c 0,30,31
 1159 1076 1159 1076 1155 1042 c 0,32,33
 1137 944 1137 944 1063 870.5 c 128,-1,34
 989 797 989 797 809 715 c 1,35,36
 875 535 875 535 942 408 c 1,37,38
 1022 494 1022 494 1067 557.5 c 128,-1,39
 1112 621 1112 621 1122 674 c 0,40,41
 1126 703 1126 703 1114 722 c 128,-1,42
 1102 741 1102 741 1055 750 c 1,43,-1
 1071 829 l 1,44,-1
 1491 829 l 1,45,-1
 1475 748 l 1,46,47
 1389 748 1389 748 1346 719 c 128,-1,48
 1303 690 1303 690 1208.5 563 c 128,-1,49
 1114 436 1114 436 991 313 c 1,50,51
 1009 282 1009 282 1038 256 c 0,52,53
 1052 240 1052 240 1085 213 c 0,54,55
 1130 184 1130 184 1182 184 c 0,56,57
 1297 184 1297 184 1364 328 c 1,58,-1
 1436 272 l 1,0,1
997 1055 m 0,59,60
 1007 1100 1007 1100 981.5 1133.5 c 128,-1,61
 956 1167 956 1167 911 1171 c 0,62,63
 854 1171 854 1171 811 1128 c 128,-1,64
 768 1085 768 1085 760 1041 c 128,-1,65
 752 997 752 997 752 973 c 0,66,67
 752 928 752 928 754 907.5 c 128,-1,68
 756 887 756 887 772 829 c 1,69,70
 868 876 868 876 923.5 928.5 c 128,-1,71
 979 981 979 981 997 1055 c 0,59,60
731 246 m 1,72,73
 659 393 659 393 632.5 458.5 c 128,-1,74
 606 524 606 524 578 610 c 1,75,76
 527 581 527 581 490 558 c 128,-1,77
 453 535 453 535 430 506 c 0,78,79
 344 412 344 412 344 311 c 0,80,81
 344 280 344 280 348 264 c 128,-1,82
 352 248 352 248 374.5 215 c 128,-1,83
 397 182 397 182 426 163.5 c 128,-1,84
 455 145 455 145 498 145 c 0,85,86
 539 145 539 145 594 169 c 128,-1,87
 649 193 649 193 731 246 c 1,72,73
EndSplineSet
EndChar

StartChar: quoteright.taml
Encoding: 104 -1 104
Width: 798
Flags: W
LayerCount: 2
Fore
SplineSet
899 1565 m 0,0,1
 813 1362 813 1362 584 1243 c 0,2,3
 510 1204 510 1204 377 1165 c 1,4,-1
 399 1270 l 1,5,6
 565 1321 565 1321 682 1444 c 0,7,8
 784 1548 784 1548 756 1573 c 0,9,10
 742 1583 742 1583 723 1583 c 0,11,12
 707 1583 707 1583 661.5 1557.5 c 128,-1,13
 616 1532 616 1532 588 1532 c 0,14,15
 563 1532 563 1532 539 1548 c 0,16,17
 473 1593 473 1593 473 1681 c 0,18,19
 473 1761 473 1761 532 1827 c 0,20,21
 565 1870 565 1870 613.5 1889.5 c 128,-1,22
 662 1909 662 1909 715 1909 c 0,23,24
 733 1909 733 1909 790.5 1903.5 c 128,-1,25
 848 1898 848 1898 888 1840 c 128,-1,26
 928 1782 928 1782 928 1700 c 0,27,28
 928 1620 928 1620 899 1565 c 0,0,1
EndSplineSet
EndChar

StartChar: parenleft.taml
Encoding: 105 -1 105
Width: 841
Flags: W
LayerCount: 2
Fore
SplineSet
1300 1757 m 1,0,1
 938 1517 938 1517 717 1061.5 c 128,-1,2
 496 606 496 606 496 152 c 0,3,4
 496 -96 496 -96 566.5 -305 c 128,-1,5
 637 -514 637 -514 784 -659 c 1,6,-1
 717 -727 l 1,7,8
 463 -567 463 -567 337 -323.5 c 128,-1,9
 211 -80 211 -80 211 211 c 0,10,11
 211 363 211 363 248 543 c 0,12,13
 332 946 332 946 575 1266 c 0,14,15
 837 1612 837 1612 1251 1817 c 1,16,-1
 1300 1757 l 1,0,1
EndSplineSet
EndChar

StartChar: parenright.taml
Encoding: 106 -1 106
Width: 841
Flags: W
LayerCount: 2
Fore
SplineSet
711 539 m 0,0,1
 625 138 625 138 379 -182 c 0,2,3
 117 -524 117 -524 -299 -729 c 1,4,-1
 -344 -670 l 1,5,6
 27 -410 27 -410 252 59 c 0,7,8
 463 501 463 501 463 950 c 0,9,10
 463 1202 463 1202 390 1411 c 128,-1,11
 317 1620 317 1620 172 1753 c 1,12,-1
 240 1810 l 1,13,14
 494 1652 494 1652 619.5 1407.5 c 128,-1,15
 745 1163 745 1163 745 868 c 0,16,17
 746 723 746 723 711 539 c 0,0,1
EndSplineSet
EndChar

StartChar: asterisk.taml
Encoding: 107 -1 107
Width: 1757
Flags: W
LayerCount: 2
Fore
SplineSet
1495 936 m 1,0,1
 1448 879 1448 879 1376 879 c 0,2,3
 1337 879 1337 879 1313.5 904.5 c 128,-1,4
 1290 930 1290 930 1229 1004 c 0,5,6
 1190 1051 1190 1051 1157 1079 c 1,7,8
 1157 1042 1157 1042 1164 959.5 c 128,-1,9
 1171 877 1171 877 1171 829 c 1,10,11
 1161 772 1161 772 1118 732 c 128,-1,12
 1075 692 1075 692 1030 692 c 0,13,14
 940 702 940 702 940 791 c 0,15,16
 940 799 940 799 944 827 c 0,17,18
 969 893 969 893 1005.5 968.5 c 128,-1,19
 1042 1044 1042 1044 1057 1081 c 1,20,21
 1014 1052 1014 1052 931 982.5 c 128,-1,22
 848 913 848 913 831 903 c 0,23,24
 792 874 792 874 741 874 c 0,25,26
 673 874 673 874 655 928 c 0,27,28
 647 944 647 944 647 961 c 0,29,30
 647 1000 647 1000 677 1037.5 c 128,-1,31
 707 1075 707 1075 750 1087.5 c 128,-1,32
 793 1100 793 1100 938 1133 c 0,33,34
 985 1143 985 1143 1022 1157 c 1,35,36
 985 1171 985 1171 909.5 1189.5 c 128,-1,37
 834 1208 834 1208 786 1225 c 0,38,39
 729 1250 729 1250 729 1311 c 0,40,41
 729 1354 729 1354 752 1391 c 0,42,43
 797 1444 797 1444 870 1444 c 0,44,45
 915 1444 915 1444 945 1411 c 128,-1,46
 975 1378 975 1378 1026 1313 c 0,47,48
 1063 1266 1063 1266 1092 1237 c 1,49,50
 1092 1276 1092 1276 1089.5 1373 c 128,-1,51
 1087 1470 1087 1470 1087 1495 c 0,52,53
 1097 1552 1097 1552 1140.5 1586 c 128,-1,54
 1184 1620 1184 1620 1231 1620 c 0,55,56
 1317 1620 1317 1620 1317 1526 c 0,57,58
 1317 1503 1317 1503 1315 1489 c 0,59,60
 1278 1415 1278 1415 1245 1349.5 c 128,-1,61
 1212 1284 1212 1284 1196 1237 c 1,62,63
 1239 1262 1239 1262 1298 1313 c 0,64,65
 1394 1393 1394 1393 1425 1415.5 c 128,-1,66
 1456 1438 1456 1438 1499 1438 c 0,67,68
 1575 1438 1575 1438 1597 1386 c 0,69,70
 1611 1335 1611 1335 1580.5 1284 c 128,-1,71
 1550 1233 1550 1233 1512.5 1225 c 128,-1,72
 1475 1217 1475 1217 1343 1186 c 0,73,74
 1284 1172 1284 1172 1237 1155 c 1,75,76
 1268 1141 1268 1141 1340.5 1121.5 c 128,-1,77
 1413 1102 1413 1102 1470 1085 c 0,78,79
 1499 1077 1499 1077 1513.5 1055.5 c 128,-1,80
 1528 1034 1528 1034 1528 1001 c 0,81,82
 1528 963 1528 963 1495 936 c 1,0,1
EndSplineSet
EndChar

StartChar: plus.taml
Encoding: 108 -1 108
Width: 1241
Flags: W
LayerCount: 2
Fore
SplineSet
1051 520 m 1,0,-1
 836 520 l 1,1,-1
 791 303 l 1,2,-1
 537 303 l 1,3,-1
 582 520 l 1,4,-1
 371 520 l 1,5,-1
 422 760 l 1,6,-1
 633 760 l 1,7,-1
 678 979 l 1,8,-1
 932 979 l 1,9,-1
 887 760 l 1,10,-1
 1102 760 l 1,11,-1
 1051 520 l 1,0,-1
EndSplineSet
EndChar

StartChar: comma.taml
Encoding: 109 -1 109
Width: 798
Flags: W
LayerCount: 2
Fore
SplineSet
682 94 m 0,0,1
 649 -72 649 -72 498 -190 c 0,2,3
 297 -350 297 -350 152 -350 c 1,4,-1
 174 -248 l 1,5,6
 213 -246 213 -246 295 -195 c 0,7,8
 481 -82 481 -82 506 37 c 1,9,10
 463 27 463 27 440 16 c 0,11,12
 393 -9 393 -9 369 -8 c 0,13,14
 324 -8 324 -8 284 40 c 128,-1,15
 244 88 244 88 244 150 c 0,16,17
 244 168 244 168 246 178 c 0,18,19
 260 252 260 252 329.5 307 c 128,-1,20
 399 362 399 362 475 362 c 0,21,22
 571 362 571 362 628.5 296.5 c 128,-1,23
 686 231 686 231 686 141 c 0,24,25
 686 125 686 125 682 94 c 0,0,1
EndSplineSet
EndChar

StartChar: hyphen.taml
Encoding: 110 -1 110
Width: 1241
Flags: W
LayerCount: 2
Fore
SplineSet
1020 518 m 1,0,-1
 170 518 l 1,1,-1
 223 770 l 1,2,-1
 1073 770 l 1,3,-1
 1020 518 l 1,0,-1
EndSplineSet
EndChar

StartChar: period.taml
Encoding: 111 -1 111
Width: 704
Flags: W
LayerCount: 2
Fore
SplineSet
547 174 m 0,0,1
 533 100 533 100 456 46 c 128,-1,2
 379 -8 379 -8 293 -8 c 0,3,4
 217 -8 217 -8 172 35 c 128,-1,5
 127 78 127 78 127 143 c 0,6,7
 127 161 127 161 129 172 c 0,8,9
 145 248 145 248 218 303 c 128,-1,10
 291 358 291 358 373 358 c 0,11,12
 447 358 447 358 498 313 c 128,-1,13
 549 268 549 268 549 203 c 0,14,15
 549 184 549 184 547 174 c 0,0,1
EndSplineSet
EndChar

StartChar: uni2215
Encoding: 113 8725 113
Width: 784
Flags: W
LayerCount: 2
Fore
SplineSet
1180 1763 m 1,0,-1
 43 -276 l 1,1,-1
 -137 -276 l 1,2,-1
 1006 1763 l 1,3,-1
 1180 1763 l 1,0,-1
EndSplineSet
EndChar

StartChar: zero.taml
Encoding: 114 -1 114
Width: 987
Flags: W
LayerCount: 2
Fore
SplineSet
1092 627 m 0,0,1
 1020 301 1020 301 831 115 c 0,2,3
 679 -32 679 -32 489 -33 c 0,4,5
 307 -33 307 -33 219 106 c 0,6,7
 147 221 147 221 147 406 c 0,8,9
 147 478 147 478 152.5 517.5 c 128,-1,10
 158 557 158 557 172 625 c 0,11,12
 223 865 223 865 348 1044 c 0,13,14
 522 1290 522 1290 770 1290 c 0,15,16
 952 1290 952 1290 1040 1145 c 0,17,18
 1110 1026 1110 1026 1110 840 c 0,19,20
 1110 774 1110 774 1106 737.5 c 128,-1,21
 1102 701 1102 701 1092 627 c 0,0,1
844 627 m 0,22,23
 867 736 867 736 868 760 c 0,24,25
 884 869 884 869 885 944 c 0,26,27
 885 1048 885 1048 856 1106 c 0,28,29
 819 1178 819 1178 743 1178 c 0,30,31
 598 1178 598 1178 502 946 c 0,32,33
 455 829 455 829 416 625 c 0,34,35
 398 543 398 543 387 477 c 0,36,37
 369 362 369 362 369 289 c 0,38,39
 369 191 369 191 401.5 132.5 c 128,-1,40
 434 74 434 74 514 74 c 0,41,42
 657 74 657 74 754 299 c 0,43,44
 807 422 807 422 844 627 c 0,22,23
EndSplineSet
EndChar

StartChar: one.taml
Encoding: 115 -1 115
Width: 987
Flags: W
LayerCount: 2
Fore
SplineSet
797 -8 m 1,0,-1
 213 -8 l 1,1,-1
 231 78 l 1,2,3
 311 78 311 78 340 82 c 0,4,5
 414 96 414 96 432 186 c 2,6,-1
 606 1014 l 2,7,8
 610 1037 610 1037 610 1047 c 0,9,10
 610 1070 610 1070 582 1069 c 0,11,12
 566 1069 566 1069 549 1065 c 0,13,14
 492 1047 492 1047 418 1022 c 1,15,-1
 434 1110 l 1,16,-1
 844 1292 l 1,17,-1
 889 1274 l 1,18,-1
 651 156 l 2,19,20
 649 148 649 148 649 138.5 c 128,-1,21
 649 129 649 129 649 127 c 0,22,23
 649 96 649 96 682 88 c 128,-1,24
 715 80 715 80 811 80 c 1,25,-1
 797 -8 l 1,0,-1
EndSplineSet
EndChar

StartChar: two.taml
Encoding: 116 -1 116
Width: 987
Flags: W
LayerCount: 2
Fore
SplineSet
1028 291 m 1,0,-1
 834 -8 l 1,1,-1
 43 -8 l 1,2,-1
 59 57 l 1,3,-1
 479 412 l 2,4,5
 770 660 770 660 813 862 c 0,6,7
 817 895 817 895 817 913 c 0,8,9
 817 987 817 987 780 1030 c 0,10,11
 733 1087 733 1087 618 1087 c 0,12,13
 514 1087 514 1087 438 1014 c 0,14,15
 395 975 395 975 324 856 c 1,16,-1
 236 872 l 1,17,18
 326 1095 326 1095 473 1200 c 0,19,20
 598 1288 598 1288 752 1288 c 0,21,22
 881 1288 881 1288 969 1211.5 c 128,-1,23
 1057 1135 1057 1135 1057 1008 c 0,24,25
 1057 971 1057 971 1049 928 c 0,26,27
 1022 797 1022 797 899 653 c 0,28,29
 825 567 825 567 700 463 c 2,30,-1
 371 190 l 1,31,-1
 754 190 l 2,32,33
 807 190 807 190 837.5 208.5 c 128,-1,34
 868 227 868 227 948 313 c 1,35,-1
 1028 291 l 1,0,-1
EndSplineSet
EndChar

StartChar: three.taml
Encoding: 117 -1 117
Width: 987
Flags: W
LayerCount: 2
Fore
SplineSet
958 418 m 0,0,1
 917 215 917 215 733 91 c 128,-1,2
 549 -33 549 -33 309 -33 c 0,3,4
 233 -33 233 -33 176 -10 c 0,5,6
 86 27 86 27 100 100 c 0,7,8
 110 151 110 151 144 173 c 128,-1,9
 178 195 178 195 217 195 c 256,10,11
 256 195 256 195 303 164 c 0,12,13
 418 92 418 92 465 92 c 0,14,15
 574 92 574 92 653 172 c 0,16,17
 721 240 721 240 743 342 c 0,18,19
 747 375 747 375 748 393 c 0,20,21
 748 475 748 475 686 522 c 0,22,23
 598 590 598 590 401 590 c 1,24,-1
 418 666 l 1,25,26
 584 711 584 711 666 768 c 0,27,28
 768 840 768 840 791 948 c 0,29,30
 793 958 793 958 793 983 c 0,31,32
 793 1036 793 1036 757 1072 c 128,-1,33
 721 1108 721 1108 647 1108 c 0,34,35
 545 1108 545 1108 457 1036 c 0,36,37
 428 1013 428 1013 342 913 c 1,38,-1
 266 932 l 1,39,40
 368 1127 368 1127 514 1212 c 0,41,42
 623 1278 623 1278 745 1278 c 0,43,44
 899 1278 899 1278 967 1202 c 0,45,46
 1020 1143 1020 1143 1020 1053 c 0,47,48
 1020 1039 1020 1039 1020 1024 c 0,49,50
 1016 1008 1016 1008 1016 1004 c 0,51,52
 1002 936 1002 936 954.5 874.5 c 128,-1,53
 907 813 907 813 819 754 c 1,54,55
 878 723 878 723 911 676 c 0,56,57
 962 608 962 608 963 514 c 0,58,59
 963 491 963 491 963 469 c 0,60,61
 954 432 954 432 958 418 c 0,0,1
EndSplineSet
EndChar

StartChar: four.taml
Encoding: 118 -1 118
Width: 987
Flags: W
LayerCount: 2
Fore
SplineSet
1012 295 m 1,0,-1
 817 295 l 1,1,-1
 752 -8 l 1,2,-1
 547 -8 l 1,3,-1
 612 295 l 1,4,-1
 80 295 l 1,5,-1
 113 455 l 1,6,-1
 897 1290 l 1,7,-1
 1028 1292 l 1,8,-1
 854 475 l 1,9,-1
 1049 475 l 1,10,-1
 1012 295 l 1,0,-1
817 1038 m 1,11,12
 803 1038 803 1038 502 715 c 0,13,14
 369 572 369 572 279 475 c 1,15,-1
 647 475 l 1,16,-1
 772 1063 l 2,17,18
 772 1071 772 1071 773 1082.5 c 128,-1,19
 774 1094 774 1094 827 1094 c 1,20,-1
 817 1038 l 1,11,12
EndSplineSet
EndChar

StartChar: five.taml
Encoding: 119 -1 119
Width: 987
Flags: W
LayerCount: 2
Fore
SplineSet
1165 1276 m 1,0,-1
 1040 1096 l 2,1,2
 1017 1053 1017 1053 961 1053 c 2,3,-1
 608 1053 l 1,4,-1
 532 950 l 1,5,6
 665 932 665 932 745 899 c 0,7,8
 854 854 854 854 911 768 c 0,9,10
 970 668 970 668 971 592 c 0,11,12
 971 531 971 531 952 440 c 0,13,14
 909 243 909 243 729 110 c 128,-1,15
 549 -23 549 -23 311 -23 c 0,16,17
 186 -23 186 -23 123.5 17 c 128,-1,18
 61 57 61 57 76 117 c 0,19,20
 86 170 86 170 115.5 192.5 c 128,-1,21
 145 215 145 215 203 215 c 0,22,23
 256 215 256 215 303 182 c 0,24,25
 414 102 414 102 446 102 c 0,26,27
 540 102 540 102 621 174 c 0,28,29
 711 254 711 254 741 397 c 0,30,31
 745 420 745 420 745 465 c 0,32,33
 745 612 745 612 592 688 c 0,34,35
 467 749 467 749 307 750 c 0,36,37
 270 750 270 750 270 780 c 0,38,39
 270 796 270 796 281 811 c 2,40,-1
 590 1257 l 1,41,-1
 1008 1257 l 2,42,43
 1031 1257 1031 1257 1053 1274 c 0,44,45
 1082 1303 1082 1303 1104 1321 c 1,46,-1
 1165 1276 l 1,0,-1
EndSplineSet
EndChar

StartChar: six.taml
Encoding: 120 -1 120
Width: 987
Flags: W
LayerCount: 2
Fore
SplineSet
1028 424 m 0,0,1
 985 209 985 209 813 76 c 0,2,3
 674 -33 674 -33 494 -33 c 0,4,5
 340 -33 340 -33 252 57 c 0,6,7
 156 157 156 157 156 354 c 0,8,9
 156 434 156 434 178 553 c 0,10,11
 244 856 244 856 516 1073 c 0,12,13
 805 1304 805 1304 1178 1305 c 1,14,-1
 1169 1219 l 1,15,16
 936 1182 936 1182 762 1055 c 0,17,18
 608 940 608 940 528 778 c 1,19,20
 630 835 630 835 741 836 c 0,21,22
 878 836 878 836 962.5 757 c 128,-1,23
 1047 678 1047 678 1047 539 c 0,24,25
 1046 492 1046 492 1028 424 c 0,0,1
786 348 m 0,26,27
 802 424 802 424 803 496 c 0,28,29
 803 586 803 586 763 637 c 128,-1,30
 723 688 723 688 633 688 c 0,31,32
 529 688 529 688 467 645 c 0,33,34
 451 629 451 629 435.5 592 c 128,-1,35
 420 555 420 555 403.5 477 c 128,-1,36
 387 399 387 399 387 317 c 0,37,38
 387 200 387 200 434 141 c 128,-1,39
 481 82 481 82 557 82 c 0,40,41
 639 82 639 82 698 147.5 c 128,-1,42
 757 213 757 213 786 348 c 0,26,27
EndSplineSet
EndChar

StartChar: seven.taml
Encoding: 121 -1 121
Width: 987
Flags: W
LayerCount: 2
Fore
SplineSet
1176 1266 m 1,0,-1
 1161 1208 l 1,1,-1
 487 -25 l 1,2,-1
 297 -25 l 2,3,4
 299 -25 299 -25 433 217 c 128,-1,5
 567 459 567 459 705 702 c 0,6,7
 879 1017 879 1017 907 1069 c 1,8,-1
 539 1069 l 2,9,10
 451 1069 451 1069 389 1012 c 0,11,12
 336 953 336 953 303 915 c 1,13,-1
 229 948 l 1,14,-1
 424 1264 l 1,15,-1
 1176 1266 l 1,0,-1
EndSplineSet
EndChar

StartChar: eight.taml
Encoding: 122 -1 122
Width: 987
Flags: W
LayerCount: 2
Fore
SplineSet
958 297 m 0,0,1
 933 178 933 178 844 92 c 0,2,3
 711 -33 711 -33 483 -33 c 0,4,5
 323 -33 323 -33 239.5 44 c 128,-1,6
 156 121 156 121 156 231 c 0,7,8
 156 249 156 249 160 283 c 0,9,10
 185 400 185 400 256 473 c 0,11,12
 307 526 307 526 465 623 c 1,13,14
 383 709 383 709 352 760 c 0,15,16
 313 826 313 826 313 897 c 0,17,18
 313 928 313 928 322 971 c 0,19,20
 353 1110 353 1110 490 1197 c 128,-1,21
 627 1284 627 1284 774 1284 c 0,22,23
 919 1284 919 1284 998 1219.5 c 128,-1,24
 1077 1155 1077 1155 1077 1051 c 0,25,26
 1077 1012 1077 1012 1073 993 c 0,27,28
 1057 917 1057 917 999 850 c 0,29,30
 927 768 927 768 784 696 c 1,31,32
 888 606 888 606 931.5 530.5 c 128,-1,33
 975 455 975 455 975 381 c 0,34,35
 975 363 975 363 970.5 339 c 128,-1,36
 966 315 966 315 958 297 c 0,0,1
885 1014 m 0,37,38
 887 1028 887 1028 887 1053 c 0,39,40
 887 1106 887 1106 850 1143 c 128,-1,41
 813 1180 813 1180 739 1180 c 0,42,43
 653 1180 653 1180 601 1136 c 128,-1,44
 549 1092 549 1092 535 1030 c 0,45,46
 533 1020 533 1020 532 995 c 0,47,48
 532 927 532 927 590 862 c 0,49,50
 623 825 623 825 684 778 c 1,51,52
 758 821 758 821 801 864 c 0,53,54
 862 930 862 930 885 1014 c 0,37,38
748 262 m 0,55,56
 752 295 752 295 752 309 c 0,57,58
 752 381 752 381 672 455 c 0,59,60
 658 465 658 465 547 559 c 1,61,62
 488 520 488 520 449 473 c 0,63,64
 396 405 396 405 377 317 c 0,65,66
 373 294 373 294 373 256 c 0,67,68
 373 180 373 180 413 135 c 128,-1,69
 453 90 453 90 535 90 c 0,70,71
 615 90 615 90 674.5 138 c 128,-1,72
 734 186 734 186 748 262 c 0,55,56
EndSplineSet
EndChar

StartChar: nine.taml
Encoding: 123 -1 123
Width: 987
Flags: W
LayerCount: 2
Fore
SplineSet
1079 748 m 0,0,1
 1013 422 1013 422 760 197 c 0,2,3
 484 -51 484 -51 96 -51 c 1,4,-1
 104 45 l 1,5,6
 409 92 409 92 621 311 c 0,7,8
 658 350 658 350 791 551 c 1,9,-1
 829 535 l 1,10,11
 669 426 669 426 508 426 c 0,12,13
 354 426 354 426 279 520 c 0,14,15
 218 596 218 596 217 725 c 0,16,17
 217 772 217 772 225 815 c 0,18,19
 268 1018 268 1018 412.5 1154 c 128,-1,20
 557 1290 557 1290 752 1290 c 0,21,22
 906 1290 906 1290 1001 1182.5 c 128,-1,23
 1096 1075 1096 1075 1096 895 c 0,24,25
 1095 828 1095 828 1079 748 c 0,0,1
821 670 m 2,26,-1
 836 741 l 2,27,28
 850 794 850 794 858 849.5 c 128,-1,29
 866 905 866 905 866 963 c 0,30,31
 866 1057 866 1057 836 1108 c 0,32,33
 797 1174 797 1174 709 1174 c 0,34,35
 613 1174 613 1174 551 1079 c 0,36,37
 504 1005 504 1005 479 883 c 0,38,39
 467 822 467 822 467 756 c 0,40,41
 467 670 467 670 503 615.5 c 128,-1,42
 539 561 539 561 625 561 c 0,43,44
 668 561 668 561 712 576.5 c 128,-1,45
 756 592 756 592 788.5 613.5 c 128,-1,46
 821 635 821 635 821 670 c 2,26,-1
EndSplineSet
EndChar

StartChar: colon.taml
Encoding: 124 -1 124
Width: 704
Flags: W
LayerCount: 2
Fore
SplineSet
668 930 m 0,0,1
 652 850 652 850 576 791.5 c 128,-1,2
 500 733 500 733 414 733 c 0,3,4
 342 733 342 733 294 778 c 128,-1,5
 246 823 246 823 246 891 c 0,6,7
 246 916 246 916 248 926 c 0,8,9
 264 1008 264 1008 338 1067 c 128,-1,10
 412 1126 412 1126 498 1126 c 0,11,12
 572 1126 572 1126 620 1081 c 128,-1,13
 668 1036 668 1036 668 963 c 0,14,15
 668 938 668 938 668 930 c 0,0,1
502 156 m 0,16,17
 486 76 486 76 410 17.5 c 128,-1,18
 334 -41 334 -41 250 -41 c 0,19,20
 178 -41 178 -41 130 4 c 128,-1,21
 82 49 82 49 82 117 c 0,22,23
 82 142 82 142 84 152 c 0,24,25
 100 234 100 234 174 293 c 128,-1,26
 248 352 248 352 332 352 c 0,27,28
 406 352 406 352 454 307 c 128,-1,29
 502 262 502 262 502 188 c 0,30,31
 502 164 502 164 502 156 c 0,16,17
EndSplineSet
EndChar

StartChar: semicolon.taml
Encoding: 125 -1 125
Width: 704
Flags: W
LayerCount: 2
Fore
SplineSet
748 930 m 0,0,1
 732 846 732 846 656 788.5 c 128,-1,2
 580 731 580 731 489 731 c 0,3,4
 419 731 419 731 374.5 776 c 128,-1,5
 330 821 330 821 330 893 c 0,6,7
 330 916 330 916 332 928 c 0,8,9
 348 1010 348 1010 418.5 1069 c 128,-1,10
 489 1128 489 1128 575 1128 c 0,11,12
 651 1128 651 1128 701.5 1081 c 128,-1,13
 752 1034 752 1034 752 963 c 0,14,15
 752 938 752 938 748 930 c 0,0,1
575 102 m 0,16,17
 538 -70 538 -70 391 -193 c 0,18,19
 190 -355 190 -355 45 -354 c 1,20,-1
 68 -250 l 1,21,22
 127 -250 127 -250 244 -160 c 0,23,24
 381 -56 381 -56 399 45 c 1,25,26
 381 45 381 45 336 19.5 c 128,-1,27
 291 -6 291 -6 262 -6 c 0,28,29
 217 -6 217 -6 177 44 c 128,-1,30
 137 94 137 94 137 156 c 0,31,32
 137 179 137 179 139 188 c 0,33,34
 153 264 153 264 224 322.5 c 128,-1,35
 295 381 295 381 371 381 c 0,36,37
 467 381 467 381 522.5 314.5 c 128,-1,38
 578 248 578 248 578 154 c 0,39,40
 577 137 577 137 575 102 c 0,16,17
EndSplineSet
EndChar

StartChar: less.taml
Encoding: 126 -1 126
Width: 1548
Flags: W
LayerCount: 2
Fore
SplineSet
1262 -33 m 1,0,-1
 164 494 l 1,1,-1
 197 664 l 1,2,-1
 1520 1184 l 1,3,-1
 1475 971 l 1,4,-1
 475 575 l 1,5,-1
 1307 180 l 1,6,-1
 1262 -33 l 1,0,-1
EndSplineSet
EndChar

StartChar: equal.taml
Encoding: 127 -1 127
Width: 1652
Flags: W
LayerCount: 2
Fore
SplineSet
1610 834 m 1,0,-1
 395 834 l 1,1,-1
 438 1034 l 1,2,-1
 1653 1034 l 1,3,-1
 1610 834 l 1,0,-1
1520 410 m 1,4,-1
 305 410 l 1,5,-1
 348 606 l 1,6,-1
 1563 606 l 1,7,-1
 1520 410 l 1,4,-1
EndSplineSet
EndChar

StartChar: greater.taml
Encoding: 128 -1 128
Width: 1548
Flags: W
LayerCount: 2
Fore
SplineSet
1376 492 m 1,0,-1
 49 -35 l 1,1,-1
 94 178 l 1,2,-1
 1094 573 l 1,3,-1
 262 969 l 1,4,-1
 307 1182 l 1,5,-1
 1407 662 l 1,6,-1
 1376 492 l 1,0,-1
EndSplineSet
EndChar

StartChar: question.taml
Encoding: 129 -1 129
Width: 1179
Flags: W
LayerCount: 2
Fore
SplineSet
1122 899 m 0,0,1
 1106 819 1106 819 1018 702 c 0,2,3
 946 608 946 608 864 532 c 0,4,5
 753 428 753 428 694 348 c 0,6,7
 622 252 622 252 563 106 c 1,8,-1
 469 106 l 1,9,10
 494 221 494 221 545 336 c 0,11,12
 568 383 568 383 612 463 c 2,13,-1
 709 608 l 2,14,15
 760 684 760 684 797 760 c 0,16,17
 844 856 844 856 853 903 c 128,-1,18
 862 950 862 950 862 983 c 0,19,20
 862 1059 862 1059 819 1111 c 128,-1,21
 776 1163 776 1163 688 1163 c 0,22,23
 627 1163 627 1163 563.5 1133.5 c 128,-1,24
 500 1104 500 1104 489 1061 c 0,25,26
 487 1043 487 1043 526 971 c 0,27,28
 549 932 549 932 541 899 c 0,29,30
 531 852 531 852 500 821 c 0,31,32
 457 778 457 778 397 778 c 256,33,34
 338 778 338 778 309.5 809 c 128,-1,35
 281 840 281 840 281 893 c 0,36,37
 281 909 281 909 285 942 c 0,38,39
 322 1110 322 1110 479 1206 c 0,40,41
 612 1288 612 1288 760 1288 c 0,42,43
 860 1288 860 1288 954.5 1247 c 128,-1,44
 1049 1206 1049 1206 1085 1155 c 0,45,46
 1136 1073 1136 1073 1137 1001 c 0,47,48
 1136 969 1136 969 1122 899 c 0,0,1
625 -135 m 0,49,50
 611 -203 611 -203 553.5 -243 c 128,-1,51
 496 -283 496 -283 438 -283 c 0,52,53
 391 -283 391 -283 360 -260 c 0,54,55
 317 -229 317 -229 317 -170 c 0,56,57
 317 -152 317 -152 324.5 -117 c 128,-1,58
 332 -82 332 -82 386 -39 c 128,-1,59
 440 4 440 4 502 4 c 0,60,61
 555 4 555 4 591 -28.5 c 128,-1,62
 627 -61 627 -61 627 -113 c 0,63,64
 627 -129 627 -129 625 -135 c 0,49,50
EndSplineSet
EndChar

StartChar: uni0952
Encoding: 133 2386 133
Width: 28
Flags: W
LayerCount: 2
Fore
SplineSet
-524 -334 m 1,0,-1
 -1810 -330 l 1,1,-1
 -1896 -121 l 1,2,-1
 -612 -123 l 1,3,-1
 -524 -334 l 1,0,-1
6 717 m 1,4,-1
 2 721 l 1,5,-1
 6 717 l 1,4,-1
6 717 m 1,6,-1
 2 721 l 1,7,-1
 6 717 l 1,6,-1
EndSplineSet
EndChar

StartChar: u0B83
Encoding: 136 2947 136
Width: 1458
Flags: W
LayerCount: 2
Fore
SplineSet
1001 1094 m 0,0,1
 987 1018 987 1018 923.5 963.5 c 128,-1,2
 860 909 860 909 780 909 c 0,3,4
 712 909 712 909 672.5 952 c 128,-1,5
 633 995 633 995 633 1061 c 0,6,7
 633 1084 633 1084 635 1094 c 0,8,9
 649 1168 649 1168 714.5 1222 c 128,-1,10
 780 1276 780 1276 860 1276 c 0,11,12
 921 1276 921 1276 962.5 1235 c 128,-1,13
 1004 1194 1004 1194 1004 1133 c 0,14,15
 1003 1108 1003 1108 1001 1094 c 0,0,1
1221 190 m 0,16,17
 1207 120 1207 120 1140 65 c 128,-1,18
 1073 10 1073 10 999 10 c 0,19,20
 933 10 933 10 892.5 51 c 128,-1,21
 852 92 852 92 852 158 c 0,22,23
 852 181 852 181 854 190 c 0,24,25
 868 264 868 264 937 321.5 c 128,-1,26
 1006 379 1006 379 1079 379 c 0,27,28
 1145 379 1145 379 1185 336 c 128,-1,29
 1225 293 1225 293 1225 225 c 0,30,31
 1225 202 1225 202 1221 190 c 0,16,17
399 193 m 0,32,33
 385 119 385 119 316.5 64.5 c 128,-1,34
 248 10 248 10 174 10 c 0,35,36
 108 10 108 10 68.5 53 c 128,-1,37
 29 96 29 96 29 162 c 0,38,39
 29 180 29 180 31 190 c 0,40,41
 45 264 45 264 113.5 321.5 c 128,-1,42
 182 379 182 379 254 379 c 0,43,44
 320 379 320 379 360.5 335 c 128,-1,45
 401 291 401 291 401 225 c 0,46,47
 401 203 401 203 399 193 c 0,32,33
EndSplineSet
EndChar

StartChar: u0B85
Encoding: 137 2949 137
Width: 2336
Flags: HW
AnchorPoint: "V" 1214.5 1262.38 basechar 0
AnchorPoint: "N" 1214.5 -217 basechar 0
LayerCount: 2
Fore
SplineSet
2015 -217 m 1,0,-1
 1753 -217 l 1,1,-1
 1876 367 l 1,2,-1
 1651 367 l 1,3,4
 1499 191 1499 191 1265.5 92.5 c 128,-1,5
 1032 -6 1032 -6 764 -6 c 0,6,7
 440 -6 440 -6 266 119 c 0,8,9
 143 207 143 207 90 362 c 0,10,11
 86 378 86 378 86 393 c 0,12,13
 86 438 86 438 122 474 c 128,-1,14
 158 510 158 510 225 510 c 2,15,-1
 1495 510 l 1,16,17
 1591 641 1591 641 1620 778 c 0,18,19
 1630 823 1630 823 1630 870 c 0,20,21
 1630 944 1630 944 1596.5 996.5 c 128,-1,22
 1563 1049 1563 1049 1501 1079 c 1,23,24
 1517 1036 1517 1036 1518 979 c 0,25,26
 1518 948 1518 948 1518 920 c 0,27,28
 1510 889 1510 889 1507 879 c 0,29,30
 1476 740 1476 740 1395 659 c 0,31,32
 1299 565 1299 565 1133 565 c 0,33,34
 1016 565 1016 565 957.5 637 c 128,-1,35
 899 709 899 709 899 823 c 0,36,37
 899 880 899 880 909 926 c 0,38,39
 942 1080 942 1080 1061 1178 c 0,40,41
 1192 1287 1192 1287 1378 1286 c 0,42,43
 1603 1286 1603 1286 1729 1180.5 c 128,-1,44
 1855 1075 1855 1075 1855 877 c 0,45,46
 1855 805 1855 805 1836 709.5 c 128,-1,47
 1817 614 1817 614 1763 510 c 1,48,-1
 1915 510 l 1,49,-1
 2081 1292 l 1,50,-1
 2343 1292 l 1,51,-1
 2015 -217 l 1,0,-1
1296 905 m 0,52,53
 1304 938 1304 938 1305 969 c 0,54,55
 1305 1073 1305 1073 1247 1102 c 1,56,57
 1181 1112 1181 1112 1126 1056.5 c 128,-1,58
 1071 1001 1071 1001 1055 922 c 0,59,60
 1051 889 1051 889 1051 874 c 0,61,62
 1051 821 1051 821 1078.5 792.5 c 128,-1,63
 1106 764 1106 764 1145 764 c 0,64,65
 1204 764 1204 764 1245 807 c 128,-1,66
 1286 850 1286 850 1296 905 c 0,52,53
1354 362 m 1,67,-1
 276 362 l 2,68,69
 239 362 239 362 244 344 c 0,70,71
 289 254 289 254 397 203 c 0,72,73
 528 142 528 142 739 141 c 0,74,75
 1092 141 1092 141 1354 362 c 1,67,-1
EndSplineSet
EndChar

StartChar: u0B86
Encoding: 138 2950 138
Width: 2848
Flags: HW
AnchorPoint: "V" 1355 1283.76 basechar 0
AnchorPoint: "N" 1355 -702 basechar 0
LayerCount: 2
Fore
SplineSet
2605 145 m 0,0,1
 2519 -261 2519 -261 2204 -487 c 0,2,3
 1909 -702 1909 -702 1497 -702 c 0,4,5
 1159 -702 1159 -702 975 -614 c 128,-1,6
 791 -526 791 -526 791 -373 c 0,7,8
 791 -359 791 -359 795 -319 c 0,9,10
 824 -194 824 -194 947.5 -124.5 c 128,-1,11
 1071 -55 1071 -55 1231 -55 c 0,12,13
 1342 -55 1342 -55 1442 -96 c 128,-1,14
 1542 -137 1542 -137 1610 -209 c 1,15,-1
 1536 -303 l 1,16,17
 1468 -242 1468 -242 1378 -212 c 128,-1,18
 1288 -182 1288 -182 1192 -182 c 0,19,20
 1088 -182 1088 -182 1023 -218 c 128,-1,21
 958 -254 958 -254 944 -319 c 0,22,23
 942 -329 942 -329 942 -354 c 0,24,25
 942 -463 942 -463 1098 -514 c 0,26,27
 1229 -555 1229 -555 1440 -555 c 0,28,29
 1772 -555 1772 -555 2023.5 -356.5 c 128,-1,30
 2275 -158 2275 -158 2337 131 c 0,31,32
 2351 207 2351 207 2351 250 c 0,33,34
 2351 350 2351 350 2311 398 c 128,-1,35
 2271 446 2271 446 2210 446 c 0,36,37
 2181 446 2181 446 2150 430 c 1,38,-1
 2013 -219 l 1,39,-1
 1751 -219 l 1,40,-1
 1874 365 l 1,41,-1
 1649 365 l 1,42,43
 1497 189 1497 189 1263.5 90.5 c 128,-1,44
 1030 -8 1030 -8 762 -8 c 0,45,46
 438 -8 438 -8 264 117 c 0,47,48
 141 205 141 205 88 360 c 0,49,50
 84 376 84 376 84 391 c 0,51,52
 84 436 84 436 120 472 c 128,-1,53
 156 508 156 508 223 508 c 2,54,-1
 1493 508 l 1,55,56
 1589 639 1589 639 1618 776 c 0,57,58
 1628 821 1628 821 1628 868 c 0,59,60
 1628 942 1628 942 1594.5 994.5 c 128,-1,61
 1561 1047 1561 1047 1499 1077 c 1,62,63
 1515 1034 1515 1034 1516 977 c 0,64,65
 1516 946 1516 946 1516 918 c 0,66,67
 1508 887 1508 887 1505 877 c 0,68,69
 1474 738 1474 738 1393 657 c 0,70,71
 1297 563 1297 563 1130 563 c 0,72,73
 1013 563 1013 563 955 635 c 128,-1,74
 897 707 897 707 897 821 c 0,75,76
 897 878 897 878 907 924 c 0,77,78
 940 1078 940 1078 1059 1176 c 0,79,80
 1190 1285 1190 1285 1376 1284 c 0,81,82
 1601 1284 1601 1284 1727 1178.5 c 128,-1,83
 1853 1073 1853 1073 1853 874 c 0,84,85
 1853 802 1853 802 1834 707 c 128,-1,86
 1815 612 1815 612 1761 508 c 1,87,-1
 1913 508 l 1,88,-1
 2079 1290 l 1,89,-1
 2341 1290 l 1,90,-1
 2193 588 l 1,91,92
 2259 621 2259 621 2335 621 c 0,93,94
 2464 621 2464 621 2545 533.5 c 128,-1,95
 2626 446 2626 446 2626 285 c 0,96,97
 2625 219 2625 219 2605 145 c 0,0,1
1292 903 m 0,98,99
 1300 936 1300 936 1300 967 c 0,100,101
 1300 1071 1300 1071 1243 1100 c 1,102,103
 1177 1110 1177 1110 1122 1054.5 c 128,-1,104
 1067 999 1067 999 1051 920 c 0,105,106
 1047 887 1047 887 1047 872 c 0,107,108
 1047 819 1047 819 1074.5 790.5 c 128,-1,109
 1102 762 1102 762 1141 762 c 0,110,111
 1200 762 1200 762 1241 805 c 128,-1,112
 1282 848 1282 848 1292 903 c 0,98,99
1350 360 m 1,113,-1
 272 360 l 2,114,115
 235 360 235 360 240 342 c 0,116,117
 285 252 285 252 393 201 c 0,118,119
 524 140 524 140 735 139 c 0,120,121
 1088 139 1088 139 1350 360 c 1,113,-1
EndSplineSet
EndChar

StartChar: u0B87
Encoding: 139 2951 139
Width: 2209
Flags: HW
AnchorPoint: "V" 1066 1807.29 basechar 0
AnchorPoint: "N" 1066 -268 basechar 0
LayerCount: 2
Fore
SplineSet
2083 705 m 0,0,1
 2022 410 2022 410 1868 94 c 0,2,3
 1766 -115 1766 -115 1657 -268 c 1,4,-1
 1546 -217 l 1,5,6
 1646 -84 1646 -84 1741 113 c 0,7,8
 1870 379 1870 379 1927 639 c 0,9,10
 1956 770 1956 770 1956 899 c 0,11,12
 1956 1216 1956 1216 1774.5 1397.5 c 128,-1,13
 1593 1579 1593 1579 1284 1579 c 0,14,15
 944 1579 944 1579 673.5 1388.5 c 128,-1,16
 403 1198 403 1198 344 911 c 0,17,18
 328 829 328 829 328 735 c 0,19,20
 328 647 328 647 339 573.5 c 128,-1,21
 350 500 350 500 381 412 c 1,22,23
 676 545 676 545 977 545 c 0,24,25
 1020 545 1020 545 1075 540 c 128,-1,26
 1130 535 1130 535 1178 530 c 1,27,28
 1225 630 1225 630 1243 725 c 0,29,30
 1251 762 1251 762 1253 810 c 128,-1,31
 1255 858 1255 858 1255 860 c 0,32,33
 1255 1026 1255 1026 1133 1087 c 1,34,35
 1149 1044 1149 1044 1149 983 c 0,36,37
 1149 958 1149 958 1149 936 c 0,38,39
 1141 903 1141 903 1139 887 c 0,40,41
 1108 748 1108 748 1026 668 c 0,42,43
 926 574 926 574 764 573 c 0,44,45
 649 573 649 573 589.5 645 c 128,-1,46
 530 717 530 717 530 831 c 0,47,48
 530 888 530 888 541 934 c 0,49,50
 574 1088 574 1088 697.5 1192 c 128,-1,51
 821 1296 821 1296 1008 1296 c 0,52,53
 1491 1296 1491 1296 1491 885 c 0,54,55
 1491 813 1491 813 1475 731 c 0,56,57
 1444 594 1444 594 1386 475 c 1,58,59
 1501 428 1501 428 1563.5 356.5 c 128,-1,60
 1626 285 1626 285 1626 190 c 0,61,62
 1626 151 1626 151 1622 133 c 0,63,64
 1583 -55 1583 -55 1423.5 -152.5 c 128,-1,65
 1264 -250 1264 -250 1024 -250 c 0,66,67
 930 -250 930 -250 851 -234.5 c 128,-1,68
 772 -219 772 -219 692 -186 c 1,69,70
 510 -252 510 -252 340 -252 c 0,71,72
 188 -252 188 -252 97 -192.5 c 128,-1,73
 6 -133 6 -133 6 -16 c 0,74,75
 6 15 6 15 18.5 76 c 128,-1,76
 31 137 31 137 85 205.5 c 128,-1,77
 139 274 139 274 236 336 c 1,78,79
 205 422 205 422 190.5 517 c 128,-1,80
 176 612 176 612 176 702 c 0,81,82
 176 796 176 796 180 833 c 128,-1,83
 184 870 184 870 199 930 c 0,84,85
 289 1360 289 1360 623 1606 c 0,86,87
 932 1835 932 1835 1335 1835 c 0,88,89
 1708 1835 1708 1835 1917 1629 c 128,-1,90
 2126 1423 2126 1423 2126 1042 c 0,91,92
 2126 966 2126 966 2118 885.5 c 128,-1,93
 2110 805 2110 805 2083 705 c 0,0,1
932 909 m 0,94,95
 940 948 940 948 940 979 c 0,96,97
 940 1081 940 1081 883 1106 c 1,98,99
 817 1116 817 1116 765 1061 c 128,-1,100
 713 1006 713 1006 696 926 c 0,101,102
 692 893 692 893 692 879 c 0,103,104
 692 828 692 828 718.5 798 c 128,-1,105
 745 768 745 768 784 768 c 0,106,107
 841 768 841 768 882.5 811 c 128,-1,108
 924 854 924 854 932 909 c 0,94,95
1382 129 m 1,109,110
 1398 225 1398 225 1298 299 c 1,111,112
 1130 53 1130 53 893 -92 c 1,113,114
 932 -102 932 -102 969 -104 c 128,-1,115
 1006 -106 1006 -106 1053 -106 c 0,116,117
 1186 -106 1186 -106 1269.5 -39.5 c 128,-1,118
 1353 27 1353 27 1382 129 c 1,109,110
1094 387 m 1,119,120
 1020 403 1020 403 934 403 c 0,121,122
 811 403 811 403 685 372.5 c 128,-1,123
 559 342 559 342 434 283 c 1,124,125
 448 254 448 254 461.5 230.5 c 128,-1,126
 475 207 475 207 500 178 c 0,127,128
 545 119 545 119 586 78 c 128,-1,129
 627 37 627 37 686 0 c 1,130,131
 797 61 797 61 904.5 165.5 c 128,-1,132
 1012 270 1012 270 1094 387 c 1,119,120
506 -82 m 1,133,134
 453 -35 453 -35 442 -27 c 0,135,136
 385 26 385 26 346 82 c 1,137,-1
 287 199 l 1,138,139
 170 119 170 119 154 37 c 0,140,141
 140 -29 140 -29 197 -69 c 128,-1,142
 254 -109 254 -109 352 -109 c 0,143,144
 428 -109 428 -109 506 -82 c 1,133,134
EndSplineSet
EndChar

StartChar: u0B88
Encoding: 140 2952 140
Width: 1476
Flags: HW
AnchorPoint: "V" 688 1296 basechar 0
AnchorPoint: "N" 688 -8 basechar 0
LayerCount: 2
Fore
SplineSet
1335 641 m 0,0,1
 1321 582 1321 582 1270 538 c 128,-1,2
 1219 494 1219 494 1159 494 c 0,3,4
 1108 494 1108 494 1074 527.5 c 128,-1,5
 1040 561 1040 561 1040 612 c 0,6,7
 1040 628 1040 628 1047.5 664 c 128,-1,8
 1055 700 1055 700 1107 745.5 c 128,-1,9
 1159 791 1159 791 1221 791 c 0,10,11
 1274 791 1274 791 1304.5 757 c 128,-1,12
 1335 723 1335 723 1335 670 c 0,13,14
 1335 651 1335 651 1335 641 c 0,0,1
1352 1143 m 1,15,-1
 1075 1143 l 1,16,-1
 829 -8 l 1,17,-1
 571 -8 l 1,18,-1
 817 1143 l 1,19,-1
 383 1143 l 1,20,-1
 137 -8 l 1,21,-1
 -10 -8 l 1,22,-1
 266 1296 l 1,23,-1
 1386 1296 l 1,24,-1
 1352 1143 l 1,15,-1
643 643 m 0,25,26
 629 584 629 584 577.5 540 c 128,-1,27
 526 496 526 496 467 496 c 0,28,29
 414 496 414 496 380 529.5 c 128,-1,30
 346 563 346 563 346 614 c 0,31,32
 346 630 346 630 348 641 c 0,33,34
 362 700 362 700 414.5 745.5 c 128,-1,35
 467 791 467 791 528 791 c 0,36,37
 581 791 581 791 612 757 c 128,-1,38
 643 723 643 723 643 670 c 0,39,40
 643 651 643 651 643 643 c 0,25,26
EndSplineSet
EndChar

StartChar: u0B89
Encoding: 141 2953 141
Width: 2283
Flags: HW
AnchorPoint: "V" 1102 1207.29 basechar 0
AnchorPoint: "N" 1102 -8 basechar 0
LayerCount: 2
Fore
SplineSet
2058 -8 m 2,0,-1
 236 -8 l 2,1,2
 132 -8 132 -8 77.5 39 c 128,-1,3
 23 86 23 86 23 158 c 0,4,5
 23 248 23 248 105.5 321.5 c 128,-1,6
 188 395 188 395 326 395 c 2,7,-1
 674 395 l 2,8,9
 791 395 791 395 887 506 c 0,10,11
 971 602 971 602 995 727 c 0,12,13
 1011 809 1011 809 1012 874 c 0,14,15
 1012 997 1012 997 939 1066 c 128,-1,16
 866 1135 866 1135 709 1135 c 0,17,18
 623 1135 623 1135 538 1101 c 128,-1,19
 453 1067 453 1067 393 1010 c 1,20,21
 467 1049 467 1049 547 1049 c 0,22,23
 651 1049 651 1049 712.5 979 c 128,-1,24
 774 909 774 909 774 805 c 0,25,26
 774 772 774 772 766 733 c 0,27,28
 735 588 735 588 632.5 505 c 128,-1,29
 530 422 530 422 387 422 c 0,30,31
 264 422 264 422 209 493.5 c 128,-1,32
 154 565 154 565 154 688 c 0,33,34
 154 721 154 721 158 762 c 128,-1,35
 162 803 162 803 172 854 c 0,36,37
 209 1024 209 1024 369 1149 c 0,38,39
 543 1286 543 1286 780 1286 c 256,40,41
 1018 1286 1018 1286 1141 1177.5 c 128,-1,42
 1264 1069 1264 1069 1264 883 c 0,43,44
 1264 815 1264 815 1247 739 c 0,45,46
 1194 487 1194 487 1038.5 359 c 128,-1,47
 883 231 883 231 637 231 c 2,48,-1
 362 231 l 2,49,50
 268 231 268 231 268 170 c 0,51,52
 268 125 268 125 336 125 c 2,53,-1
 2085 125 l 2,54,55
 2130 125 2130 125 2155.5 108.5 c 128,-1,56
 2181 92 2181 92 2181 70 c 0,57,58
 2181 43 2181 43 2147 19.5 c 128,-1,59
 2113 -4 2113 -4 2058 -8 c 2,0,-1
547 786 m 0,60,61
 547 825 547 825 520.5 851 c 128,-1,62
 494 877 494 877 455 877 c 0,63,64
 379 877 379 877 313 803 c 1,65,66
 305 764 305 764 305 733 c 0,67,68
 305 676 305 676 330.5 640 c 128,-1,69
 356 604 356 604 403 604 c 0,70,71
 469 604 469 604 509 662 c 128,-1,72
 549 720 549 720 547 786 c 0,60,61
EndSplineSet
EndChar

StartChar: u0B8A
Encoding: 142 2954 142
Width: 3682
Flags: HW
AnchorPoint: "V" 1854.5 1200.56 basechar 0
AnchorPoint: "N" 1854.5 -16 basechar 0
LayerCount: 2
Fore
SplineSet
3652 1143 m 1,0,-1
 3375 1143 l 1,1,-1
 3166 160 l 1,2,-1
 2906 160 l 1,3,-1
 3115 1143 l 1,4,-1
 2849 1143 l 1,5,-1
 2640 160 l 1,6,-1
 2380 160 l 1,7,-1
 2533 887 l 2,8,9
 2537 920 2537 920 2537 930 c 0,10,11
 2537 1026 2537 1026 2453.5 1081.5 c 128,-1,12
 2370 1137 2370 1137 2218 1137 c 0,13,14
 2058 1137 2058 1137 1913 1071 c 0,15,16
 1784 1014 1784 1014 1716 932 c 1,17,18
 1812 979 1812 979 1937 979 c 0,19,20
 2074 979 2074 979 2154 899 c 128,-1,21
 2234 819 2234 819 2234 682 c 0,22,23
 2234 625 2234 625 2224 580 c 0,24,25
 2181 385 2181 385 2075.5 271.5 c 128,-1,26
 1970 158 1970 158 1810 158 c 0,27,28
 1648 158 1648 158 1557 256 c 128,-1,29
 1466 354 1466 354 1466 537 c 0,30,31
 1466 613 1466 613 1489 721 c 0,32,33
 1546 983 1546 983 1749 1134.5 c 128,-1,34
 1952 1286 1952 1286 2226 1286 c 0,35,36
 2429 1286 2429 1286 2544.5 1246 c 128,-1,37
 2660 1206 2660 1206 2712 1145 c 1,38,-1
 2742 1288 l 1,39,-1
 3684 1288 l 1,40,-1
 3652 1143 l 1,0,-1
3281 -16 m 2,41,-1
 238 -16 l 2,42,43
 134 -16 134 -16 79.5 31 c 128,-1,44
 25 78 25 78 25 150 c 0,45,46
 25 240 25 240 107.5 313.5 c 128,-1,47
 190 387 190 387 328 387 c 2,48,-1
 676 387 l 2,49,50
 793 387 793 387 889 498 c 0,51,52
 973 594 973 594 997 719 c 0,53,54
 1013 801 1013 801 1014 866 c 0,55,56
 1014 989 1014 989 941 1057.5 c 128,-1,57
 868 1126 868 1126 711 1126 c 0,58,59
 625 1126 625 1126 540 1092.5 c 128,-1,60
 455 1059 455 1059 395 1001 c 1,61,62
 469 1040 469 1040 549 1040 c 0,63,64
 653 1040 653 1040 714.5 970.5 c 128,-1,65
 776 901 776 901 776 797 c 0,66,67
 776 764 776 764 768 725 c 0,68,69
 737 580 737 580 634.5 497 c 128,-1,70
 532 414 532 414 389 414 c 0,71,72
 266 414 266 414 211 485.5 c 128,-1,73
 156 557 156 557 156 680 c 0,74,75
 156 713 156 713 160 754 c 128,-1,76
 164 795 164 795 174 846 c 0,77,78
 211 1016 211 1016 371 1141 c 0,79,80
 545 1278 545 1278 782 1278 c 256,81,82
 1020 1278 1020 1278 1143 1169.5 c 128,-1,83
 1266 1061 1266 1061 1266 874 c 0,84,85
 1266 806 1266 806 1249 731 c 0,86,87
 1196 479 1196 479 1040.5 351 c 128,-1,88
 885 223 885 223 639 223 c 2,89,-1
 365 223 l 2,90,91
 271 223 271 223 270 162 c 0,92,93
 270 117 270 117 338 117 c 2,94,-1
 3308 117 l 2,95,96
 3355 117 3355 117 3378.5 101.5 c 128,-1,97
 3402 86 3402 86 3402 61 c 0,98,99
 3402 34 3402 34 3368 11 c 128,-1,100
 3334 -12 3334 -12 3281 -16 c 2,41,-1
1954 584 m 0,101,102
 1956 598 1956 598 1956 627 c 0,103,104
 1956 695 1956 695 1918 745 c 128,-1,105
 1880 795 1880 795 1821 795 c 0,106,107
 1755 795 1755 795 1700 759 c 128,-1,108
 1645 723 1645 723 1622 676 c 1,109,110
 1614 637 1614 637 1614 598 c 0,111,112
 1614 514 1614 514 1647.5 449.5 c 128,-1,113
 1681 385 1681 385 1753 385 c 0,114,115
 1829 385 1829 385 1881.5 443.5 c 128,-1,116
 1934 502 1934 502 1954 584 c 0,101,102
547 782 m 0,117,118
 547 821 547 821 520.5 846.5 c 128,-1,119
 494 872 494 872 455 872 c 0,120,121
 379 872 379 872 313 799 c 1,122,123
 305 760 305 760 305 729 c 0,124,125
 305 672 305 672 330.5 636 c 128,-1,126
 356 600 356 600 403 600 c 0,127,128
 469 600 469 600 509 658 c 128,-1,129
 549 716 549 716 547 782 c 0,117,118
EndSplineSet
EndChar

